# Blender v2.79 (sub 0) OBJ File: 'Banco di Scuola.blend'
# www.blender.org
mtllib Banco di Scuola.mtl
o Plane
v -0.500000 1.000000 0.800000
v 0.500000 1.000000 0.800000
v -0.500000 1.000000 -0.800000
v 0.500000 1.000000 -0.800000
v -0.500000 1.050000 0.800000
v 0.500000 1.050000 0.800000
v -0.500000 1.050000 -0.800000
v 0.500000 1.050000 -0.800000
v -0.500000 1.000000 0.000000
v 0.000000 1.000000 0.800000
v 0.500000 1.000000 0.000000
v 0.000000 1.000000 -0.800000
v 0.000000 1.000000 0.000000
v -0.500000 1.000000 0.400000
v 0.250000 1.000000 0.800000
v 0.500000 1.000000 -0.400000
v -0.250000 1.000000 -0.800000
v -0.500000 1.000000 -0.400000
v -0.250000 1.000000 0.800000
v 0.500000 1.000000 0.400000
v 0.250000 1.000000 -0.800000
v 0.250000 1.000000 0.000000
v -0.250000 1.000000 0.000000
v 0.000000 1.000000 0.400000
v 0.000000 1.000000 -0.400000
v -0.250000 1.000000 -0.400000
v -0.250000 1.000000 0.400000
v 0.250000 1.000000 0.400000
v 0.250000 1.000000 -0.400000
v -0.500000 1.000000 0.600000
v 0.375000 1.000000 0.800000
v 0.500000 1.000000 -0.600000
v -0.375000 1.000000 -0.800000
v -0.500000 1.000000 -0.200000
v -0.125000 1.000000 0.800000
v 0.500000 1.000000 0.200000
v 0.125000 1.000000 -0.800000
v 0.375000 1.000000 0.000000
v -0.125000 1.000000 0.000000
v 0.000000 1.000000 0.600000
v 0.000000 1.000000 -0.200000
v -0.500000 1.000000 0.200000
v 0.125000 1.000000 0.800000
v 0.500000 1.000000 -0.200000
v -0.125000 1.000000 -0.800000
v -0.500000 1.000000 -0.600000
v -0.375000 1.000000 0.800000
v 0.500000 1.000000 0.600000
v 0.375000 1.000000 -0.800000
v 0.125000 1.000000 0.000000
v -0.375000 1.000000 0.000000
v 0.000000 1.000000 0.200000
v 0.000000 1.000000 -0.600000
v -0.125000 1.000000 -0.400000
v -0.375000 1.000000 -0.400000
v -0.250000 1.000000 -0.200000
v -0.250000 1.000000 -0.600000
v -0.125000 1.000000 0.400000
v -0.375000 1.000000 0.400000
v -0.250000 1.000000 0.600000
v -0.250000 1.000000 0.200000
v 0.375000 1.000000 0.400000
v 0.125000 1.000000 0.400000
v 0.250000 1.000000 0.600000
v 0.250000 1.000000 0.200000
v 0.375000 1.000000 -0.400000
v 0.125000 1.000000 -0.400000
v 0.250000 1.000000 -0.200000
v 0.250000 1.000000 -0.600000
v 0.125000 1.000000 -0.600000
v 0.125000 1.000000 -0.200000
v 0.375000 1.000000 -0.200000
v 0.125000 1.000000 0.200000
v 0.125000 1.000000 0.600000
v 0.375000 1.000000 0.600000
v -0.375000 1.000000 0.200000
v -0.375000 1.000000 0.600000
v -0.125000 1.000000 0.600000
v -0.375000 1.000000 -0.600000
v -0.375000 1.000000 -0.200000
v -0.125000 1.000000 -0.200000
v -0.125000 1.000000 -0.600000
v -0.125000 1.000000 0.200000
v 0.375000 1.000000 0.200000
v 0.375000 1.000000 -0.600000
v -0.500000 1.000000 0.700000
v 0.437500 1.000000 0.800000
v 0.500000 1.000000 -0.700000
v -0.437500 1.000000 -0.800000
v -0.500000 1.000000 -0.100000
v -0.062500 1.000000 0.800000
v 0.500000 1.000000 0.100000
v 0.062500 1.000000 -0.800000
v 0.437500 1.000000 0.000000
v -0.062500 1.000000 0.000000
v 0.000000 1.000000 0.700000
v 0.000000 1.000000 -0.100000
v -0.500000 1.000000 0.300000
v 0.187500 1.000000 0.800000
v 0.500000 1.000000 -0.300000
v -0.187500 1.000000 -0.800000
v -0.500000 1.000000 -0.500000
v -0.312500 1.000000 0.800000
v 0.500000 1.000000 0.500000
v 0.312500 1.000000 -0.800000
v 0.187500 1.000000 0.000000
v -0.312500 1.000000 0.000000
v 0.000000 1.000000 0.300000
v 0.000000 1.000000 -0.500000
v -0.062500 1.000000 -0.400000
v -0.312500 1.000000 -0.400000
v -0.250000 1.000000 -0.100000
v -0.250000 1.000000 -0.500000
v -0.062500 1.000000 0.400000
v -0.312500 1.000000 0.400000
v -0.250000 1.000000 0.700000
v -0.250000 1.000000 0.300000
v 0.437500 1.000000 0.400000
v 0.187500 1.000000 0.400000
v 0.250000 1.000000 0.700000
v 0.250000 1.000000 0.300000
v 0.437500 1.000000 -0.400000
v 0.187500 1.000000 -0.400000
v 0.250000 1.000000 -0.100000
v 0.250000 1.000000 -0.500000
v -0.500000 1.000000 0.500000
v 0.312500 1.000000 0.800000
v 0.500000 1.000000 -0.500000
v -0.312500 1.000000 -0.800000
v -0.500000 1.000000 -0.300000
v -0.187500 1.000000 0.800000
v 0.500000 1.000000 0.300000
v 0.187500 1.000000 -0.800000
v 0.312500 1.000000 0.000000
v -0.187500 1.000000 0.000000
v 0.000000 1.000000 0.500000
v 0.000000 1.000000 -0.300000
v -0.500000 1.000000 0.100000
v 0.062500 1.000000 0.800000
v 0.500000 1.000000 -0.100000
v -0.062500 1.000000 -0.800000
v -0.500000 1.000000 -0.700000
v -0.437500 1.000000 0.800000
v 0.500000 1.000000 0.700000
v 0.437500 1.000000 -0.800000
v 0.062500 1.000000 0.000000
v -0.437500 1.000000 0.000000
v 0.000000 1.000000 0.100000
v 0.000000 1.000000 -0.700000
v -0.187500 1.000000 -0.400000
v -0.437500 1.000000 -0.400000
v -0.250000 1.000000 -0.300000
v -0.250000 1.000000 -0.700000
v -0.187500 1.000000 0.400000
v -0.437500 1.000000 0.400000
v -0.250000 1.000000 0.500000
v -0.250000 1.000000 0.100000
v 0.312500 1.000000 0.400000
v 0.062500 1.000000 0.400000
v 0.250000 1.000000 0.500000
v 0.250000 1.000000 0.100000
v 0.312500 1.000000 -0.400000
v 0.062500 1.000000 -0.400000
v 0.250000 1.000000 -0.300000
v 0.250000 1.000000 -0.700000
v 0.187500 1.000000 -0.600000
v 0.062500 1.000000 -0.600000
v 0.125000 1.000000 -0.500000
v 0.125000 1.000000 -0.700000
v 0.187500 1.000000 -0.200000
v 0.062500 1.000000 -0.200000
v 0.125000 1.000000 -0.100000
v 0.125000 1.000000 -0.300000
v 0.437500 1.000000 -0.200000
v 0.312500 1.000000 -0.200000
v 0.375000 1.000000 -0.100000
v 0.375000 1.000000 -0.300000
v 0.187500 1.000000 0.200000
v 0.062500 1.000000 0.200000
v 0.125000 1.000000 0.300000
v 0.125000 1.000000 0.100000
v 0.187500 1.000000 0.600000
v 0.062500 1.000000 0.600000
v 0.125000 1.000000 0.700000
v 0.125000 1.000000 0.500000
v 0.437500 1.000000 0.600000
v 0.312500 1.000000 0.600000
v 0.375000 1.000000 0.700000
v 0.375000 1.000000 0.500000
v -0.312500 1.000000 0.200000
v -0.437500 1.000000 0.200000
v -0.375000 1.000000 0.300000
v -0.375000 1.000000 0.100000
v -0.312500 1.000000 0.600000
v -0.437500 1.000000 0.600000
v -0.375000 1.000000 0.700000
v -0.375000 1.000000 0.500000
v -0.062500 1.000000 0.600000
v -0.187500 1.000000 0.600000
v -0.125000 1.000000 0.700000
v -0.125000 1.000000 0.500000
v -0.312500 1.000000 -0.600000
v -0.437500 1.000000 -0.600000
v -0.375000 1.000000 -0.500000
v -0.375000 1.000000 -0.700000
v -0.312500 1.000000 -0.200000
v -0.437500 1.000000 -0.200000
v -0.375000 1.000000 -0.100000
v -0.375000 1.000000 -0.300000
v -0.062500 1.000000 -0.200000
v -0.187500 1.000000 -0.200000
v -0.125000 1.000000 -0.100000
v -0.125000 1.000000 -0.300000
v -0.062500 1.000000 -0.600000
v -0.187500 1.000000 -0.600000
v -0.125000 1.000000 -0.500000
v -0.125000 1.000000 -0.700000
v -0.062500 1.000000 0.200000
v -0.187500 1.000000 0.200000
v -0.125000 1.000000 0.300000
v -0.125000 1.000000 0.100000
v 0.437500 1.000000 0.200000
v 0.312500 1.000000 0.200000
v 0.375000 1.000000 0.300000
v 0.375000 1.000000 0.100000
v 0.437500 1.000000 -0.600000
v 0.312500 1.000000 -0.600000
v 0.375000 1.000000 -0.500000
v 0.375000 1.000000 -0.700000
v 0.312500 1.000000 -0.700000
v 0.312500 1.000000 -0.500000
v 0.437500 1.000000 -0.500000
v 0.312500 1.000000 0.100000
v 0.312500 1.000000 0.300000
v 0.437500 1.000000 0.300000
v -0.187500 1.000000 0.100000
v -0.187500 1.000000 0.300000
v -0.062500 1.000000 0.300000
v -0.187500 1.000000 -0.700000
v -0.187500 1.000000 -0.500000
v -0.062500 1.000000 -0.500000
v -0.187500 1.000000 -0.300000
v -0.187500 1.000000 -0.100000
v -0.062500 1.000000 -0.100000
v -0.437500 1.000000 -0.300000
v -0.437500 1.000000 -0.100000
v -0.312500 1.000000 -0.100000
v -0.437500 1.000000 -0.700000
v -0.437500 1.000000 -0.500000
v -0.312500 1.000000 -0.500000
v -0.187500 1.000000 0.500000
v -0.187500 1.000000 0.700000
v -0.062500 1.000000 0.700000
v -0.437500 1.000000 0.500000
v -0.437500 1.000000 0.700000
v -0.312500 1.000000 0.700000
v -0.437500 1.000000 0.100000
v -0.437500 1.000000 0.300000
v -0.312500 1.000000 0.300000
v 0.312500 1.000000 0.500000
v 0.312500 1.000000 0.700000
v 0.437500 1.000000 0.700000
v 0.062500 1.000000 0.500000
v 0.062500 1.000000 0.700000
v 0.187500 1.000000 0.700000
v 0.062500 1.000000 0.100000
v 0.062500 1.000000 0.300000
v 0.187500 1.000000 0.300000
v 0.312500 1.000000 -0.300000
v 0.312500 1.000000 -0.100000
v 0.437500 1.000000 -0.100000
v 0.062500 1.000000 -0.300000
v 0.062500 1.000000 -0.100000
v 0.187500 1.000000 -0.100000
v 0.062500 1.000000 -0.700000
v 0.062500 1.000000 -0.500000
v 0.187500 1.000000 -0.500000
v 0.187500 1.000000 -0.700000
v 0.187500 1.000000 -0.300000
v 0.437500 1.000000 -0.300000
v 0.187500 1.000000 0.100000
v 0.187500 1.000000 0.500000
v 0.437500 1.000000 0.500000
v -0.312500 1.000000 0.100000
v -0.312500 1.000000 0.500000
v -0.062500 1.000000 0.500000
v -0.312500 1.000000 -0.700000
v -0.312500 1.000000 -0.300000
v -0.062500 1.000000 -0.300000
v -0.062500 1.000000 -0.700000
v -0.062500 1.000000 0.100000
v 0.437500 1.000000 0.100000
v 0.437500 1.000000 -0.700000
v 0.312500 0.000000 0.600000
v 0.375000 0.000000 0.600000
v 0.375000 0.000000 0.500000
v -0.375000 0.000000 0.500000
v -0.375000 0.000000 0.600000
v 0.312500 0.000000 -0.600000
v 0.375000 0.000000 -0.600000
v -0.312500 0.000000 0.600000
v -0.375000 0.000000 -0.600000
v -0.312500 0.000000 -0.600000
v -0.375000 0.000000 -0.500000
v 0.375000 0.000000 -0.500000
v 0.312500 0.000000 -0.500000
v -0.312500 0.000000 -0.500000
v 0.312500 0.000000 0.500000
v -0.312500 0.000000 0.500000
v -0.437500 0.970000 0.000000
v -0.375000 0.970000 0.000000
v 0.000000 0.970000 -0.700000
v 0.000000 0.970000 -0.600000
v -0.437500 0.970000 -0.400000
v -0.375000 0.970000 -0.400000
v -0.250000 0.970000 -0.700000
v -0.250000 0.970000 -0.600000
v -0.437500 0.970000 0.400000
v -0.375000 0.970000 0.400000
v 0.250000 0.970000 -0.700000
v 0.250000 0.970000 -0.600000
v 0.187500 0.970000 -0.600000
v 0.062500 0.970000 -0.600000
v 0.125000 0.970000 -0.600000
v 0.125000 0.970000 -0.700000
v 0.375000 0.970000 -0.100000
v 0.375000 0.970000 0.000000
v 0.375000 0.970000 -0.300000
v 0.375000 0.970000 -0.200000
v 0.187500 0.970000 0.600000
v 0.250000 0.970000 0.600000
v 0.062500 0.970000 0.600000
v 0.125000 0.970000 0.600000
v 0.312500 0.970000 0.600000
v 0.375000 0.970000 0.600000
v 0.375000 0.970000 0.500000
v -0.437500 0.970000 0.200000
v -0.375000 0.970000 0.200000
v -0.375000 0.970000 0.300000
v -0.375000 0.970000 0.100000
v -0.312500 0.970000 0.600000
v -0.250000 0.970000 0.600000
v -0.437500 0.970000 0.600000
v -0.375000 0.970000 0.600000
v -0.375000 0.970000 0.500000
v -0.062500 0.970000 0.600000
v 0.000000 0.970000 0.600000
v -0.187500 0.970000 0.600000
v -0.125000 0.970000 0.600000
v -0.312500 0.970000 -0.600000
v -0.437500 0.970000 -0.600000
v -0.375000 0.970000 -0.600000
v -0.375000 0.970000 -0.500000
v -0.375000 0.970000 -0.700000
v -0.437500 0.970000 -0.200000
v -0.375000 0.970000 -0.200000
v -0.375000 0.970000 -0.100000
v -0.375000 0.970000 -0.300000
v -0.062500 0.970000 -0.600000
v -0.187500 0.970000 -0.600000
v -0.125000 0.970000 -0.600000
v -0.125000 0.970000 -0.700000
v 0.375000 0.970000 0.300000
v 0.375000 0.970000 0.400000
v 0.375000 0.970000 0.100000
v 0.375000 0.970000 0.200000
v 0.312500 0.970000 -0.600000
v 0.375000 0.970000 -0.600000
v 0.375000 0.970000 -0.500000
v 0.375000 0.970000 -0.400000
v 0.375000 0.970000 -0.700000
v 0.437500 0.970000 0.000000
v 0.000000 0.970000 0.700000
v -0.250000 0.970000 0.700000
v 0.437500 0.970000 0.400000
v 0.250000 0.970000 0.700000
v 0.437500 0.970000 -0.400000
v 0.437500 0.970000 -0.200000
v 0.125000 0.970000 0.700000
v 0.437500 0.970000 0.600000
v 0.375000 0.970000 0.700000
v -0.375000 0.970000 0.700000
v -0.125000 0.970000 0.700000
v 0.437500 0.970000 0.200000
v 0.437500 0.970000 -0.600000
v 0.312500 0.970000 -0.700000
v 0.437500 0.970000 -0.500000
v 0.437500 0.970000 0.300000
v -0.187500 0.970000 -0.700000
v -0.437500 0.970000 -0.300000
v -0.437500 0.970000 -0.100000
v -0.437500 0.970000 -0.700000
v -0.437500 0.970000 -0.500000
v -0.187500 0.970000 0.700000
v -0.062500 0.970000 0.700000
v -0.437500 0.970000 0.500000
v -0.437500 0.970000 0.700000
v -0.312500 0.970000 0.700000
v -0.437500 0.970000 0.100000
v -0.437500 0.970000 0.300000
v 0.312500 0.970000 0.700000
v 0.437500 0.970000 0.700000
v 0.062500 0.970000 0.700000
v 0.187500 0.970000 0.700000
v 0.437500 0.970000 -0.100000
v 0.062500 0.970000 -0.700000
v 0.187500 0.970000 -0.700000
v 0.437500 0.970000 -0.300000
v 0.437500 0.970000 0.500000
v -0.312500 0.970000 -0.700000
v -0.062500 0.970000 -0.700000
v 0.437500 0.970000 0.100000
v 0.437500 0.970000 -0.700000
vn 0.0000 -1.0000 0.0000
vn 0.0000 1.0000 0.0000
vn 0.0000 0.0000 1.0000
vn 1.0000 0.0000 0.0000
vn -1.0000 0.0000 0.0000
vn 0.0000 0.0000 -1.0000
usemtl None
s off
f 293//1 145//1 4//1 88//1
f 5//2 6//2 8//2 7//2
f 1//3 143//3 47//3 103//3 19//3 131//3 35//3 91//3 10//3 139//3 43//3 99//3 15//3 127//3 31//3 87//3 2//3 6//3 5//3
f 2//4 144//4 48//4 104//4 20//4 132//4 36//4 92//4 11//4 140//4 44//4 100//4 16//4 128//4 32//4 88//4 4//4 8//4 6//4
f 3//5 142//5 46//5 102//5 18//5 130//5 34//5 90//5 9//5 138//5 42//5 98//5 14//5 126//5 30//5 86//5 1//5 5//5 7//5
f 4//6 145//6 49//6 105//6 21//6 133//6 37//6 93//6 12//6 141//6 45//6 101//6 17//6 129//6 33//6 89//6 3//6 7//6 8//6
f 292//1 94//1 11//1 92//1
f 291//1 95//1 13//1 148//1
f 290//1 141//1 12//1 149//1
f 289//1 110//1 25//1 137//1
f 288//1 111//1 26//1 152//1
f 287//1 129//1 17//1 153//1
f 286//1 114//1 24//1 136//1
f 285//1 115//1 27//1 156//1
f 284//1 107//1 23//1 157//1
f 283//1 118//1 20//1 104//1
f 282//1 119//1 28//1 160//1
f 281//1 106//1 22//1 161//1
f 280//1 122//1 16//1 100//1
f 279//1 123//1 29//1 164//1
f 278//1 133//1 21//1 165//1
f 277//1 166//1 69//1 125//1
f 276//1 167//1 70//1 168//1
f 275//1 93//1 37//1 169//1
f 274//1 170//1 68//1 124//1
f 273//1 171//1 71//1 172//1
f 272//1 163//1 67//1 173//1
f 271//1 174//1 44//1 140//1
f 270//1 175//1 72//1 176//1
f 269//1 162//1 66//1 177//1
f 268//1 178//1 65//1 121//1
f 267//1 179//1 73//1 180//1
f 266//1 146//1 50//1 181//1
f 193//4 76//4 338//4 340//4
f 192//4 59//4 319//4 339//4
f 263//1 159//1 63//1 185//1
f 262//1 186//1 48//1 144//1
f 205//6 287//6 410//6 354//6
f 260//1 158//1 62//1 189//1
f 259//1 190//1 61//1 117//1
f 202//3 79//3 352//3 350//3
f 222//4 235//4 388//4 384//4
f 203//5 248//5 392//5 351//5
f 287//6 153//6 316//6 410//6
f 261//3 120//3 376//3 401//3
f 235//4 118//4 375//4 388//4
f 188//3 261//3 401//3 381//3
f 251//1 154//1 58//1 201//1
f 250//1 202//1 57//1 113//1
f 248//6 205//6 354//6 392//6
f 248//1 89//1 33//1 205//1
f 247//1 206//1 56//1 112//1
f 75//5 189//5 336//5 335//5
f 60//6 199//6 348//6 342//6
f 244//1 210//1 41//1 97//1
f 243//1 211//1 81//1 212//1
f 242//1 150//1 54//1 213//1
f 241//1 214//1 53//1 109//1
f 240//1 215//1 82//1 216//1
f 239//1 101//1 45//1 217//1
f 238//1 218//1 52//1 108//1
f 237//1 219//1 83//1 220//1
f 236//1 135//1 39//1 221//1
f 235//1 222//1 36//1 132//1
f 234//1 223//1 84//1 224//1
f 233//1 134//1 38//1 225//1
f 232//1 226//1 32//1 128//1
f 187//5 260//5 308//5 294//5
f 230//1 105//1 49//1 229//1
f 78//6 198//6 346//6 349//6
f 187//6 75//6 335//6 334//6
f 165//1 21//1 105//1 230//1
f 162//1 231//1 228//1 66//1
f 29//1 125//1 231//1 162//1
f 125//1 69//1 227//1 231//1
f 122//1 232//1 128//1 16//1
f 59//4 197//4 345//4 319//4
f 246//5 207//5 355//5 391//5
f 223//1 233//1 225//1 84//1
f 65//1 161//1 233//1 223//1
f 161//1 22//1 134//1 233//1
f 158//1 234//1 224//1 62//1
f 28//1 121//1 234//1 158//1
f 121//1 65//1 223//1 234//1
f 118//1 235//1 132//1 20//1
f 77//6 194//6 341//6 344//6
f 147//5 246//5 391//5 310//5
f 219//1 236//1 221//1 83//1
f 61//1 157//1 236//1 219//1
f 157//1 23//1 135//1 236//1
f 154//1 237//1 220//1 58//1
f 27//1 117//1 237//1 154//1
f 117//1 61//1 219//1 237//1
f 114//1 238//1 108//1 24//1
f 58//1 220//1 238//1 114//1
f 220//1 83//1 218//1 238//1
f 183//6 74//6 333//6 332//6
f 51//4 193//4 340//4 311//4
f 153//1 17//1 101//1 239//1
f 150//1 240//1 216//1 54//1
f 26//1 113//1 240//1 150//1
f 113//1 57//1 215//1 240//1
f 110//1 241//1 109//1 25//1
f 54//1 216//1 241//1 110//1
f 216//1 82//1 214//1 241//1
f 211//1 242//1 213//1 81//1
f 56//1 152//1 242//1 211//1
f 152//1 26//1 150//1 242//1
f 135//1 243//1 212//1 39//1
f 23//1 112//1 243//1 135//1
f 112//1 56//1 211//1 243//1
f 95//1 244//1 97//1 13//1
f 39//1 212//1 244//1 95//1
f 212//1 81//1 210//1 244//1
f 182//6 64//6 331//6 330//6
f 34//1 130//1 245//1 207//1
f 130//1 18//1 151//1 245//1
f 76//4 192//4 339//4 338//4
f 9//1 90//1 246//1 147//1
f 90//1 34//1 207//1 246//1
f 107//1 247//1 112//1 23//1
f 51//1 208//1 247//1 107//1
f 208//1 80//1 206//1 247//1
f 174//4 271//4 405//4 378//4
f 46//1 142//1 248//1 203//1
f 142//1 3//1 89//1 248//1
f 258//5 191//5 337//5 400//5
f 18//1 102//1 249//1 151//1
f 102//1 46//1 203//1 249//1
f 111//1 250//1 113//1 26//1
f 55//1 204//1 250//1 111//1
f 260//6 189//6 296//6 308//6
f 199//1 251//1 201//1 78//1
f 60//1 156//1 251//1 199//1
f 156//1 27//1 154//1 251//1
f 131//1 252//1 200//1 35//1
f 19//1 116//1 252//1 131//1
f 271//4 94//4 372//4 405//4
f 91//1 253//1 96//1 10//1
f 35//1 200//1 253//1 91//1
f 245//5 151//5 314//5 390//5
f 155//5 258//5 400//5 318//5
f 30//1 126//1 254//1 195//1
f 126//1 14//1 155//1 254//1
f 143//1 255//1 196//1 47//1
f 1//1 86//1 255//1 143//1
f 86//1 30//1 195//1 255//1
f 103//1 256//1 116//1 19//1
f 47//1 196//1 256//1 103//1
f 226//4 232//4 387//4 385//4
f 207//5 245//5 390//5 355//5
f 42//1 138//1 257//1 191//1
f 138//1 9//1 147//1 257//1
f 189//5 62//5 364//5 336//5
f 14//1 98//1 258//1 155//1
f 98//1 42//1 191//1 258//1
f 115//1 259//1 117//1 27//1
f 59//1 192//1 259//1 115//1
f 192//1 76//1 190//1 259//1
f 202//4 250//4 307//4 303//4
f 64//1 160//1 260//1 187//1
f 160//1 28//1 158//1 260//1
f 127//1 261//1 188//1 31//1
f 15//1 120//1 261//1 127//1
f 232//4 122//4 377//4 387//4
f 87//1 262//1 144//1 2//1
f 31//1 188//1 262//1 87//1
f 118//4 283//4 409//4 375//4
f 183//1 263//1 185//1 74//1
f 40//1 136//1 263//1 183//1
f 136//1 24//1 159//1 263//1
f 139//1 264//1 184//1 43//1
f 10//1 96//1 264//1 139//1
f 72//5 177//5 328//5 329//5
f 99//1 265//1 120//1 15//1
f 43//1 184//1 265//1 99//1
f 283//4 186//4 380//4 409//4
f 179//1 266//1 181//1 73//1
f 52//1 148//1 266//1 179//1
f 148//1 13//1 146//1 266//1
f 159//1 267//1 180//1 63//1
f 24//1 108//1 267//1 159//1
f 108//1 52//1 179//1 267//1
f 119//1 268//1 121//1 28//1
f 63//1 180//1 268//1 119//1
f 180//1 73//1 178//1 268//1
f 175//1 269//1 177//1 72//1
f 68//1 164//1 269//1 175//1
f 164//1 29//1 162//1 269//1
f 134//1 270//1 176//1 38//1
f 22//1 124//1 270//1 134//1
f 124//1 68//1 175//1 270//1
f 94//1 271//1 140//1 11//1
f 64//6 187//6 334//6 331//6
f 257//5 147//5 310//5 399//5
f 171//1 272//1 173//1 71//1
f 41//1 137//1 272//1 171//1
f 137//1 25//1 163//1 272//1
f 146//1 273//1 172//1 50//1
f 13//1 97//1 273//1 146//1
f 97//1 41//1 171//1 273//1
f 106//1 274//1 124//1 22//1
f 50//1 172//1 274//1 106//1
f 172//1 71//1 170//1 274//1
f 66//5 228//5 369//5 370//5
f 38//5 176//5 326//5 327//5
f 149//1 12//1 93//1 275//1
f 163//1 276//1 168//1 67//1
f 25//1 109//1 276//1 163//1
f 109//1 53//1 167//1 276//1
f 123//1 277//1 125//1 29//1
f 67//1 168//1 277//1 123//1
f 168//1 70//1 166//1 277//1
f 191//5 257//5 399//5 337//5
f 85//3 227//3 367//3 368//3
f 169//1 37//1 133//1 278//1
f 170//1 279//1 164//1 68//1
f 71//1 173//1 279//1 170//1
f 173//1 67//1 123//1 279//1
f 174//1 280//1 100//1 44//1
f 84//5 225//5 365//5 366//5
f 40//6 183//6 332//6 347//6
f 178//1 281//1 161//1 65//1
f 73//1 181//1 281//1 178//1
f 181//1 50//1 106//1 281//1
f 182//1 282//1 160//1 64//1
f 74//1 185//1 282//1 182//1
f 185//1 63//1 119//1 282//1
f 186//1 283//1 104//1 48//1
f 62//5 224//5 363//5 364//5
f 74//6 182//6 330//6 333//6
f 190//1 284//1 157//1 61//1
f 76//1 193//1 284//1 190//1
f 193//1 51//1 107//1 284//1
f 194//1 285//1 156//1 60//1
f 79//6 202//6 303//6 302//6
f 197//1 59//1 115//1 285//1
f 198//1 286//1 136//1 40//1
f 78//1 201//1 286//1 198//1
f 201//1 58//1 114//1 286//1
f 256//3 196//3 382//3 398//3
f 116//3 256//3 398//3 374//3
f 205//1 33//1 129//1 287//1
f 206//1 288//1 152//1 56//1
f 80//1 209//1 288//1 206//1
f 209//1 55//1 111//1 288//1
f 210//1 289//1 137//1 41//1
f 81//1 213//1 289//1 210//1
f 213//1 54//1 110//1 289//1
f 165//6 230//6 386//6 320//6
f 255//5 195//5 343//5 397//5
f 217//1 45//1 141//1 290//1
f 218//1 291//1 148//1 52//1
f 83//1 221//1 291//1 218//1
f 221//1 39//1 95//1 291//1
f 222//1 292//1 92//1 36//1
f 230//6 229//6 371//6 386//6
f 70//3 167//3 323//3 324//3
f 226//1 293//1 88//1 32//1
f 177//5 66//5 370//5 328//5
f 229//1 49//1 145//1 293//1
f 306//1 299//1 300//1 305//1
f 304//1 302//1 303//1 307//1
f 294//1 308//1 296//1 295//1
f 298//1 297//1 309//1 301//1
f 204//5 79//5 302//5 304//5
f 228//3 231//3 306//3 305//3
f 85//4 228//4 305//4 300//4
f 75//3 187//3 294//3 295//3
f 197//6 285//6 309//6 297//6
f 250//3 204//3 304//3 307//3
f 231//5 227//5 299//5 306//5
f 285//4 194//4 301//4 309//4
f 189//4 75//4 295//4 296//4
f 77//5 197//5 297//5 298//5
f 227//6 85//6 300//6 299//6
f 194//3 77//3 298//3 301//3
f 404//1 330//1 331//1 376//1
f 403//1 332//1 333//1 379//1
f 401//1 334//1 335//1 381//1
f 400//1 337//1 338//1 339//1
f 399//1 310//1 311//1 340//1
f 398//1 341//1 342//1 374//1
f 397//1 343//1 344//1 382//1
f 396//1 318//1 319//1 345//1
f 395//1 346//1 347//1 373//1
f 394//1 348//1 349//1 383//1
f 393//1 351//1 352//1 353//1
f 391//1 355//1 356//1 357//1
f 390//1 314//1 315//1 358//1
f 367//1 386//1 371//1 368//1
f 321//1 320//1 386//1 367//1
f 370//1 369//1 387//1 377//1
f 369//1 368//1 385//1 387//1
f 364//1 363//1 388//1 375//1
f 363//1 366//1 384//1 388//1
f 360//1 389//1 362//1 361//1
f 317//1 316//1 389//1 360//1
f 355//1 390//1 358//1 356//1
f 310//1 391//1 357//1 311//1
f 351//1 392//1 354//1 352//1
f 314//1 393//1 353//1 315//1
f 374//1 342//1 348//1 394//1
f 383//1 349//1 346//1 395//1
f 343//1 396//1 345//1 344//1
f 382//1 344//1 341//1 398//1
f 337//1 399//1 340//1 338//1
f 318//1 400//1 339//1 319//1
f 376//1 331//1 334//1 401//1
f 381//1 335//1 380//1 402//1
f 373//1 347//1 332//1 403//1
f 379//1 333//1 330//1 404//1
f 327//1 326//1 405//1 372//1
f 326//1 329//1 378//1 405//1
f 323//1 406//1 325//1 324//1
f 313//1 312//1 406//1 323//1
f 322//1 407//1 320//1 321//1
f 324//1 325//1 407//1 322//1
f 329//1 328//1 408//1 378//1
f 328//1 370//1 377//1 408//1
f 335//1 336//1 409//1 380//1
f 336//1 364//1 375//1 409//1
f 350//1 410//1 316//1 317//1
f 352//1 354//1 410//1 350//1
f 359//1 411//1 312//1 313//1
f 361//1 362//1 411//1 359//1
f 366//1 365//1 412//1 384//1
f 365//1 327//1 372//1 412//1
f 368//1 371//1 413//1 385//1
f 79//4 204//4 353//4 352//4
f 194//6 60//6 342//6 341//6
f 275//6 169//6 325//6 406//6
f 262//3 188//3 381//3 402//3
f 151//5 249//5 393//5 314//5
f 149//6 275//6 406//6 312//6
f 249//5 203//5 351//5 393//5
f 186//4 262//4 402//4 380//4
f 197//4 77//4 344//4 345//4
f 80//4 208//4 357//4 356//4
f 198//6 40//6 347//6 346//6
f 55//4 209//4 358//4 315//4
f 199//6 78//6 349//6 348//6
f 184//3 264//3 403//3 379//3
f 57//3 202//3 350//3 317//3
f 264//3 96//3 373//3 403//3
f 290//6 149//6 312//6 411//6
f 217//6 290//6 411//6 362//6
f 214//3 82//3 361//3 359//3
f 204//4 55//4 315//4 353//4
f 239//6 217//6 362//6 389//6
f 215//3 57//3 317//3 360//3
f 200//3 252//3 394//3 383//3
f 153//6 239//6 389//6 316//6
f 120//3 265//3 404//3 376//3
f 252//3 116//3 374//3 394//3
f 278//6 165//6 320//6 407//6
f 265//3 184//3 379//3 404//3
f 169//6 278//6 407//6 325//6
f 166//3 70//3 324//3 322//3
f 208//4 51//4 311//4 357//4
f 167//3 53//3 313//3 323//3
f 209//4 80//4 356//4 358//4
f 96//3 253//3 395//3 373//3
f 253//3 200//3 383//3 395//3
f 292//4 222//4 384//4 412//4
f 94//4 292//4 412//4 372//4
f 224//5 84//5 366//5 363//5
f 53//3 214//3 359//3 313//3
f 225//5 38//5 327//5 365//5
f 82//3 215//3 360//3 361//3
f 195//5 254//5 396//5 343//5
f 229//6 293//6 413//6 371//6
f 254//5 155//5 318//5 396//5
f 280//4 174//4 378//4 408//4
f 293//4 226//4 385//4 413//4
f 227//3 69//3 321//3 367//3
f 196//3 255//3 397//3 382//3
f 176//5 72//5 329//5 326//5
f 122//4 280//4 408//4 377//4
f 69//3 166//3 322//3 321//3
f 228//5 85//5 368//5 369//5
