# Blender v2.79 (sub 0) OBJ File: 'finestra bagno.blend'
# www.blender.org
mtllib finestra bagno.mtl
o Cube_Cube.001
v -0.369651 -0.442650 -0.158072
v -0.369651 -0.492650 -0.158072
v -0.419651 -0.492650 -0.158072
v -0.419651 -0.442650 -0.158072
v -0.369651 -0.492650 -0.158072
v -0.419651 -0.492650 -0.158072
v -0.369651 -0.492650 -0.208072
v -0.419651 -0.492650 -0.208072
v -0.369651 -0.492650 1.241927
v -0.419651 -0.492650 1.241927
v -0.369651 -0.492650 1.291927
v -0.419651 -0.492650 1.291927
v -0.419651 -0.442650 1.291927
v -0.369651 -0.092650 -0.158072
v -0.419651 -0.092650 -0.158072
v -0.369651 -0.092650 -0.208072
v -0.419651 -0.092650 -0.208072
v -0.369651 -0.442650 1.291927
v -0.419651 -0.442650 1.241927
v -0.369651 -0.442650 1.241927
v -0.419651 -0.442650 -0.208072
v -0.369651 -0.442650 -0.208072
v -0.369651 -0.092650 1.241927
v -0.419651 -0.092650 1.241927
v -0.369651 -0.092650 1.291927
v -0.419651 -0.092650 1.291927
v -0.419651 -0.442650 -0.158072
v -0.369651 -0.442650 -0.158072
v -0.369651 0.307350 1.241927
v -0.419651 0.307350 1.241927
v -0.369651 0.257350 -0.158072
v -0.369651 0.307350 -0.158072
v -0.369651 0.257350 -0.208072
v -0.319651 0.307350 -0.208072
v -0.369651 0.307350 -0.208072
v -0.319651 0.257350 -0.208072
v -0.369651 0.257350 -0.158072
v -0.419651 0.257350 -0.158072
v -0.369651 0.257350 -0.208072
v -0.419651 0.257350 -0.208072
v -0.399651 -0.442650 1.241927
v -0.399651 -0.442650 -0.158072
v -0.319651 0.307350 -0.158072
v -0.319651 0.257350 -0.158072
v -0.389651 -0.442650 1.241927
v -0.389651 -0.442650 -0.158072
v 0.580349 0.307350 -0.208072
v 0.580349 0.307350 -0.158072
v 0.580349 0.257350 -0.158072
v 0.580349 0.257350 -0.208072
v 0.630349 0.307350 -0.208072
v 0.630349 0.307350 -0.158072
v 0.630349 0.257350 -0.158072
v 0.630349 0.257350 -0.208072
v 0.580349 1.007350 -0.208072
v 0.580349 1.007350 -0.158072
v 0.630349 1.007350 -0.208072
v 0.630349 1.007350 -0.158072
v 0.580349 1.057350 -0.208072
v 0.580349 1.057350 -0.158072
v 0.630349 1.057350 -0.208072
v 0.630349 1.057350 -0.158072
v -0.319651 1.007350 -0.208072
v -0.319651 1.007350 -0.158072
v -0.319651 1.057350 -0.208072
v -0.319651 1.057350 -0.158072
v -0.369650 1.007350 -0.208072
v -0.369650 1.007350 -0.158072
v -0.369650 1.057350 -0.208072
v -0.369650 1.057350 -0.158072
v -0.319651 0.307350 -0.208072
v -0.319651 0.307350 -0.158072
v -0.369650 0.307350 -0.208072
v -0.369650 0.307350 -0.158072
vt 0.000000 0.000000
vt 0.000000 0.000000
vt 0.000000 0.000000
vt 0.000000 0.000000
vt 0.000000 0.000000
vt 0.000000 0.000000
vt 0.000000 0.000000
vt 0.000000 0.000000
vt 0.000000 0.000000
vt 0.000000 0.000000
vt 0.000000 0.000000
vt 0.000000 0.000000
vt 0.000000 0.000000
vt 0.000000 0.000000
vt 0.000000 0.000000
vt 0.000000 0.000000
vt 0.000000 0.000000
vt 0.000000 0.000000
vt 0.000000 0.000000
vt 0.000000 0.000000
vt 0.000000 0.000000
vt 0.000000 0.000000
vt 0.000000 0.000000
vt 0.000000 0.000000
vt 0.000000 0.000000
vt 0.000000 0.000000
vt 0.000000 0.000000
vt 0.000000 0.000000
vt 0.000000 0.000000
vt 0.000000 0.000000
vt 0.000000 0.000000
vt 0.000000 0.000000
vt 0.000000 0.000000
vt 0.000000 0.000000
vt 0.000000 0.000000
vt 0.000000 0.000000
vn -1.0000 0.0000 0.0000
vn 0.0000 0.0000 1.0000
vn 0.0000 0.0000 -1.0000
vn 0.0000 -1.0000 0.0000
vn 0.0000 1.0000 0.0000
vn 1.0000 0.0000 0.0000
usemtl Material.001
s off
f 32/1/1 35/2/1 33/3/1 31/4/1
f 32/1/2 31/4/2 44/5/2 43/6/2
f 33/3/3 35/2/3 34/7/3 36/8/3
f 31/4/4 33/3/4 36/8/4 44/5/4
f 36/8/3 34/7/3 47/9/3 50/10/3
f 35/2/5 32/1/5 43/6/5 34/7/5
f 47/9/1 48/11/1 56/12/1 55/13/1
f 34/7/5 43/6/5 48/11/5 47/9/5
f 43/6/2 44/5/2 49/14/2 48/11/2
f 44/5/4 36/8/4 50/10/4 49/14/4
f 52/15/6 53/16/6 54/17/6 51/18/6
f 48/11/2 49/14/2 53/16/2 52/15/2
f 49/14/4 50/10/4 54/17/4 53/16/4
f 50/10/3 47/9/3 51/18/3 54/17/3
f 56/12/2 58/19/2 62/20/2 60/21/2
f 48/11/2 52/15/2 58/19/2 56/12/2
f 52/15/6 51/18/6 57/22/6 58/19/6
f 51/18/3 47/9/3 55/13/3 57/22/3
f 59/23/5 60/21/5 62/20/5 61/24/5
f 56/12/2 60/21/2 66/25/2 64/26/2
f 57/22/3 55/13/3 59/23/3 61/24/3
f 58/19/6 57/22/6 61/24/6 62/20/6
f 66/25/5 65/27/5 69/28/5 70/29/5
f 55/13/4 56/12/4 64/26/4 63/30/4
f 59/23/3 55/13/3 63/30/3 65/27/3
f 60/21/5 59/23/5 65/27/5 66/25/5
f 67/31/1 68/32/1 70/29/1 69/28/1
f 64/26/2 66/25/2 70/29/2 68/32/2
f 68/32/1 67/31/1 73/33/1 74/34/1
f 65/27/3 63/30/3 67/31/3 69/28/3
f 71/35/4 72/36/4 74/34/4 73/33/4
f 67/31/3 63/30/3 71/35/3 73/33/3
f 63/30/6 64/26/6 72/36/6 71/35/6
f 64/26/2 68/32/2 74/34/2 72/36/2
