  0
SECTION
  2
HEADER
  9
$ACADVER
  1
AC1009
  9
$INSBASE
 10
0.0
 20
0.0
 30
0.0
  9
$EXTMIN
 10
0.0
 20
0.0
 30
0.0
  9
$EXTMAX
 10
0.0
 20
0.0
 30
0.0
  0
ENDSEC
  0
SECTION
  2
TABLES
  0
TABLE
  2
VPORT
 70
1
  0
VPORT
  2
*ACTIVE
 70
0
 10
0.0
 20
0.0
 11
1.0
 21
1.0
 12
-5.0
 22
1.0
 13
0.0
 23
0.0
 14
0.1
 24
0.1
 15
0.1
 25
0.1
 16
0.0
 26
0.0
 36
1.0
 17
0.0
 27
0.0
 37
0.0
 40
10.0
 41
1.0
 42
50.0
 43
0.0
 44
0.0
 50
0.0
 51
0.0
 71
0
 72
100
 73
1
 74
1
 75
0
 76
0
 77
0
 78
0
  0
ENDTAB
  0
TABLE
  2
LTYPE
 70
8
  0
LTYPE
  2
CONTINUOUS
 70
0
  3
Solid line
 72
65
 73
0
 40
0.0
  0
LTYPE
  2
DOT
 70
0
  3
. . . . . . .
 72
65
 73
2
 40
0.25
 49
0.0
 49
-0.25
  0
LTYPE
  2
DASHED
 70
0
  3
__ __ __ __ __
 72
65
 73
2
 40
0.8
 49
0.5
 49
-0.3
  0
LTYPE
  2
DASHDOT
 70
0
  3
__ . __ . __ .
 72
65
 73
4
 40
1.0
 49
0.5
 49
-0.25
 49
0.0
 49
-0.25
  0
LTYPE
  2
DIVIDE
 70
0
  3
____ . . ____ . . 
 72
65
 73
6
 40
1.25
 49
0.5
 49
-0.25
 49
0.0
 49
-0.25
 49
0.0
 49
-0.25
  0
LTYPE
  2
BORDER
 70
0
  3
__ __ . __ __ . 
 72
65
 73
6
 40
1.75
 49
0.5
 49
-0.25
 49
0.5
 49
-0.25
 49
0.0
 49
-0.25
  0
LTYPE
  2
HIDDEN
 70
0
  3
__ __ __ __ __
 72
65
 73
2
 40
0.4
 49
0.25
 49
-0.25
  0
LTYPE
  2
CENTER
 70
0
  3
____ _ ____ _ __
 72
65
 73
4
 40
2.0
 49
1.25
 49
-0.25
 49
0.25
 49
-0.25
  0
ENDTAB
  0
TABLE
  2
LAYER
 70
1
  0
LAYER
  2
PYDXF
 70
64
 62
7
  6
continuous
  0
ENDTAB
  0
TABLE
  2
STYLE
 70
1
  0
STYLE
  2
STANDARD
 70
0
 40
0
 41
1.0
 50
0.0
 71
0
 42
1
 3
ARIAL.TTF
 4

  0
ENDTAB
  0
TABLE
  2
VIEW
 70
1
  0
VIEW
  2
BF_TOPVIEW
 70
0
 40
120.0
 10
0.0
 20
0.0
 41
200.0
 11
0.0
 21
0.0
 31
1.0
 12
0.0
 22
0.0
 32
0.0
 42
50.0
 43
0.0
 44
0.0
 50
0.0
 71
0
  0
ENDTAB
  0
ENDSEC
  0
SECTION
  2
BLOCKS
  0
ENDSEC
  0
SECTION
  2
ENTITIES
  0
3DFACE
  8
0
 10
-0.7798098921775818
 20
1.2816499471664429
 30
0.09630072116851807
 11
-0.7798098921775818
 21
0.9630629420280457
 31
0.09630072116851807
 12
-0.7798098921775818
 22
0.9630628228187561
 32
0.23039275407791138
 13
-0.7798098921775818
 23
1.2816499471664429
 33
0.23039275407791138
  0
3DFACE
  8
0
 10
-0.7798098921775818
 20
1.2816499471664429
 30
0.09630072116851807
 11
-0.7798098921775818
 21
1.2816499471664429
 31
0.23039275407791138
 12
-0.7615946531295776
 22
1.3421452045440674
 32
0.23039275407791138
 13
-0.7615946531295776
 23
1.3421452045440674
 33
0.09630072116851807
  0
3DFACE
  8
0
 10
-0.7798098921775818
 20
1.2816499471664429
 30
0.09630072116851807
 11
-0.7615946531295776
 21
1.3421452045440674
 31
0.09630072116851807
 12
-0.747427225112915
 22
1.3264613151550293
 32
0.050184398889541626
 13
-0.7615946531295776
 23
1.2816499471664429
 33
0.03404366970062256
  0
3DFACE
  8
0
 10
-0.7798098921775818
 20
1.2816499471664429
 30
0.09630072116851807
 11
-0.7615946531295776
 21
1.2816499471664429
 31
0.03404366970062256
 12
-0.7615946531295776
 22
0.9630628228187561
 32
0.03404366970062256
 13
-0.7798098921775818
 23
0.9630629420280457
 33
0.09630072116851807
  0
3DFACE
  8
0
 10
0.688271164894104
 20
1.3623102903366089
 30
0.09630072116851807
 11
0.46805888414382935
 21
1.3623102903366089
 31
0.09630072116851807
 12
0.46805888414382935
 22
1.3623102903366089
 32
0.23039275407791138
 13
0.688271164894104
 23
1.3623102903366089
 33
0.23039275407791138
  0
3DFACE
  8
0
 10
0.688271164894104
 20
1.3623102903366089
 30
0.09630072116851807
 11
0.688271164894104
 21
1.3623102903366089
 31
0.23039275407791138
 12
0.7541719675064087
 22
1.3421452045440674
 32
0.23039275407791138
 13
0.7541719675064087
 23
1.3421452045440674
 33
0.09630072116851807
  0
3DFACE
  8
0
 10
0.688271164894104
 20
1.3623102903366089
 30
0.09630072116851807
 11
0.7541719675064087
 21
1.3421452045440674
 31
0.09630072116851807
 12
0.7370866537094116
 22
1.3264613151550293
 32
0.050184398889541626
 13
0.688271164894104
 23
1.3421452045440674
 33
0.03404366970062256
  0
3DFACE
  8
0
 10
0.688271164894104
 20
1.3623102903366089
 30
0.09630072116851807
 11
0.688271164894104
 21
1.3421452045440674
 31
0.03404366970062256
 12
0.46805888414382935
 22
1.3421452045440674
 32
0.03404366970062256
 13
0.46805888414382935
 23
1.3623102903366089
 33
0.09630072116851807
  0
3DFACE
  8
0
 10
0.7761389017105103
 20
-0.9507173299789429
 30
0.09630072116851807
 11
0.7761389017105103
 21
-0.6273961663246155
 31
0.09630072116851807
 12
0.7761389017105103
 22
-0.6273961663246155
 32
0.23039275407791138
 13
0.7761389017105103
 23
-0.9507173299789429
 33
0.23039275407791138
  0
3DFACE
  8
0
 10
0.7761389017105103
 20
-0.9507173299789429
 30
0.09630072116851807
 11
0.7761389017105103
 21
-0.9507173299789429
 31
0.23039275407791138
 12
0.7541719675064087
 22
-1.015946626663208
 32
0.23039275407791138
 13
0.7541719675064087
 23
-1.0159467458724976
 33
0.09630072116851807
  0
3DFACE
  8
0
 10
0.7761389017105103
 20
-0.9507173299789429
 30
0.09630072116851807
 11
0.7541719675064087
 21
-1.0159467458724976
 31
0.09630072116851807
 12
0.7370866537094116
 22
-0.9990354180335999
 32
0.050184398889541626
 13
0.7541719675064087
 23
-0.9507173299789429
 33
0.03404366970062256
  0
3DFACE
  8
0
 10
0.7761389017105103
 20
-0.9507173299789429
 30
0.09630072116851807
 11
0.7541719675064087
 21
-0.9507173299789429
 31
0.03404366970062256
 12
0.7541719675064087
 22
-0.6273961663246155
 32
0.03404366970062256
 13
0.7761389017105103
 23
-0.6273961663246155
 33
0.09630072116851807
  0
3DFACE
  8
0
 10
-0.7069489359855652
 20
-1.0376898050308228
 30
0.09630072116851807
 11
-0.49799180030822754
 21
-1.0376898050308228
 31
0.09630072116851807
 12
-0.49799180030822754
 22
-1.0376898050308228
 32
0.23039275407791138
 13
-0.7069489359855652
 23
-1.0376898050308228
 33
0.23039275407791138
  0
3DFACE
  8
0
 10
-0.7069489359855652
 20
-1.0376898050308228
 30
0.09630072116851807
 11
-0.7069489359855652
 21
-1.0376898050308228
 31
0.23039275407791138
 12
-0.7615946531295776
 22
-1.015946626663208
 32
0.23039275407791138
 13
-0.7615946531295776
 23
-1.0159467458724976
 33
0.09630072116851807
  0
3DFACE
  8
0
 10
-0.7069489359855652
 20
-1.0376898050308228
 30
0.09630072116851807
 11
-0.7615946531295776
 21
-1.0159467458724976
 31
0.09630072116851807
 12
-0.747427225112915
 22
-0.9990354180335999
 32
0.050184398889541626
 13
-0.7069489359855652
 23
-1.0159467458724976
 33
0.03404366970062256
  0
3DFACE
  8
0
 10
-0.7069489359855652
 20
-1.0376898050308228
 30
0.09630072116851807
 11
-0.7069489359855652
 21
-1.0159467458724976
 31
0.03404366970062256
 12
-0.49799180030822754
 22
-1.015946626663208
 32
0.03404366970062256
 13
-0.49799180030822754
 23
-1.0376898050308228
 33
0.09630072116851807
  0
3DFACE
  8
0
 10
0.688271164894104
 20
1.2816499471664429
 30
0.013291329145431519
 11
0.688271164894104
 21
0.9630629420280457
 31
0.013291329145431519
 12
0.46805888414382935
 22
0.9630628228187561
 32
0.013291329145431519
 13
0.46805888414382935
 23
1.2816499471664429
 33
0.013291329145431519
  0
3DFACE
  8
0
 10
0.688271164894104
 20
1.2816499471664429
 30
0.013291329145431519
 11
0.46805888414382935
 21
1.2816499471664429
 31
0.013291329145431519
 12
0.46805888414382935
 22
1.3421452045440674
 32
0.03404366970062256
 13
0.688271164894104
 23
1.3421452045440674
 33
0.03404366970062256
  0
3DFACE
  8
0
 10
0.688271164894104
 20
1.2816499471664429
 30
0.013291329145431519
 11
0.688271164894104
 21
1.3421452045440674
 31
0.03404366970062256
 12
0.7370866537094116
 22
1.3264613151550293
 32
0.050184398889541626
 13
0.7541719675064087
 23
1.2816499471664429
 33
0.03404366970062256
  0
3DFACE
  8
0
 10
0.688271164894104
 20
1.2816499471664429
 30
0.013291329145431519
 11
0.7541719675064087
 21
1.2816499471664429
 31
0.03404366970062256
 12
0.7541719675064087
 22
0.9630628228187561
 32
0.03404366970062256
 13
0.688271164894104
 23
0.9630629420280457
 33
0.013291329145431519
  0
3DFACE
  8
0
 10
-0.7069489359855652
 20
1.2816499471664429
 30
0.9150116443634033
 11
-0.7069489359855652
 21
0.9630629420280457
 31
0.9150116443634033
 12
-0.49799180030822754
 22
0.9630628228187561
 32
0.9150116443634033
 13
-0.49799180030822754
 23
1.2816499471664429
 33
0.9150116443634033
  0
3DFACE
  8
0
 10
-0.7069489359855652
 20
1.2816499471664429
 30
0.9150116443634033
 11
-0.49799180030822754
 21
1.2816499471664429
 31
0.9150116443634033
 12
-0.49799180030822754
 22
1.3421452045440674
 32
0.8948839902877808
 13
-0.7069489359855652
 23
1.3421452045440674
 33
0.8948839902877808
  0
3DFACE
  8
0
 10
-0.7069489359855652
 20
1.2816499471664429
 30
0.9150116443634033
 11
-0.7069489359855652
 21
1.3421452045440674
 31
0.8948839902877808
 12
-0.747427225112915
 22
1.3264613151550293
 32
0.8792291283607483
 13
-0.7615946531295776
 23
1.2816499471664429
 33
0.8948839902877808
  0
3DFACE
  8
0
 10
-0.7069489359855652
 20
1.2816499471664429
 30
0.9150116443634033
 11
-0.7615946531295776
 21
1.2816499471664429
 31
0.8948839902877808
 12
-0.7615946531295776
 22
0.9630628228187561
 32
0.8948839902877808
 13
-0.7069489359855652
 23
0.9630629420280457
 33
0.9150116443634033
  0
3DFACE
  8
0
 10
-0.7798098921775818
 20
-0.9507173299789429
 30
0.09630072116851807
 11
-0.7615946531295776
 21
-1.0159467458724976
 31
0.09630072116851807
 12
-0.7615946531295776
 22
-1.015946626663208
 32
0.23039275407791138
 13
-0.7798098921775818
 23
-0.9507173299789429
 33
0.23039275407791138
  0
3DFACE
  8
0
 10
-0.7798098921775818
 20
-0.9507173299789429
 30
0.09630072116851807
 11
-0.7798098921775818
 21
-0.9507173299789429
 31
0.23039275407791138
 12
-0.7798098921775818
 22
-0.6273961663246155
 32
0.23039275407791138
 13
-0.7798098921775818
 23
-0.6273961663246155
 33
0.09630072116851807
  0
3DFACE
  8
0
 10
-0.7798098921775818
 20
-0.9507173299789429
 30
0.09630072116851807
 11
-0.7798098921775818
 21
-0.6273961663246155
 31
0.09630072116851807
 12
-0.7615946531295776
 22
-0.6273961663246155
 32
0.03404366970062256
 13
-0.7615946531295776
 23
-0.9507173299789429
 33
0.03404366970062256
  0
3DFACE
  8
0
 10
-0.7798098921775818
 20
-0.9507173299789429
 30
0.09630072116851807
 11
-0.7615946531295776
 21
-0.9507173299789429
 31
0.03404366970062256
 12
-0.747427225112915
 22
-0.9990354180335999
 32
0.050184398889541626
 13
-0.7615946531295776
 23
-1.0159467458724976
 33
0.09630072116851807
  0
3DFACE
  8
0
 10
0.7761389017105103
 20
0.16862235963344574
 30
0.09630072116851807
 11
0.7761389017105103
 21
0.9630628228187561
 31
0.09630072116851807
 12
0.7761389017105103
 22
0.9630628228187561
 32
0.23039275407791138
 13
0.7761389017105103
 23
0.16862235963344574
 33
0.23039275407791138
  0
3DFACE
  8
0
 10
0.7761389017105103
 20
0.16862235963344574
 30
0.09630072116851807
 11
0.7761389017105103
 21
0.16862235963344574
 31
0.23039275407791138
 12
0.7761389017105103
 22
-0.6273961663246155
 32
0.23039275407791138
 13
0.7761389017105103
 23
-0.6273961663246155
 33
0.09630072116851807
  0
3DFACE
  8
0
 10
0.7761389017105103
 20
0.16862235963344574
 30
0.09630072116851807
 11
0.7761389017105103
 21
-0.6273961663246155
 31
0.09630072116851807
 12
0.7541719675064087
 22
-0.6273961663246155
 32
0.03404366970062256
 13
0.7541719675064087
 23
0.16862235963344574
 33
0.03404366970062256
  0
3DFACE
  8
0
 10
0.7761389017105103
 20
0.16862235963344574
 30
0.09630072116851807
 11
0.7541719675064087
 21
0.16862235963344574
 31
0.03404366970062256
 12
0.7541719675064087
 22
0.9630628228187561
 32
0.03404366970062256
 13
0.7761389017105103
 23
0.9630628228187561
 33
0.09630072116851807
  0
3DFACE
  8
0
 10
0.688271164894104
 20
-0.9507173299789429
 30
0.013291329145431519
 11
0.688271164894104
 21
-1.0159467458724976
 31
0.03404366970062256
 12
0.46805888414382935
 22
-1.015946626663208
 32
0.03404366970062256
 13
0.46805888414382935
 23
-0.9507173299789429
 33
0.013291329145431519
  0
3DFACE
  8
0
 10
0.688271164894104
 20
-0.9507173299789429
 30
0.013291329145431519
 11
0.46805888414382935
 21
-0.9507173299789429
 31
0.013291329145431519
 12
0.46805888414382935
 22
-0.6273961663246155
 32
0.013291329145431519
 13
0.688271164894104
 23
-0.6273961663246155
 33
0.013291329145431519
  0
3DFACE
  8
0
 10
0.688271164894104
 20
-0.9507173299789429
 30
0.013291329145431519
 11
0.688271164894104
 21
-0.6273961663246155
 31
0.013291329145431519
 12
0.7541719675064087
 22
-0.6273961663246155
 32
0.03404366970062256
 13
0.7541719675064087
 23
-0.9507173299789429
 33
0.03404366970062256
  0
3DFACE
  8
0
 10
0.688271164894104
 20
-0.9507173299789429
 30
0.013291329145431519
 11
0.7541719675064087
 21
-0.9507173299789429
 31
0.03404366970062256
 12
0.7370866537094116
 22
-0.9990354180335999
 32
0.050184398889541626
 13
0.688271164894104
 23
-1.0159467458724976
 33
0.03404366970062256
  0
3DFACE
  8
0
 10
-0.7069489359855652
 20
-0.9507173299789429
 30
0.9150116443634033
 11
-0.7069489359855652
 21
-1.0159467458724976
 31
0.8948839902877808
 12
-0.49799180030822754
 22
-1.015946626663208
 32
0.8948839902877808
 13
-0.49799180030822754
 23
-0.9507173299789429
 33
0.9150116443634033
  0
3DFACE
  8
0
 10
-0.7069489359855652
 20
-0.9507173299789429
 30
0.9150116443634033
 11
-0.49799180030822754
 21
-0.9507173299789429
 31
0.9150116443634033
 12
-0.49799180030822754
 22
-0.6273961663246155
 32
0.9150116443634033
 13
-0.7069489359855652
 23
-0.6273961663246155
 33
0.9150116443634033
  0
3DFACE
  8
0
 10
-0.7069489359855652
 20
-0.9507173299789429
 30
0.9150116443634033
 11
-0.7069489359855652
 21
-0.6273961663246155
 31
0.9150116443634033
 12
-0.7615946531295776
 22
-0.6273961663246155
 32
0.8948839902877808
 13
-0.7615946531295776
 23
-0.9507173299789429
 33
0.8948839902877808
  0
3DFACE
  8
0
 10
-0.7069489359855652
 20
-0.9507173299789429
 30
0.9150116443634033
 11
-0.7615946531295776
 21
-0.9507173299789429
 31
0.8948839902877808
 12
-0.747427225112915
 22
-0.9990354180335999
 32
0.8792291283607483
 13
-0.7069489359855652
 23
-1.0159467458724976
 33
0.8948839902877808
  0
3DFACE
  8
0
 10
-0.016842305660247803
 20
1.3623102903366089
 30
0.09630072116851807
 11
-0.49799180030822754
 21
1.3623102903366089
 31
0.09630072116851807
 12
-0.49799180030822754
 22
1.3623102903366089
 32
0.23039275407791138
 13
-0.016842305660247803
 23
1.3623102903366089
 33
0.23039275407791138
  0
3DFACE
  8
0
 10
-0.016842305660247803
 20
1.3623102903366089
 30
0.09630072116851807
 11
-0.016842305660247803
 21
1.3623102903366089
 31
0.23039275407791138
 12
0.46805888414382935
 22
1.3623102903366089
 32
0.23039275407791138
 13
0.46805888414382935
 23
1.3623102903366089
 33
0.09630072116851807
  0
3DFACE
  8
0
 10
-0.016842305660247803
 20
1.3623102903366089
 30
0.09630072116851807
 11
0.46805888414382935
 21
1.3623102903366089
 31
0.09630072116851807
 12
0.46805888414382935
 22
1.3421452045440674
 32
0.03404366970062256
 13
-0.016842305660247803
 23
1.3421452045440674
 33
0.03404366970062256
  0
3DFACE
  8
0
 10
-0.016842305660247803
 20
1.3623102903366089
 30
0.09630072116851807
 11
-0.016842305660247803
 21
1.3421452045440674
 31
0.03404366970062256
 12
-0.49799180030822754
 22
1.3421452045440674
 32
0.03404366970062256
 13
-0.49799180030822754
 23
1.3623102903366089
 33
0.09630072116851807
  0
3DFACE
  8
0
 10
0.688271164894104
 20
-1.0376898050308228
 30
0.09630072116851807
 11
0.7541719675064087
 21
-1.0159467458724976
 31
0.09630072116851807
 12
0.7541719675064087
 22
-1.015946626663208
 32
0.23039275407791138
 13
0.688271164894104
 23
-1.0376898050308228
 33
0.23039275407791138
  0
3DFACE
  8
0
 10
0.688271164894104
 20
-1.0376898050308228
 30
0.09630072116851807
 11
0.688271164894104
 21
-1.0376898050308228
 31
0.23039275407791138
 12
0.46805888414382935
 22
-1.0376898050308228
 32
0.23039275407791138
 13
0.46805888414382935
 23
-1.0376898050308228
 33
0.09630072116851807
  0
3DFACE
  8
0
 10
0.688271164894104
 20
-1.0376898050308228
 30
0.09630072116851807
 11
0.46805888414382935
 21
-1.0376898050308228
 31
0.09630072116851807
 12
0.46805888414382935
 22
-1.015946626663208
 32
0.03404366970062256
 13
0.688271164894104
 23
-1.0159467458724976
 33
0.03404366970062256
  0
3DFACE
  8
0
 10
0.688271164894104
 20
-1.0376898050308228
 30
0.09630072116851807
 11
0.688271164894104
 21
-1.0159467458724976
 31
0.03404366970062256
 12
0.7370866537094116
 22
-0.9990354180335999
 32
0.050184398889541626
 13
0.7541719675064087
 23
-1.0159467458724976
 33
0.09630072116851807
  0
3DFACE
  8
0
 10
-0.016842305660247803
 20
1.2816499471664429
 30
0.013291329145431519
 11
-0.016842305660247803
 21
0.9630629420280457
 31
0.013291329145431519
 12
-0.49799180030822754
 22
0.9630628228187561
 32
0.013291329145431519
 13
-0.49799180030822754
 23
1.2816499471664429
 33
0.013291329145431519
  0
3DFACE
  8
0
 10
-0.016842305660247803
 20
1.2816499471664429
 30
0.013291329145431519
 11
-0.49799180030822754
 21
1.2816499471664429
 31
0.013291329145431519
 12
-0.49799180030822754
 22
1.3421452045440674
 32
0.03404366970062256
 13
-0.016842305660247803
 23
1.3421452045440674
 33
0.03404366970062256
  0
3DFACE
  8
0
 10
-0.016842305660247803
 20
1.2816499471664429
 30
0.013291329145431519
 11
-0.016842305660247803
 21
1.3421452045440674
 31
0.03404366970062256
 12
0.46805888414382935
 22
1.3421452045440674
 32
0.03404366970062256
 13
0.46805888414382935
 23
1.2816499471664429
 33
0.013291329145431519
  0
3DFACE
  8
0
 10
-0.016842305660247803
 20
1.2816499471664429
 30
0.013291329145431519
 11
0.46805888414382935
 21
1.2816499471664429
 31
0.013291329145431519
 12
0.46805888414382935
 22
0.9630628228187561
 32
0.013291329145431519
 13
-0.016842305660247803
 23
0.9630629420280457
 33
0.013291329145431519
  0
3DFACE
  8
0
 10
0.6882711052894592
 20
1.2816499471664429
 30
0.9150116443634033
 11
0.6882711052894592
 21
0.9630629420280457
 31
0.9150116443634033
 12
0.7541719675064087
 22
0.9630628228187561
 32
0.8948839902877808
 13
0.7541719675064087
 23
1.2816499471664429
 33
0.8948839902877808
  0
3DFACE
  8
0
 10
0.6882711052894592
 20
1.2816499471664429
 30
0.9150116443634033
 11
0.7541719675064087
 21
1.2816499471664429
 31
0.8948839902877808
 12
0.7370866537094116
 22
1.3264613151550293
 32
0.8792291283607483
 13
0.688271164894104
 23
1.3421452045440674
 33
0.8948839902877808
  0
3DFACE
  8
0
 10
0.6882711052894592
 20
1.2816499471664429
 30
0.9150116443634033
 11
0.688271164894104
 21
1.3421452045440674
 31
0.8948839902877808
 12
0.46805891394615173
 22
1.3421452045440674
 32
0.8948839902877808
 13
0.46805888414382935
 23
1.2816499471664429
 33
0.9150116443634033
  0
3DFACE
  8
0
 10
0.6882711052894592
 20
1.2816499471664429
 30
0.9150116443634033
 11
0.46805888414382935
 21
1.2816499471664429
 31
0.9150116443634033
 12
0.46805888414382935
 22
0.9630628228187561
 32
0.9150116443634033
 13
0.6882711052894592
 23
0.9630629420280457
 33
0.9150116443634033
  0
3DFACE
  8
0
 10
-0.016842305660247803
 20
-0.9507173299789429
 30
0.013291329145431519
 11
-0.016842305660247803
 21
-1.0159467458724976
 31
0.03404366970062256
 12
-0.49799180030822754
 22
-1.015946626663208
 32
0.03404366970062256
 13
-0.49799180030822754
 23
-0.9507173299789429
 33
0.013291329145431519
  0
3DFACE
  8
0
 10
-0.016842305660247803
 20
-0.9507173299789429
 30
0.013291329145431519
 11
-0.49799180030822754
 21
-0.9507173299789429
 31
0.013291329145431519
 12
-0.49799180030822754
 22
-0.6273961663246155
 32
0.013291329145431519
 13
-0.016842305660247803
 23
-0.6273961663246155
 33
0.013291329145431519
  0
3DFACE
  8
0
 10
-0.016842305660247803
 20
-0.9507173299789429
 30
0.013291329145431519
 11
-0.016842305660247803
 21
-0.6273961663246155
 31
0.013291329145431519
 12
0.46805888414382935
 22
-0.6273961663246155
 32
0.013291329145431519
 13
0.46805888414382935
 23
-0.9507173299789429
 33
0.013291329145431519
  0
3DFACE
  8
0
 10
-0.016842305660247803
 20
-0.9507173299789429
 30
0.013291329145431519
 11
0.46805888414382935
 21
-0.9507173299789429
 31
0.013291329145431519
 12
0.46805888414382935
 22
-1.015946626663208
 32
0.03404366970062256
 13
-0.016842305660247803
 23
-1.0159467458724976
 33
0.03404366970062256
  0
3DFACE
  8
0
 10
0.6882711052894592
 20
-0.9507173299789429
 30
0.9150116443634033
 11
0.688271164894104
 21
-1.0159467458724976
 31
0.8948839902877808
 12
0.7370866537094116
 22
-0.9990354180335999
 32
0.8792291283607483
 13
0.7541719675064087
 23
-0.9507173299789429
 33
0.8948839902877808
  0
3DFACE
  8
0
 10
0.6882711052894592
 20
-0.9507173299789429
 30
0.9150116443634033
 11
0.7541719675064087
 21
-0.9507173299789429
 31
0.8948839902877808
 12
0.7541719675064087
 22
-0.6273961663246155
 32
0.8948839902877808
 13
0.6882711052894592
 23
-0.6273961663246155
 33
0.9150116443634033
  0
3DFACE
  8
0
 10
0.6882711052894592
 20
-0.9507173299789429
 30
0.9150116443634033
 11
0.6882711052894592
 21
-0.6273961663246155
 31
0.9150116443634033
 12
0.46805888414382935
 22
-0.6273961663246155
 32
0.9150116443634033
 13
0.46805888414382935
 23
-0.9507173299789429
 33
0.9150116443634033
  0
3DFACE
  8
0
 10
0.6882711052894592
 20
-0.9507173299789429
 30
0.9150116443634033
 11
0.46805888414382935
 21
-0.9507173299789429
 31
0.9150116443634033
 12
0.46805891394615173
 22
-1.015946626663208
 32
0.8948839902877808
 13
0.688271164894104
 23
-1.0159467458724976
 33
0.8948839902877808
  0
3DFACE
  8
0
 10
-0.7798098921775818
 20
0.16862235963344574
 30
0.09630072116851807
 11
-0.7798098921775818
 21
-0.6273961663246155
 31
0.09630072116851807
 12
-0.7798098921775818
 22
-0.6273961663246155
 32
0.23039275407791138
 13
-0.7798098921775818
 23
0.16862235963344574
 33
0.23039275407791138
  0
3DFACE
  8
0
 10
-0.7798098921775818
 20
0.16862235963344574
 30
0.09630072116851807
 11
-0.7798098921775818
 21
0.16862235963344574
 31
0.23039275407791138
 12
-0.7798098921775818
 22
0.9630628228187561
 32
0.23039275407791138
 13
-0.7798098921775818
 23
0.9630629420280457
 33
0.09630072116851807
  0
3DFACE
  8
0
 10
-0.7798098921775818
 20
0.16862235963344574
 30
0.09630072116851807
 11
-0.7798098921775818
 21
0.9630629420280457
 31
0.09630072116851807
 12
-0.7615946531295776
 22
0.9630628228187561
 32
0.03404366970062256
 13
-0.7615946531295776
 23
0.16862235963344574
 33
0.03404366970062256
  0
3DFACE
  8
0
 10
-0.7798098921775818
 20
0.16862235963344574
 30
0.09630072116851807
 11
-0.7615946531295776
 21
0.16862235963344574
 31
0.03404366970062256
 12
-0.7615946531295776
 22
-0.6273961663246155
 32
0.03404366970062256
 13
-0.7798098921775818
 23
-0.6273961663246155
 33
0.09630072116851807
  0
3DFACE
  8
0
 10
0.688271164894104
 20
0.16862235963344574
 30
0.013291329145431519
 11
0.688271164894104
 21
-0.6273961663246155
 31
0.013291329145431519
 12
0.46805888414382935
 22
-0.6273961663246155
 32
0.013291329145431519
 13
0.46805888414382935
 23
0.16862235963344574
 33
0.013291329145431519
  0
3DFACE
  8
0
 10
0.688271164894104
 20
0.16862235963344574
 30
0.013291329145431519
 11
0.46805888414382935
 21
0.16862235963344574
 31
0.013291329145431519
 12
0.46805888414382935
 22
0.9630628228187561
 32
0.013291329145431519
 13
0.688271164894104
 23
0.9630629420280457
 33
0.013291329145431519
  0
3DFACE
  8
0
 10
0.688271164894104
 20
0.16862235963344574
 30
0.013291329145431519
 11
0.688271164894104
 21
0.9630629420280457
 31
0.013291329145431519
 12
0.7541719675064087
 22
0.9630628228187561
 32
0.03404366970062256
 13
0.7541719675064087
 23
0.16862235963344574
 33
0.03404366970062256
  0
3DFACE
  8
0
 10
0.688271164894104
 20
0.16862235963344574
 30
0.013291329145431519
 11
0.7541719675064087
 21
0.16862235963344574
 31
0.03404366970062256
 12
0.7541719675064087
 22
-0.6273961663246155
 32
0.03404366970062256
 13
0.688271164894104
 23
-0.6273961663246155
 33
0.013291329145431519
  0
3DFACE
  8
0
 10
-0.7069489359855652
 20
0.16862235963344574
 30
0.9150116443634033
 11
-0.7069489359855652
 21
-0.6273961663246155
 31
0.9150116443634033
 12
-0.49799180030822754
 22
-0.6273961663246155
 32
0.9150116443634033
 13
-0.49799180030822754
 23
0.16862235963344574
 33
0.9150116443634033
  0
3DFACE
  8
0
 10
-0.7069489359855652
 20
0.16862235963344574
 30
0.9150116443634033
 11
-0.49799180030822754
 21
0.16862235963344574
 31
0.9150116443634033
 12
-0.49799180030822754
 22
0.9630628228187561
 32
0.9150116443634033
 13
-0.7069489359855652
 23
0.9630629420280457
 33
0.9150116443634033
  0
3DFACE
  8
0
 10
-0.7069489359855652
 20
0.16862235963344574
 30
0.9150116443634033
 11
-0.7069489359855652
 21
0.9630629420280457
 31
0.9150116443634033
 12
-0.7615946531295776
 22
0.9630628228187561
 32
0.8948839902877808
 13
-0.7615946531295776
 23
0.16862235963344574
 33
0.8948839902877808
  0
3DFACE
  8
0
 10
-0.7069489359855652
 20
0.16862235963344574
 30
0.9150116443634033
 11
-0.7615946531295776
 21
0.16862235963344574
 31
0.8948839902877808
 12
-0.7615946531295776
 22
-0.6273961663246155
 32
0.8948839902877808
 13
-0.7069489359855652
 23
-0.6273961663246155
 33
0.9150116443634033
  0
3DFACE
  8
0
 10
0.7761389017105103
 20
1.2816499471664429
 30
0.09630072116851807
 11
0.7541719675064087
 21
1.3421452045440674
 31
0.09630072116851807
 12
0.7541719675064087
 22
1.3421452045440674
 32
0.23039275407791138
 13
0.7761389017105103
 23
1.2816499471664429
 33
0.23039275407791138
  0
3DFACE
  8
0
 10
0.7761389017105103
 20
1.2816499471664429
 30
0.09630072116851807
 11
0.7761389017105103
 21
1.2816499471664429
 31
0.23039275407791138
 12
0.7761389017105103
 22
0.9630628228187561
 32
0.23039275407791138
 13
0.7761389017105103
 23
0.9630628228187561
 33
0.09630072116851807
  0
3DFACE
  8
0
 10
0.7761389017105103
 20
1.2816499471664429
 30
0.09630072116851807
 11
0.7761389017105103
 21
0.9630628228187561
 31
0.09630072116851807
 12
0.7541719675064087
 22
0.9630628228187561
 32
0.03404366970062256
 13
0.7541719675064087
 23
1.2816499471664429
 33
0.03404366970062256
  0
3DFACE
  8
0
 10
0.7761389017105103
 20
1.2816499471664429
 30
0.09630072116851807
 11
0.7541719675064087
 21
1.2816499471664429
 31
0.03404366970062256
 12
0.7370866537094116
 22
1.3264613151550293
 32
0.050184398889541626
 13
0.7541719675064087
 23
1.3421452045440674
 33
0.09630072116851807
  0
3DFACE
  8
0
 10
-0.016842305660247803
 20
0.16862235963344574
 30
0.013291329145431519
 11
-0.016842305660247803
 21
-0.6273961663246155
 31
0.013291329145431519
 12
-0.49799180030822754
 22
-0.6273961663246155
 32
0.013291329145431519
 13
-0.49799180030822754
 23
0.16862235963344574
 33
0.013291329145431519
  0
3DFACE
  8
0
 10
-0.016842305660247803
 20
0.16862235963344574
 30
0.013291329145431519
 11
-0.49799180030822754
 21
0.16862235963344574
 31
0.013291329145431519
 12
-0.49799180030822754
 22
0.9630628228187561
 32
0.013291329145431519
 13
-0.016842305660247803
 23
0.9630629420280457
 33
0.013291329145431519
  0
3DFACE
  8
0
 10
-0.016842305660247803
 20
0.16862235963344574
 30
0.013291329145431519
 11
-0.016842305660247803
 21
0.9630629420280457
 31
0.013291329145431519
 12
0.46805888414382935
 22
0.9630628228187561
 32
0.013291329145431519
 13
0.46805888414382935
 23
0.16862235963344574
 33
0.013291329145431519
  0
3DFACE
  8
0
 10
-0.016842305660247803
 20
0.16862235963344574
 30
0.013291329145431519
 11
0.46805888414382935
 21
0.16862235963344574
 31
0.013291329145431519
 12
0.46805888414382935
 22
-0.6273961663246155
 32
0.013291329145431519
 13
-0.016842305660247803
 23
-0.6273961663246155
 33
0.013291329145431519
  0
3DFACE
  8
0
 10
0.6882711052894592
 20
0.16862235963344574
 30
0.9150116443634033
 11
0.6882711052894592
 21
-0.6273961663246155
 31
0.9150116443634033
 12
0.7541719675064087
 22
-0.6273961663246155
 32
0.8948839902877808
 13
0.7541719675064087
 23
0.16862235963344574
 33
0.8948839902877808
  0
3DFACE
  8
0
 10
0.6882711052894592
 20
0.16862235963344574
 30
0.9150116443634033
 11
0.7541719675064087
 21
0.16862235963344574
 31
0.8948839902877808
 12
0.7541719675064087
 22
0.9630628228187561
 32
0.8948839902877808
 13
0.6882711052894592
 23
0.9630629420280457
 33
0.9150116443634033
  0
3DFACE
  8
0
 10
0.6882711052894592
 20
0.16862235963344574
 30
0.9150116443634033
 11
0.6882711052894592
 21
0.9630629420280457
 31
0.9150116443634033
 12
0.46805888414382935
 22
0.9630628228187561
 32
0.9150116443634033
 13
0.46805888414382935
 23
0.16862235963344574
 33
0.9150116443634033
  0
3DFACE
  8
0
 10
0.6882711052894592
 20
0.16862235963344574
 30
0.9150116443634033
 11
0.46805888414382935
 21
0.16862235963344574
 31
0.9150116443634033
 12
0.46805888414382935
 22
-0.6273961663246155
 32
0.9150116443634033
 13
0.6882711052894592
 23
-0.6273961663246155
 33
0.9150116443634033
  0
3DFACE
  8
0
 10
-0.016842305660247803
 20
-1.0376898050308228
 30
0.09630072116851807
 11
0.46805888414382935
 21
-1.0376898050308228
 31
0.09630072116851807
 12
0.46805888414382935
 22
-1.0376898050308228
 32
0.23039275407791138
 13
-0.016842305660247803
 23
-1.0376898050308228
 33
0.23039275407791138
  0
3DFACE
  8
0
 10
-0.016842305660247803
 20
-1.0376898050308228
 30
0.09630072116851807
 11
-0.016842305660247803
 21
-1.0376898050308228
 31
0.23039275407791138
 12
-0.49799180030822754
 22
-1.0376898050308228
 32
0.23039275407791138
 13
-0.49799180030822754
 23
-1.0376898050308228
 33
0.09630072116851807
  0
3DFACE
  8
0
 10
-0.016842305660247803
 20
-1.0376898050308228
 30
0.09630072116851807
 11
-0.49799180030822754
 21
-1.0376898050308228
 31
0.09630072116851807
 12
-0.49799180030822754
 22
-1.015946626663208
 32
0.03404366970062256
 13
-0.016842305660247803
 23
-1.0159467458724976
 33
0.03404366970062256
  0
3DFACE
  8
0
 10
-0.016842305660247803
 20
-1.0376898050308228
 30
0.09630072116851807
 11
-0.016842305660247803
 21
-1.0159467458724976
 31
0.03404366970062256
 12
0.46805888414382935
 22
-1.015946626663208
 32
0.03404366970062256
 13
0.46805888414382935
 23
-1.0376898050308228
 33
0.09630072116851807
  0
3DFACE
  8
0
 10
-0.016842305660247803
 20
1.2816499471664429
 30
0.9150116443634033
 11
-0.016842305660247803
 21
0.9630629420280457
 31
0.9150116443634033
 12
0.46805888414382935
 22
0.9630628228187561
 32
0.9150116443634033
 13
0.46805888414382935
 23
1.2816499471664429
 33
0.9150116443634033
  0
3DFACE
  8
0
 10
-0.016842305660247803
 20
1.2816499471664429
 30
0.9150116443634033
 11
0.46805888414382935
 21
1.2816499471664429
 31
0.9150116443634033
 12
0.46805891394615173
 22
1.3421452045440674
 32
0.8948839902877808
 13
-0.016842305660247803
 23
1.3421452045440674
 33
0.8948839902877808
  0
3DFACE
  8
0
 10
-0.016842305660247803
 20
1.2816499471664429
 30
0.9150116443634033
 11
-0.016842305660247803
 21
1.3421452045440674
 31
0.8948839902877808
 12
-0.49799180030822754
 22
1.3421452045440674
 32
0.8948839902877808
 13
-0.49799180030822754
 23
1.2816499471664429
 33
0.9150116443634033
  0
3DFACE
  8
0
 10
-0.016842305660247803
 20
1.2816499471664429
 30
0.9150116443634033
 11
-0.49799180030822754
 21
1.2816499471664429
 31
0.9150116443634033
 12
-0.49799180030822754
 22
0.9630628228187561
 32
0.9150116443634033
 13
-0.016842305660247803
 23
0.9630629420280457
 33
0.9150116443634033
  0
3DFACE
  8
0
 10
-0.016842305660247803
 20
-0.9507173299789429
 30
0.9150116443634033
 11
-0.016842305660247803
 21
-1.0159467458724976
 31
0.8948839902877808
 12
0.46805891394615173
 22
-1.015946626663208
 32
0.8948839902877808
 13
0.46805888414382935
 23
-0.9507173299789429
 33
0.9150116443634033
  0
3DFACE
  8
0
 10
-0.016842305660247803
 20
-0.9507173299789429
 30
0.9150116443634033
 11
0.46805888414382935
 21
-0.9507173299789429
 31
0.9150116443634033
 12
0.46805888414382935
 22
-0.6273961663246155
 32
0.9150116443634033
 13
-0.016842305660247803
 23
-0.6273961663246155
 33
0.9150116443634033
  0
3DFACE
  8
0
 10
-0.016842305660247803
 20
-0.9507173299789429
 30
0.9150116443634033
 11
-0.016842305660247803
 21
-0.6273961663246155
 31
0.9150116443634033
 12
-0.49799180030822754
 22
-0.6273961663246155
 32
0.9150116443634033
 13
-0.49799180030822754
 23
-0.9507173299789429
 33
0.9150116443634033
  0
3DFACE
  8
0
 10
-0.016842305660247803
 20
-0.9507173299789429
 30
0.9150116443634033
 11
-0.49799180030822754
 21
-0.9507173299789429
 31
0.9150116443634033
 12
-0.49799180030822754
 22
-1.015946626663208
 32
0.8948839902877808
 13
-0.016842305660247803
 23
-1.0159467458724976
 33
0.8948839902877808
  0
3DFACE
  8
0
 10
-0.7069489359855652
 20
1.3623102903366089
 30
0.09630072116851807
 11
-0.7615946531295776
 21
1.3421452045440674
 31
0.09630072116851807
 12
-0.7615946531295776
 22
1.3421452045440674
 32
0.23039275407791138
 13
-0.7069489359855652
 23
1.3623102903366089
 33
0.23039275407791138
  0
3DFACE
  8
0
 10
-0.7069489359855652
 20
1.3623102903366089
 30
0.09630072116851807
 11
-0.7069489359855652
 21
1.3623102903366089
 31
0.23039275407791138
 12
-0.49799180030822754
 22
1.3623102903366089
 32
0.23039275407791138
 13
-0.49799180030822754
 23
1.3623102903366089
 33
0.09630072116851807
  0
3DFACE
  8
0
 10
-0.7069489359855652
 20
1.3623102903366089
 30
0.09630072116851807
 11
-0.49799180030822754
 21
1.3623102903366089
 31
0.09630072116851807
 12
-0.49799180030822754
 22
1.3421452045440674
 32
0.03404366970062256
 13
-0.7069489359855652
 23
1.3421452045440674
 33
0.03404366970062256
  0
3DFACE
  8
0
 10
-0.7069489359855652
 20
1.3623102903366089
 30
0.09630072116851807
 11
-0.7069489359855652
 21
1.3421452045440674
 31
0.03404366970062256
 12
-0.747427225112915
 22
1.3264613151550293
 32
0.050184398889541626
 13
-0.7615946531295776
 23
1.3421452045440674
 33
0.09630072116851807
  0
3DFACE
  8
0
 10
-0.7069489359855652
 20
1.2816499471664429
 30
0.013291329145431519
 11
-0.7069489359855652
 21
0.9630629420280457
 31
0.013291329145431519
 12
-0.7615946531295776
 22
0.9630628228187561
 32
0.03404366970062256
 13
-0.7615946531295776
 23
1.2816499471664429
 33
0.03404366970062256
  0
3DFACE
  8
0
 10
-0.7069489359855652
 20
1.2816499471664429
 30
0.013291329145431519
 11
-0.7615946531295776
 21
1.2816499471664429
 31
0.03404366970062256
 12
-0.747427225112915
 22
1.3264613151550293
 32
0.050184398889541626
 13
-0.7069489359855652
 23
1.3421452045440674
 33
0.03404366970062256
  0
3DFACE
  8
0
 10
-0.7069489359855652
 20
1.2816499471664429
 30
0.013291329145431519
 11
-0.7069489359855652
 21
1.3421452045440674
 31
0.03404366970062256
 12
-0.49799180030822754
 22
1.3421452045440674
 32
0.03404366970062256
 13
-0.49799180030822754
 23
1.2816499471664429
 33
0.013291329145431519
  0
3DFACE
  8
0
 10
-0.7069489359855652
 20
1.2816499471664429
 30
0.013291329145431519
 11
-0.49799180030822754
 21
1.2816499471664429
 31
0.013291329145431519
 12
-0.49799180030822754
 22
0.9630628228187561
 32
0.013291329145431519
 13
-0.7069489359855652
 23
0.9630629420280457
 33
0.013291329145431519
  0
3DFACE
  8
0
 10
-0.7069489359855652
 20
-0.9507173299789429
 30
0.013291329145431519
 11
-0.7069489359855652
 21
-1.0159467458724976
 31
0.03404366970062256
 12
-0.747427225112915
 22
-0.9990354180335999
 32
0.050184398889541626
 13
-0.7615946531295776
 23
-0.9507173299789429
 33
0.03404366970062256
  0
3DFACE
  8
0
 10
-0.7069489359855652
 20
-0.9507173299789429
 30
0.013291329145431519
 11
-0.7615946531295776
 21
-0.9507173299789429
 31
0.03404366970062256
 12
-0.7615946531295776
 22
-0.6273961663246155
 32
0.03404366970062256
 13
-0.7069489359855652
 23
-0.6273961663246155
 33
0.013291329145431519
  0
3DFACE
  8
0
 10
-0.7069489359855652
 20
-0.9507173299789429
 30
0.013291329145431519
 11
-0.7069489359855652
 21
-0.6273961663246155
 31
0.013291329145431519
 12
-0.49799180030822754
 22
-0.6273961663246155
 32
0.013291329145431519
 13
-0.49799180030822754
 23
-0.9507173299789429
 33
0.013291329145431519
  0
3DFACE
  8
0
 10
-0.7069489359855652
 20
-0.9507173299789429
 30
0.013291329145431519
 11
-0.49799180030822754
 21
-0.9507173299789429
 31
0.013291329145431519
 12
-0.49799180030822754
 22
-1.015946626663208
 32
0.03404366970062256
 13
-0.7069489359855652
 23
-1.0159467458724976
 33
0.03404366970062256
  0
3DFACE
  8
0
 10
-0.016842305660247803
 20
0.16862235963344574
 30
0.9150116443634033
 11
-0.016842305660247803
 21
-0.6273961663246155
 31
0.9150116443634033
 12
0.46805888414382935
 22
-0.6273961663246155
 32
0.9150116443634033
 13
0.46805888414382935
 23
0.16862235963344574
 33
0.9150116443634033
  0
3DFACE
  8
0
 10
-0.016842305660247803
 20
0.16862235963344574
 30
0.9150116443634033
 11
0.46805888414382935
 21
0.16862235963344574
 31
0.9150116443634033
 12
0.46805888414382935
 22
0.9630628228187561
 32
0.9150116443634033
 13
-0.016842305660247803
 23
0.9630629420280457
 33
0.9150116443634033
  0
3DFACE
  8
0
 10
-0.016842305660247803
 20
0.16862235963344574
 30
0.9150116443634033
 11
-0.016842305660247803
 21
0.9630629420280457
 31
0.9150116443634033
 12
-0.49799180030822754
 22
0.9630628228187561
 32
0.9150116443634033
 13
-0.49799180030822754
 23
0.16862235963344574
 33
0.9150116443634033
  0
3DFACE
  8
0
 10
-0.016842305660247803
 20
0.16862235963344574
 30
0.9150116443634033
 11
-0.49799180030822754
 21
0.16862235963344574
 31
0.9150116443634033
 12
-0.49799180030822754
 22
-0.6273961663246155
 32
0.9150116443634033
 13
-0.016842305660247803
 23
-0.6273961663246155
 33
0.9150116443634033
  0
3DFACE
  8
0
 10
-0.7069489359855652
 20
0.16862235963344574
 30
0.013291329145431519
 11
-0.7069489359855652
 21
-0.6273961663246155
 31
0.013291329145431519
 12
-0.7615946531295776
 22
-0.6273961663246155
 32
0.03404366970062256
 13
-0.7615946531295776
 23
0.16862235963344574
 33
0.03404366970062256
  0
3DFACE
  8
0
 10
-0.7069489359855652
 20
0.16862235963344574
 30
0.013291329145431519
 11
-0.7615946531295776
 21
0.16862235963344574
 31
0.03404366970062256
 12
-0.7615946531295776
 22
0.9630628228187561
 32
0.03404366970062256
 13
-0.7069489359855652
 23
0.9630629420280457
 33
0.013291329145431519
  0
3DFACE
  8
0
 10
-0.7069489359855652
 20
0.16862235963344574
 30
0.013291329145431519
 11
-0.7069489359855652
 21
0.9630629420280457
 31
0.013291329145431519
 12
-0.49799180030822754
 22
0.9630628228187561
 32
0.013291329145431519
 13
-0.49799180030822754
 23
0.16862235963344574
 33
0.013291329145431519
  0
3DFACE
  8
0
 10
-0.7069489359855652
 20
0.16862235963344574
 30
0.013291329145431519
 11
-0.49799180030822754
 21
0.16862235963344574
 31
0.013291329145431519
 12
-0.49799180030822754
 22
-0.6273961663246155
 32
0.013291329145431519
 13
-0.7069489359855652
 23
-0.6273961663246155
 33
0.013291329145431519
  0
3DFACE
  8
0
 10
-0.7798098921775818
 20
1.2816499471664429
 30
0.8345009088516235
 11
-0.7798098921775818
 21
0.9630629420280457
 31
0.8345009088516235
 12
-0.7615946531295776
 22
0.9630628228187561
 32
0.8948839902877808
 13
-0.7615946531295776
 23
1.2816499471664429
 33
0.8948839902877808
  0
3DFACE
  8
0
 10
-0.7798098921775818
 20
1.2816499471664429
 30
0.8345009088516235
 11
-0.7615946531295776
 21
1.2816499471664429
 31
0.8948839902877808
 12
-0.747427225112915
 22
1.3264613151550293
 32
0.8792291283607483
 13
-0.7615946531295776
 23
1.3421452045440674
 33
0.8345009088516235
  0
3DFACE
  8
0
 10
-0.7798098921775818
 20
1.2816499471664429
 30
0.8345009088516235
 11
-0.7615946531295776
 21
1.3421452045440674
 31
0.8345009088516235
 12
-0.7615946531295776
 22
1.3421452045440674
 32
0.7022828459739685
 13
-0.7798098921775818
 23
1.2816499471664429
 33
0.7022828459739685
  0
3DFACE
  8
0
 10
-0.7798098921775818
 20
1.2816499471664429
 30
0.8345009088516235
 11
-0.7798098921775818
 21
1.2816499471664429
 31
0.7022828459739685
 12
-0.7798098921775818
 22
0.9630628228187561
 32
0.7022828459739685
 13
-0.7798098921775818
 23
0.9630629420280457
 33
0.8345009088516235
  0
3DFACE
  8
0
 10
0.688271164894104
 20
1.3623102903366089
 30
0.8345009088516235
 11
0.46805888414382935
 21
1.3623102903366089
 31
0.8345009088516235
 12
0.46805891394615173
 22
1.3421452045440674
 32
0.8948839902877808
 13
0.688271164894104
 23
1.3421452045440674
 33
0.8948839902877808
  0
3DFACE
  8
0
 10
0.688271164894104
 20
1.3623102903366089
 30
0.8345009088516235
 11
0.688271164894104
 21
1.3421452045440674
 31
0.8948839902877808
 12
0.7370866537094116
 22
1.3264613151550293
 32
0.8792291283607483
 13
0.7541719675064087
 23
1.3421452045440674
 33
0.8345009088516235
  0
3DFACE
  8
0
 10
0.688271164894104
 20
1.3623102903366089
 30
0.8345009088516235
 11
0.7541719675064087
 21
1.3421452045440674
 31
0.8345009088516235
 12
0.7541719675064087
 22
1.3421452045440674
 32
0.7022828459739685
 13
0.688271164894104
 23
1.3623102903366089
 33
0.7022828459739685
  0
3DFACE
  8
0
 10
0.688271164894104
 20
1.3623102903366089
 30
0.8345009088516235
 11
0.688271164894104
 21
1.3623102903366089
 31
0.7022828459739685
 12
0.46805891394615173
 22
1.3623102903366089
 32
0.7022828459739685
 13
0.46805888414382935
 23
1.3623102903366089
 33
0.8345009088516235
  0
3DFACE
  8
0
 10
0.7761389017105103
 20
-0.9507173299789429
 30
0.8345009088516235
 11
0.7761389017105103
 21
-0.6273961663246155
 31
0.8345009088516235
 12
0.7541719675064087
 22
-0.6273961663246155
 32
0.8948839902877808
 13
0.7541719675064087
 23
-0.9507173299789429
 33
0.8948839902877808
  0
3DFACE
  8
0
 10
0.7761389017105103
 20
-0.9507173299789429
 30
0.8345009088516235
 11
0.7541719675064087
 21
-0.9507173299789429
 31
0.8948839902877808
 12
0.7370866537094116
 22
-0.9990354180335999
 32
0.8792291283607483
 13
0.7541719675064087
 23
-1.0159467458724976
 33
0.8345009088516235
  0
3DFACE
  8
0
 10
0.7761389017105103
 20
-0.9507173299789429
 30
0.8345009088516235
 11
0.7541719675064087
 21
-1.0159467458724976
 31
0.8345009088516235
 12
0.7541719675064087
 22
-1.015946626663208
 32
0.7022828459739685
 13
0.7761389017105103
 23
-0.9507173299789429
 33
0.7022828459739685
  0
3DFACE
  8
0
 10
0.7761389017105103
 20
-0.9507173299789429
 30
0.8345009088516235
 11
0.7761389017105103
 21
-0.9507173299789429
 31
0.7022828459739685
 12
0.7761389017105103
 22
-0.6273961663246155
 32
0.7022828459739685
 13
0.7761389017105103
 23
-0.6273961663246155
 33
0.8345009088516235
  0
3DFACE
  8
0
 10
-0.7069489359855652
 20
-1.0376898050308228
 30
0.8345009088516235
 11
-0.49799180030822754
 21
-1.0376898050308228
 31
0.8345009088516235
 12
-0.49799180030822754
 22
-1.015946626663208
 32
0.8948839902877808
 13
-0.7069489359855652
 23
-1.0159467458724976
 33
0.8948839902877808
  0
3DFACE
  8
0
 10
-0.7069489359855652
 20
-1.0376898050308228
 30
0.8345009088516235
 11
-0.7069489359855652
 21
-1.0159467458724976
 31
0.8948839902877808
 12
-0.747427225112915
 22
-0.9990354180335999
 32
0.8792291283607483
 13
-0.7615946531295776
 23
-1.0159467458724976
 33
0.8345009088516235
  0
3DFACE
  8
0
 10
-0.7069489359855652
 20
-1.0376898050308228
 30
0.8345009088516235
 11
-0.7615946531295776
 21
-1.0159467458724976
 31
0.8345009088516235
 12
-0.7615946531295776
 22
-1.015946626663208
 32
0.7022828459739685
 13
-0.7069489359855652
 23
-1.0376898050308228
 33
0.7022828459739685
  0
3DFACE
  8
0
 10
-0.7069489359855652
 20
-1.0376898050308228
 30
0.8345009088516235
 11
-0.7069489359855652
 21
-1.0376898050308228
 31
0.7022828459739685
 12
-0.49799180030822754
 22
-1.0376898050308228
 32
0.7022828459739685
 13
-0.49799180030822754
 23
-1.0376898050308228
 33
0.8345009088516235
  0
3DFACE
  8
0
 10
-0.7798098921775818
 20
-0.9507173299789429
 30
0.8345009088516235
 11
-0.7615946531295776
 21
-1.0159467458724976
 31
0.8345009088516235
 12
-0.747427225112915
 22
-0.9990354180335999
 32
0.8792291283607483
 13
-0.7615946531295776
 23
-0.9507173299789429
 33
0.8948839902877808
  0
3DFACE
  8
0
 10
-0.7798098921775818
 20
-0.9507173299789429
 30
0.8345009088516235
 11
-0.7615946531295776
 21
-0.9507173299789429
 31
0.8948839902877808
 12
-0.7615946531295776
 22
-0.6273961663246155
 32
0.8948839902877808
 13
-0.7798098921775818
 23
-0.6273961663246155
 33
0.8345009088516235
  0
3DFACE
  8
0
 10
-0.7798098921775818
 20
-0.9507173299789429
 30
0.8345009088516235
 11
-0.7798098921775818
 21
-0.6273961663246155
 31
0.8345009088516235
 12
-0.7798098921775818
 22
-0.6273961663246155
 32
0.7022828459739685
 13
-0.7798098921775818
 23
-0.9507173299789429
 33
0.7022828459739685
  0
3DFACE
  8
0
 10
-0.7798098921775818
 20
-0.9507173299789429
 30
0.8345009088516235
 11
-0.7798098921775818
 21
-0.9507173299789429
 31
0.7022828459739685
 12
-0.7615946531295776
 22
-1.015946626663208
 32
0.7022828459739685
 13
-0.7615946531295776
 23
-1.0159467458724976
 33
0.8345009088516235
  0
3DFACE
  8
0
 10
0.7761389017105103
 20
0.16862235963344574
 30
0.8345009088516235
 11
0.7761389017105103
 21
0.9630628228187561
 31
0.8345009088516235
 12
0.7541719675064087
 22
0.9630628228187561
 32
0.8948839902877808
 13
0.7541719675064087
 23
0.16862235963344574
 33
0.8948839902877808
  0
3DFACE
  8
0
 10
0.7761389017105103
 20
0.16862235963344574
 30
0.8345009088516235
 11
0.7541719675064087
 21
0.16862235963344574
 31
0.8948839902877808
 12
0.7541719675064087
 22
-0.6273961663246155
 32
0.8948839902877808
 13
0.7761389017105103
 23
-0.6273961663246155
 33
0.8345009088516235
  0
3DFACE
  8
0
 10
0.7761389017105103
 20
0.16862235963344574
 30
0.8345009088516235
 11
0.7761389017105103
 21
-0.6273961663246155
 31
0.8345009088516235
 12
0.7761389017105103
 22
-0.6273961663246155
 32
0.7022828459739685
 13
0.7761389017105103
 23
0.16862235963344574
 33
0.7022828459739685
  0
3DFACE
  8
0
 10
0.7761389017105103
 20
0.16862235963344574
 30
0.8345009088516235
 11
0.7761389017105103
 21
0.16862235963344574
 31
0.7022828459739685
 12
0.7761389017105103
 22
0.9630628228187561
 32
0.7022828459739685
 13
0.7761389017105103
 23
0.9630628228187561
 33
0.8345009088516235
  0
3DFACE
  8
0
 10
-0.016842305660247803
 20
1.3623102903366089
 30
0.8345009088516235
 11
-0.49799180030822754
 21
1.3623102903366089
 31
0.8345009088516235
 12
-0.49799180030822754
 22
1.3421452045440674
 32
0.8948839902877808
 13
-0.016842305660247803
 23
1.3421452045440674
 33
0.8948839902877808
  0
3DFACE
  8
0
 10
-0.016842305660247803
 20
1.3623102903366089
 30
0.8345009088516235
 11
-0.016842305660247803
 21
1.3421452045440674
 31
0.8948839902877808
 12
0.46805891394615173
 22
1.3421452045440674
 32
0.8948839902877808
 13
0.46805888414382935
 23
1.3623102903366089
 33
0.8345009088516235
  0
3DFACE
  8
0
 10
-0.016842305660247803
 20
1.3623102903366089
 30
0.8345009088516235
 11
0.46805888414382935
 21
1.3623102903366089
 31
0.8345009088516235
 12
0.46805891394615173
 22
1.3623102903366089
 32
0.7022828459739685
 13
-0.016842305660247803
 23
1.3623102903366089
 33
0.7022828459739685
  0
3DFACE
  8
0
 10
-0.016842305660247803
 20
1.3623102903366089
 30
0.8345009088516235
 11
-0.016842305660247803
 21
1.3623102903366089
 31
0.7022828459739685
 12
-0.49799180030822754
 22
1.3623102903366089
 32
0.7022828459739685
 13
-0.49799180030822754
 23
1.3623102903366089
 33
0.8345009088516235
  0
3DFACE
  8
0
 10
0.688271164894104
 20
-1.0376898050308228
 30
0.8345009088516235
 11
0.7541719675064087
 21
-1.0159467458724976
 31
0.8345009088516235
 12
0.7370866537094116
 22
-0.9990354180335999
 32
0.8792291283607483
 13
0.688271164894104
 23
-1.0159467458724976
 33
0.8948839902877808
  0
3DFACE
  8
0
 10
0.688271164894104
 20
-1.0376898050308228
 30
0.8345009088516235
 11
0.688271164894104
 21
-1.0159467458724976
 31
0.8948839902877808
 12
0.46805891394615173
 22
-1.015946626663208
 32
0.8948839902877808
 13
0.46805888414382935
 23
-1.0376898050308228
 33
0.8345009088516235
  0
3DFACE
  8
0
 10
0.688271164894104
 20
-1.0376898050308228
 30
0.8345009088516235
 11
0.46805888414382935
 21
-1.0376898050308228
 31
0.8345009088516235
 12
0.46805891394615173
 22
-1.0376898050308228
 32
0.7022828459739685
 13
0.688271164894104
 23
-1.0376898050308228
 33
0.7022828459739685
  0
3DFACE
  8
0
 10
0.688271164894104
 20
-1.0376898050308228
 30
0.8345009088516235
 11
0.688271164894104
 21
-1.0376898050308228
 31
0.7022828459739685
 12
0.7541719675064087
 22
-1.015946626663208
 32
0.7022828459739685
 13
0.7541719675064087
 23
-1.0159467458724976
 33
0.8345009088516235
  0
3DFACE
  8
0
 10
-0.7798098921775818
 20
0.16862235963344574
 30
0.8345009088516235
 11
-0.7798098921775818
 21
-0.6273961663246155
 31
0.8345009088516235
 12
-0.7615946531295776
 22
-0.6273961663246155
 32
0.8948839902877808
 13
-0.7615946531295776
 23
0.16862235963344574
 33
0.8948839902877808
  0
3DFACE
  8
0
 10
-0.7798098921775818
 20
0.16862235963344574
 30
0.8345009088516235
 11
-0.7615946531295776
 21
0.16862235963344574
 31
0.8948839902877808
 12
-0.7615946531295776
 22
0.9630628228187561
 32
0.8948839902877808
 13
-0.7798098921775818
 23
0.9630629420280457
 33
0.8345009088516235
  0
3DFACE
  8
0
 10
-0.7798098921775818
 20
0.16862235963344574
 30
0.8345009088516235
 11
-0.7798098921775818
 21
0.9630629420280457
 31
0.8345009088516235
 12
-0.7798098921775818
 22
0.9630628228187561
 32
0.7022828459739685
 13
-0.7798098921775818
 23
0.16862235963344574
 33
0.7022828459739685
  0
3DFACE
  8
0
 10
-0.7798098921775818
 20
0.16862235963344574
 30
0.8345009088516235
 11
-0.7798098921775818
 21
0.16862235963344574
 31
0.7022828459739685
 12
-0.7798098921775818
 22
-0.6273961663246155
 32
0.7022828459739685
 13
-0.7798098921775818
 23
-0.6273961663246155
 33
0.8345009088516235
  0
3DFACE
  8
0
 10
0.7761389017105103
 20
1.2816499471664429
 30
0.8345009088516235
 11
0.7541719675064087
 21
1.3421452045440674
 31
0.8345009088516235
 12
0.7370866537094116
 22
1.3264613151550293
 32
0.8792291283607483
 13
0.7541719675064087
 23
1.2816499471664429
 33
0.8948839902877808
  0
3DFACE
  8
0
 10
0.7761389017105103
 20
1.2816499471664429
 30
0.8345009088516235
 11
0.7541719675064087
 21
1.2816499471664429
 31
0.8948839902877808
 12
0.7541719675064087
 22
0.9630628228187561
 32
0.8948839902877808
 13
0.7761389017105103
 23
0.9630628228187561
 33
0.8345009088516235
  0
3DFACE
  8
0
 10
0.7761389017105103
 20
1.2816499471664429
 30
0.8345009088516235
 11
0.7761389017105103
 21
0.9630628228187561
 31
0.8345009088516235
 12
0.7761389017105103
 22
0.9630628228187561
 32
0.7022828459739685
 13
0.7761389017105103
 23
1.2816499471664429
 33
0.7022828459739685
  0
3DFACE
  8
0
 10
0.7761389017105103
 20
1.2816499471664429
 30
0.8345009088516235
 11
0.7761389017105103
 21
1.2816499471664429
 31
0.7022828459739685
 12
0.7541719675064087
 22
1.3421452045440674
 32
0.7022828459739685
 13
0.7541719675064087
 23
1.3421452045440674
 33
0.8345009088516235
  0
3DFACE
  8
0
 10
-0.016842305660247803
 20
-1.0376898050308228
 30
0.8345009088516235
 11
0.46805888414382935
 21
-1.0376898050308228
 31
0.8345009088516235
 12
0.46805891394615173
 22
-1.015946626663208
 32
0.8948839902877808
 13
-0.016842305660247803
 23
-1.0159467458724976
 33
0.8948839902877808
  0
3DFACE
  8
0
 10
-0.016842305660247803
 20
-1.0376898050308228
 30
0.8345009088516235
 11
-0.016842305660247803
 21
-1.0159467458724976
 31
0.8948839902877808
 12
-0.49799180030822754
 22
-1.015946626663208
 32
0.8948839902877808
 13
-0.49799180030822754
 23
-1.0376898050308228
 33
0.8345009088516235
  0
3DFACE
  8
0
 10
-0.016842305660247803
 20
-1.0376898050308228
 30
0.8345009088516235
 11
-0.49799180030822754
 21
-1.0376898050308228
 31
0.8345009088516235
 12
-0.49799180030822754
 22
-1.0376898050308228
 32
0.7022828459739685
 13
-0.016842305660247803
 23
-1.0376898050308228
 33
0.7022828459739685
  0
3DFACE
  8
0
 10
-0.016842305660247803
 20
-1.0376898050308228
 30
0.8345009088516235
 11
-0.016842305660247803
 21
-1.0376898050308228
 31
0.7022828459739685
 12
0.46805891394615173
 22
-1.0376898050308228
 32
0.7022828459739685
 13
0.46805888414382935
 23
-1.0376898050308228
 33
0.8345009088516235
  0
3DFACE
  8
0
 10
-0.7069489359855652
 20
1.3623102903366089
 30
0.8345009088516235
 11
-0.7615946531295776
 21
1.3421452045440674
 31
0.8345009088516235
 12
-0.747427225112915
 22
1.3264613151550293
 32
0.8792291283607483
 13
-0.7069489359855652
 23
1.3421452045440674
 33
0.8948839902877808
  0
3DFACE
  8
0
 10
-0.7069489359855652
 20
1.3623102903366089
 30
0.8345009088516235
 11
-0.7069489359855652
 21
1.3421452045440674
 31
0.8948839902877808
 12
-0.49799180030822754
 22
1.3421452045440674
 32
0.8948839902877808
 13
-0.49799180030822754
 23
1.3623102903366089
 33
0.8345009088516235
  0
3DFACE
  8
0
 10
-0.7069489359855652
 20
1.3623102903366089
 30
0.8345009088516235
 11
-0.49799180030822754
 21
1.3623102903366089
 31
0.8345009088516235
 12
-0.49799180030822754
 22
1.3623102903366089
 32
0.7022828459739685
 13
-0.7069489359855652
 23
1.3623102903366089
 33
0.7022828459739685
  0
3DFACE
  8
0
 10
-0.7069489359855652
 20
1.3623102903366089
 30
0.8345009088516235
 11
-0.7069489359855652
 21
1.3623102903366089
 31
0.7022828459739685
 12
-0.7615946531295776
 22
1.3421452045440674
 32
0.7022828459739685
 13
-0.7615946531295776
 23
1.3421452045440674
 33
0.8345009088516235
  0
3DFACE
  8
0
 10
-0.7798098921775818
 20
1.2816499471664429
 30
0.466650128364563
 11
-0.7798098921775818
 21
0.9630629420280457
 31
0.466650128364563
 12
-0.7798098921775818
 22
0.9630628228187561
 32
0.7022828459739685
 13
-0.7798098921775818
 23
1.2816499471664429
 33
0.7022828459739685
  0
3DFACE
  8
0
 10
-0.7798098921775818
 20
1.2816499471664429
 30
0.466650128364563
 11
-0.7798098921775818
 21
1.2816499471664429
 31
0.7022828459739685
 12
-0.7615946531295776
 22
1.3421452045440674
 32
0.7022828459739685
 13
-0.7615946531295776
 23
1.3421452045440674
 33
0.466650128364563
  0
3DFACE
  8
0
 10
-0.7798098921775818
 20
1.2816499471664429
 30
0.466650128364563
 11
-0.7615946531295776
 21
1.3421452045440674
 31
0.466650128364563
 12
-0.7615946531295776
 22
1.3421452045440674
 32
0.23039275407791138
 13
-0.7798098921775818
 23
1.2816499471664429
 33
0.23039275407791138
  0
3DFACE
  8
0
 10
-0.7798098921775818
 20
1.2816499471664429
 30
0.466650128364563
 11
-0.7798098921775818
 21
1.2816499471664429
 31
0.23039275407791138
 12
-0.7798098921775818
 22
0.9630628228187561
 32
0.23039275407791138
 13
-0.7798098921775818
 23
0.9630629420280457
 33
0.466650128364563
  0
3DFACE
  8
0
 10
0.688271164894104
 20
1.3623102903366089
 30
0.466650128364563
 11
0.46805888414382935
 21
1.3623102903366089
 31
0.466650128364563
 12
0.46805891394615173
 22
1.3623102903366089
 32
0.7022828459739685
 13
0.688271164894104
 23
1.3623102903366089
 33
0.7022828459739685
  0
3DFACE
  8
0
 10
0.688271164894104
 20
1.3623102903366089
 30
0.466650128364563
 11
0.688271164894104
 21
1.3623102903366089
 31
0.7022828459739685
 12
0.7541719675064087
 22
1.3421452045440674
 32
0.7022828459739685
 13
0.7541719675064087
 23
1.3421452045440674
 33
0.466650128364563
  0
3DFACE
  8
0
 10
0.688271164894104
 20
1.3623102903366089
 30
0.466650128364563
 11
0.7541719675064087
 21
1.3421452045440674
 31
0.466650128364563
 12
0.7541719675064087
 22
1.3421452045440674
 32
0.23039275407791138
 13
0.688271164894104
 23
1.3623102903366089
 33
0.23039275407791138
  0
3DFACE
  8
0
 10
0.688271164894104
 20
1.3623102903366089
 30
0.466650128364563
 11
0.688271164894104
 21
1.3623102903366089
 31
0.23039275407791138
 12
0.46805888414382935
 22
1.3623102903366089
 32
0.23039275407791138
 13
0.46805888414382935
 23
1.3623102903366089
 33
0.466650128364563
  0
3DFACE
  8
0
 10
0.7761389017105103
 20
-0.9507173299789429
 30
0.466650128364563
 11
0.7761389017105103
 21
-0.6273961663246155
 31
0.466650128364563
 12
0.7761389017105103
 22
-0.6273961663246155
 32
0.7022828459739685
 13
0.7761389017105103
 23
-0.9507173299789429
 33
0.7022828459739685
  0
3DFACE
  8
0
 10
0.7761389017105103
 20
-0.9507173299789429
 30
0.466650128364563
 11
0.7761389017105103
 21
-0.9507173299789429
 31
0.7022828459739685
 12
0.7541719675064087
 22
-1.015946626663208
 32
0.7022828459739685
 13
0.7541719675064087
 23
-1.0159467458724976
 33
0.466650128364563
  0
3DFACE
  8
0
 10
0.7761389017105103
 20
-0.9507173299789429
 30
0.466650128364563
 11
0.7541719675064087
 21
-1.0159467458724976
 31
0.466650128364563
 12
0.7541719675064087
 22
-1.015946626663208
 32
0.23039275407791138
 13
0.7761389017105103
 23
-0.9507173299789429
 33
0.23039275407791138
  0
3DFACE
  8
0
 10
0.7761389017105103
 20
-0.9507173299789429
 30
0.466650128364563
 11
0.7761389017105103
 21
-0.9507173299789429
 31
0.23039275407791138
 12
0.7761389017105103
 22
-0.6273961663246155
 32
0.23039275407791138
 13
0.7761389017105103
 23
-0.6273961663246155
 33
0.466650128364563
  0
3DFACE
  8
0
 10
-0.7069489359855652
 20
-1.0376898050308228
 30
0.466650128364563
 11
-0.49799180030822754
 21
-1.0376898050308228
 31
0.466650128364563
 12
-0.49799180030822754
 22
-1.0376898050308228
 32
0.7022828459739685
 13
-0.7069489359855652
 23
-1.0376898050308228
 33
0.7022828459739685
  0
3DFACE
  8
0
 10
-0.7069489359855652
 20
-1.0376898050308228
 30
0.466650128364563
 11
-0.7069489359855652
 21
-1.0376898050308228
 31
0.7022828459739685
 12
-0.7615946531295776
 22
-1.015946626663208
 32
0.7022828459739685
 13
-0.7615946531295776
 23
-1.0159467458724976
 33
0.466650128364563
  0
3DFACE
  8
0
 10
-0.7069489359855652
 20
-1.0376898050308228
 30
0.466650128364563
 11
-0.7615946531295776
 21
-1.0159467458724976
 31
0.466650128364563
 12
-0.7615946531295776
 22
-1.015946626663208
 32
0.23039275407791138
 13
-0.7069489359855652
 23
-1.0376898050308228
 33
0.23039275407791138
  0
3DFACE
  8
0
 10
-0.7069489359855652
 20
-1.0376898050308228
 30
0.466650128364563
 11
-0.7069489359855652
 21
-1.0376898050308228
 31
0.23039275407791138
 12
-0.49799180030822754
 22
-1.0376898050308228
 32
0.23039275407791138
 13
-0.49799180030822754
 23
-1.0376898050308228
 33
0.466650128364563
  0
3DFACE
  8
0
 10
-0.7798098921775818
 20
-0.9507173299789429
 30
0.466650128364563
 11
-0.7615946531295776
 21
-1.0159467458724976
 31
0.466650128364563
 12
-0.7615946531295776
 22
-1.015946626663208
 32
0.7022828459739685
 13
-0.7798098921775818
 23
-0.9507173299789429
 33
0.7022828459739685
  0
3DFACE
  8
0
 10
-0.7798098921775818
 20
-0.9507173299789429
 30
0.466650128364563
 11
-0.7798098921775818
 21
-0.9507173299789429
 31
0.7022828459739685
 12
-0.7798098921775818
 22
-0.6273961663246155
 32
0.7022828459739685
 13
-0.7798098921775818
 23
-0.6273961663246155
 33
0.466650128364563
  0
3DFACE
  8
0
 10
-0.7798098921775818
 20
-0.9507173299789429
 30
0.466650128364563
 11
-0.7798098921775818
 21
-0.6273961663246155
 31
0.466650128364563
 12
-0.7798098921775818
 22
-0.6273961663246155
 32
0.23039275407791138
 13
-0.7798098921775818
 23
-0.9507173299789429
 33
0.23039275407791138
  0
3DFACE
  8
0
 10
-0.7798098921775818
 20
-0.9507173299789429
 30
0.466650128364563
 11
-0.7798098921775818
 21
-0.9507173299789429
 31
0.23039275407791138
 12
-0.7615946531295776
 22
-1.015946626663208
 32
0.23039275407791138
 13
-0.7615946531295776
 23
-1.0159467458724976
 33
0.466650128364563
  0
3DFACE
  8
0
 10
0.7761389017105103
 20
0.16862235963344574
 30
0.466650128364563
 11
0.7761389017105103
 21
0.9630628228187561
 31
0.466650128364563
 12
0.7761389017105103
 22
0.9630628228187561
 32
0.7022828459739685
 13
0.7761389017105103
 23
0.16862235963344574
 33
0.7022828459739685
  0
3DFACE
  8
0
 10
0.7761389017105103
 20
0.16862235963344574
 30
0.466650128364563
 11
0.7761389017105103
 21
0.16862235963344574
 31
0.7022828459739685
 12
0.7761389017105103
 22
-0.6273961663246155
 32
0.7022828459739685
 13
0.7761389017105103
 23
-0.6273961663246155
 33
0.466650128364563
  0
3DFACE
  8
0
 10
0.7761389017105103
 20
0.16862235963344574
 30
0.466650128364563
 11
0.7761389017105103
 21
-0.6273961663246155
 31
0.466650128364563
 12
0.7761389017105103
 22
-0.6273961663246155
 32
0.23039275407791138
 13
0.7761389017105103
 23
0.16862235963344574
 33
0.23039275407791138
  0
3DFACE
  8
0
 10
0.7761389017105103
 20
0.16862235963344574
 30
0.466650128364563
 11
0.7761389017105103
 21
0.16862235963344574
 31
0.23039275407791138
 12
0.7761389017105103
 22
0.9630628228187561
 32
0.23039275407791138
 13
0.7761389017105103
 23
0.9630628228187561
 33
0.466650128364563
  0
3DFACE
  8
0
 10
-0.016842305660247803
 20
1.3623102903366089
 30
0.466650128364563
 11
-0.49799180030822754
 21
1.3623102903366089
 31
0.466650128364563
 12
-0.49799180030822754
 22
1.3623102903366089
 32
0.7022828459739685
 13
-0.016842305660247803
 23
1.3623102903366089
 33
0.7022828459739685
  0
3DFACE
  8
0
 10
-0.016842305660247803
 20
1.3623102903366089
 30
0.466650128364563
 11
-0.016842305660247803
 21
1.3623102903366089
 31
0.7022828459739685
 12
0.46805891394615173
 22
1.3623102903366089
 32
0.7022828459739685
 13
0.46805888414382935
 23
1.3623102903366089
 33
0.466650128364563
  0
3DFACE
  8
0
 10
-0.016842305660247803
 20
1.3623102903366089
 30
0.466650128364563
 11
0.46805888414382935
 21
1.3623102903366089
 31
0.466650128364563
 12
0.46805888414382935
 22
1.3623102903366089
 32
0.23039275407791138
 13
-0.016842305660247803
 23
1.3623102903366089
 33
0.23039275407791138
  0
3DFACE
  8
0
 10
-0.016842305660247803
 20
1.3623102903366089
 30
0.466650128364563
 11
-0.016842305660247803
 21
1.3623102903366089
 31
0.23039275407791138
 12
-0.49799180030822754
 22
1.3623102903366089
 32
0.23039275407791138
 13
-0.49799180030822754
 23
1.3623102903366089
 33
0.466650128364563
  0
3DFACE
  8
0
 10
0.688271164894104
 20
-1.0376898050308228
 30
0.466650128364563
 11
0.7541719675064087
 21
-1.0159467458724976
 31
0.466650128364563
 12
0.7541719675064087
 22
-1.015946626663208
 32
0.7022828459739685
 13
0.688271164894104
 23
-1.0376898050308228
 33
0.7022828459739685
  0
3DFACE
  8
0
 10
0.688271164894104
 20
-1.0376898050308228
 30
0.466650128364563
 11
0.688271164894104
 21
-1.0376898050308228
 31
0.7022828459739685
 12
0.46805891394615173
 22
-1.0376898050308228
 32
0.7022828459739685
 13
0.46805888414382935
 23
-1.0376898050308228
 33
0.466650128364563
  0
3DFACE
  8
0
 10
0.688271164894104
 20
-1.0376898050308228
 30
0.466650128364563
 11
0.46805888414382935
 21
-1.0376898050308228
 31
0.466650128364563
 12
0.46805888414382935
 22
-1.0376898050308228
 32
0.23039275407791138
 13
0.688271164894104
 23
-1.0376898050308228
 33
0.23039275407791138
  0
3DFACE
  8
0
 10
0.688271164894104
 20
-1.0376898050308228
 30
0.466650128364563
 11
0.688271164894104
 21
-1.0376898050308228
 31
0.23039275407791138
 12
0.7541719675064087
 22
-1.015946626663208
 32
0.23039275407791138
 13
0.7541719675064087
 23
-1.0159467458724976
 33
0.466650128364563
  0
3DFACE
  8
0
 10
-0.7798098921775818
 20
0.16862235963344574
 30
0.466650128364563
 11
-0.7798098921775818
 21
-0.6273961663246155
 31
0.466650128364563
 12
-0.7798098921775818
 22
-0.6273961663246155
 32
0.7022828459739685
 13
-0.7798098921775818
 23
0.16862235963344574
 33
0.7022828459739685
  0
3DFACE
  8
0
 10
-0.7798098921775818
 20
0.16862235963344574
 30
0.466650128364563
 11
-0.7798098921775818
 21
0.16862235963344574
 31
0.7022828459739685
 12
-0.7798098921775818
 22
0.9630628228187561
 32
0.7022828459739685
 13
-0.7798098921775818
 23
0.9630629420280457
 33
0.466650128364563
  0
3DFACE
  8
0
 10
-0.7798098921775818
 20
0.16862235963344574
 30
0.466650128364563
 11
-0.7798098921775818
 21
0.9630629420280457
 31
0.466650128364563
 12
-0.7798098921775818
 22
0.9630628228187561
 32
0.23039275407791138
 13
-0.7798098921775818
 23
0.16862235963344574
 33
0.23039275407791138
  0
3DFACE
  8
0
 10
-0.7798098921775818
 20
0.16862235963344574
 30
0.466650128364563
 11
-0.7798098921775818
 21
0.16862235963344574
 31
0.23039275407791138
 12
-0.7798098921775818
 22
-0.6273961663246155
 32
0.23039275407791138
 13
-0.7798098921775818
 23
-0.6273961663246155
 33
0.466650128364563
  0
3DFACE
  8
0
 10
0.7761389017105103
 20
1.2816499471664429
 30
0.466650128364563
 11
0.7541719675064087
 21
1.3421452045440674
 31
0.466650128364563
 12
0.7541719675064087
 22
1.3421452045440674
 32
0.7022828459739685
 13
0.7761389017105103
 23
1.2816499471664429
 33
0.7022828459739685
  0
3DFACE
  8
0
 10
0.7761389017105103
 20
1.2816499471664429
 30
0.466650128364563
 11
0.7761389017105103
 21
1.2816499471664429
 31
0.7022828459739685
 12
0.7761389017105103
 22
0.9630628228187561
 32
0.7022828459739685
 13
0.7761389017105103
 23
0.9630628228187561
 33
0.466650128364563
  0
3DFACE
  8
0
 10
0.7761389017105103
 20
1.2816499471664429
 30
0.466650128364563
 11
0.7761389017105103
 21
0.9630628228187561
 31
0.466650128364563
 12
0.7761389017105103
 22
0.9630628228187561
 32
0.23039275407791138
 13
0.7761389017105103
 23
1.2816499471664429
 33
0.23039275407791138
  0
3DFACE
  8
0
 10
0.7761389017105103
 20
1.2816499471664429
 30
0.466650128364563
 11
0.7761389017105103
 21
1.2816499471664429
 31
0.23039275407791138
 12
0.7541719675064087
 22
1.3421452045440674
 32
0.23039275407791138
 13
0.7541719675064087
 23
1.3421452045440674
 33
0.466650128364563
  0
3DFACE
  8
0
 10
-0.016842305660247803
 20
-1.0376898050308228
 30
0.466650128364563
 11
0.46805888414382935
 21
-1.0376898050308228
 31
0.466650128364563
 12
0.46805891394615173
 22
-1.0376898050308228
 32
0.7022828459739685
 13
-0.016842305660247803
 23
-1.0376898050308228
 33
0.7022828459739685
  0
3DFACE
  8
0
 10
-0.016842305660247803
 20
-1.0376898050308228
 30
0.466650128364563
 11
-0.016842305660247803
 21
-1.0376898050308228
 31
0.7022828459739685
 12
-0.49799180030822754
 22
-1.0376898050308228
 32
0.7022828459739685
 13
-0.49799180030822754
 23
-1.0376898050308228
 33
0.466650128364563
  0
3DFACE
  8
0
 10
-0.016842305660247803
 20
-1.0376898050308228
 30
0.466650128364563
 11
-0.49799180030822754
 21
-1.0376898050308228
 31
0.466650128364563
 12
-0.49799180030822754
 22
-1.0376898050308228
 32
0.23039275407791138
 13
-0.016842305660247803
 23
-1.0376898050308228
 33
0.23039275407791138
  0
3DFACE
  8
0
 10
-0.016842305660247803
 20
-1.0376898050308228
 30
0.466650128364563
 11
-0.016842305660247803
 21
-1.0376898050308228
 31
0.23039275407791138
 12
0.46805888414382935
 22
-1.0376898050308228
 32
0.23039275407791138
 13
0.46805888414382935
 23
-1.0376898050308228
 33
0.466650128364563
  0
3DFACE
  8
0
 10
-0.7069489359855652
 20
1.3623102903366089
 30
0.466650128364563
 11
-0.7615946531295776
 21
1.3421452045440674
 31
0.466650128364563
 12
-0.7615946531295776
 22
1.3421452045440674
 32
0.7022828459739685
 13
-0.7069489359855652
 23
1.3623102903366089
 33
0.7022828459739685
  0
3DFACE
  8
0
 10
-0.7069489359855652
 20
1.3623102903366089
 30
0.466650128364563
 11
-0.7069489359855652
 21
1.3623102903366089
 31
0.7022828459739685
 12
-0.49799180030822754
 22
1.3623102903366089
 32
0.7022828459739685
 13
-0.49799180030822754
 23
1.3623102903366089
 33
0.466650128364563
  0
3DFACE
  8
0
 10
-0.7069489359855652
 20
1.3623102903366089
 30
0.466650128364563
 11
-0.49799180030822754
 21
1.3623102903366089
 31
0.466650128364563
 12
-0.49799180030822754
 22
1.3623102903366089
 32
0.23039275407791138
 13
-0.7069489359855652
 23
1.3623102903366089
 33
0.23039275407791138
  0
3DFACE
  8
0
 10
-0.7069489359855652
 20
1.3623102903366089
 30
0.466650128364563
 11
-0.7069489359855652
 21
1.3623102903366089
 31
0.23039275407791138
 12
-0.7615946531295776
 22
1.3421452045440674
 32
0.23039275407791138
 13
-0.7615946531295776
 23
1.3421452045440674
 33
0.466650128364563
  0
ENDSEC
  0
EOF
