# Blender v2.79 (sub 0) OBJ File: 'finestra.blend'
# www.blender.org
mtllib finestra.mtl
o Cube
v 1.050000 1.050000 -0.999999
v 1.000000 1.050000 -0.999999
v 1.000000 1.000000 -0.999999
v 1.050000 1.000000 -0.999999
v 1.050000 1.050000 -1.049999
v 1.050000 1.000000 -1.049999
v 1.000000 1.050000 -1.049999
v 1.000000 1.000000 -1.049999
v 1.050000 1.050000 -1.449999
v 1.050000 1.000000 -1.449999
v 1.000000 1.050000 -1.449999
v 1.000000 1.000000 -1.449999
v 1.050000 1.050000 -1.549999
v 1.050000 1.000000 -1.549999
v 1.000000 1.050000 -1.549999
v 1.000000 1.000000 -1.549999
v 1.050000 1.050000 -1.949999
v 1.050000 1.000000 -1.949999
v 1.000000 1.050000 -1.949999
v 1.000000 1.000000 -1.949999
v 1.050000 1.050000 -1.999999
v 1.050000 1.000000 -1.999999
v 1.000000 1.050000 -1.999999
v 1.000000 1.000000 -1.999999
v 1.050000 2.450000 -0.999999
v 1.000000 2.450000 -0.999999
v 1.050000 2.450000 -1.049999
v 1.000000 2.450000 -1.049999
v 1.050000 2.500000 -0.999999
v 1.000000 2.500000 -0.999999
v 1.050000 2.500000 -1.049999
v 1.000000 2.500000 -1.049999
v 1.050000 2.450000 -1.449999
v 1.000000 2.450000 -1.449999
v 1.050000 2.500000 -1.449999
v 1.000000 2.500000 -1.449999
v 1.050000 2.450000 -1.549999
v 1.000000 2.450000 -1.549999
v 1.050000 2.500000 -1.549999
v 1.000000 2.500000 -1.549999
v 1.050000 2.450000 -1.949999
v 1.000000 2.450000 -1.949999
v 1.050000 2.500000 -1.949999
v 1.000000 2.500000 -1.949999
v 1.050000 2.450000 -1.999999
v 1.000000 2.450000 -1.999999
v 1.050000 2.500000 -1.999999
v 1.000000 2.500000 -1.999999
v 1.050000 1.050000 -1.949999
v 1.000000 1.050000 -1.949999
v 1.050000 1.050000 -1.999999
v 1.000000 1.050000 -1.999999
v 1.050000 1.650000 -1.449999
v 1.000000 1.650000 -1.449999
v 1.050000 1.650000 -1.549999
v 1.000000 1.650000 -1.549999
v 1.050000 1.850000 -1.449999
v 1.000000 1.850000 -1.449999
v 1.050000 1.850000 -1.549999
v 1.000000 1.850000 -1.549999
v 1.050000 2.450000 -1.449999
v 1.000000 2.450000 -1.449999
v 1.050000 2.450000 -1.549999
v 1.000000 2.450000 -1.549999
v 1.050000 1.690000 -1.469999
v 1.050000 1.690000 -1.529999
v 1.050000 1.810000 -1.469999
v 1.050000 1.810000 -1.529999
v 1.070000 1.810000 -1.469999
v 1.070000 1.810000 -1.529999
v 1.070000 1.690000 -1.469999
v 1.070000 1.690000 -1.529999
v 1.070000 1.780000 -1.484999
v 1.070000 1.780000 -1.515000
v 1.070000 1.720000 -1.484999
v 1.070000 1.720000 -1.515000
v 1.070000 1.780000 -1.494999
v 1.070000 1.780000 -1.504999
v 1.070000 1.720000 -1.494999
v 1.070000 1.720000 -1.504999
v 1.070000 1.740000 -1.484999
v 1.070000 1.760000 -1.484999
v 1.070000 1.740000 -1.515000
v 1.070000 1.760000 -1.515000
v 1.075000 1.780000 -1.504999
v 1.075000 1.780000 -1.515000
v 1.075000 1.720000 -1.504999
v 1.075000 1.720000 -1.515000
v 1.075000 1.760000 -1.484999
v 1.075000 1.780000 -1.484999
v 1.075000 1.760000 -1.515000
v 1.075000 1.780000 -1.494999
v 1.075000 1.720000 -1.484999
v 1.075000 1.720000 -1.494999
v 1.075000 1.740000 -1.484999
v 1.075000 1.740000 -1.515000
v 1.075000 1.760000 -1.494999
v 1.075000 1.740000 -1.494999
v 1.075000 1.760000 -1.504999
v 1.075000 1.740000 -1.504999
v 1.085000 1.740000 -1.484999
v 1.085000 1.760000 -1.484999
v 1.085000 1.740000 -1.515000
v 1.085000 1.760000 -1.515000
v 1.085000 1.740000 -1.494999
v 1.085000 1.760000 -1.494999
v 1.085000 1.740000 -1.504999
v 1.085000 1.760000 -1.504999
v 1.085000 1.740000 -1.484999
v 1.085000 1.760000 -1.484999
v 1.085000 1.740000 -1.515000
v 1.085000 1.760000 -1.515000
v 1.085000 1.740000 -1.494999
v 1.085000 1.760000 -1.494999
v 1.085000 1.740000 -1.504999
v 1.085000 1.760000 -1.504999
v 1.102003 1.719759 -1.484999
v 1.102003 1.739759 -1.484999
v 1.102003 1.719759 -1.515000
v 1.102003 1.739759 -1.515000
v 1.102003 1.719759 -1.494999
v 1.102003 1.739759 -1.494999
v 1.102003 1.719759 -1.504999
v 1.102003 1.739759 -1.504999
v 1.130341 1.582928 -1.484999
v 1.130341 1.602928 -1.484999
v 1.130341 1.582928 -1.515000
v 1.130341 1.602928 -1.515000
v 1.130341 1.582928 -1.494999
v 1.130341 1.602928 -1.494999
v 1.130341 1.582928 -1.504999
v 1.130341 1.602928 -1.504999
v 1.080000 1.740000 -1.504999
v 1.080000 1.740000 -1.515000
v 1.080000 1.760000 -1.515000
v 1.080000 1.740000 -1.494999
v 1.080000 1.740000 -1.484999
v 1.080000 1.760000 -1.484999
v 1.080000 1.760000 -1.504999
v 1.080000 1.760000 -1.494999
v 1.050000 1.000000 -0.999999
v 1.050000 1.000000 -1.049999
v 1.050000 1.050000 -2.199999
v 1.050000 1.000000 -2.199999
v 1.000000 1.050000 -2.199999
v 1.000000 1.000000 -2.199999
v 1.050000 1.050000 -2.249999
v 1.050000 1.000000 -2.249999
v 1.000000 1.050000 -2.249999
v 1.000000 1.000000 -2.249999
v 1.050000 2.450000 -2.199999
v 1.000000 2.450000 -2.199999
v 1.050000 2.450000 -2.249999
v 1.000000 2.450000 -2.249999
v 1.050000 2.500000 -2.199999
v 1.000000 2.500000 -2.199999
v 1.050000 2.500000 -2.249999
v 1.000000 2.500000 -2.249999
v 1.050000 2.450000 -1.999999
v 1.000000 2.450000 -1.999999
v 1.050000 2.500000 -1.999999
v 1.000000 2.500000 -1.999999
v 1.050000 1.050000 -0.799999
v 1.050000 1.000000 -0.799999
v 1.000000 1.050000 -0.799999
v 1.000000 1.000000 -0.799999
v 1.050000 1.050000 -0.749999
v 1.050000 1.000000 -0.749999
v 1.000000 1.050000 -0.749999
v 1.000000 1.000000 -0.749999
v 1.050000 2.450000 -0.799999
v 1.000000 2.450000 -0.799999
v 1.050000 2.450000 -0.749999
v 1.000000 2.450000 -0.749999
v 1.050000 2.500000 -0.799999
v 1.000000 2.500000 -0.799999
v 1.050000 2.500000 -0.749999
v 1.000000 2.500000 -0.749999
v 1.050000 2.450000 -0.999999
v 1.000000 2.450000 -0.999999
v 1.050000 2.500000 -0.999999
v 1.000000 2.500000 -0.999999
v 1.050000 2.850000 -0.799999
v 1.000000 2.850000 -0.799999
v 1.050000 2.850000 -0.749999
v 1.000000 2.850000 -0.749999
v 1.050000 2.900000 -0.799999
v 1.000000 2.900000 -0.799999
v 1.050000 2.900000 -0.749999
v 1.000000 2.900000 -0.749999
v 1.050000 2.850000 -2.199999
v 1.000000 2.850000 -2.199999
v 1.050000 2.900000 -2.199999
v 1.000000 2.900000 -2.199999
v 1.050000 2.850000 -2.249999
v 1.000000 2.850000 -2.249999
v 1.050000 2.900000 -2.249999
v 1.000000 2.900000 -2.249999
v 1.050000 2.850000 -2.199999
v 1.000000 2.850000 -2.199999
v 1.050000 2.850000 -2.249999
v 1.000000 2.850000 -2.249999
vt 0.000000 0.000000
vt 0.000000 0.000000
vt 0.000000 0.000000
vt 0.000000 0.000000
vt 0.000000 0.000000
vt 0.000000 0.000000
vt 0.000000 0.000000
vt 0.000000 0.000000
vt 0.000000 0.000000
vt 0.000000 0.000000
vt 0.000000 0.000000
vt 0.000000 0.000000
vt 0.000000 0.000000
vt 0.000000 0.000000
vt 0.000000 0.000000
vt 0.000000 0.000000
vt 0.000000 0.000000
vt 0.000000 0.000000
vt 0.000000 0.000000
vt 0.000000 0.000000
vt 0.000000 0.000000
vt 0.000000 0.000000
vt 0.000000 0.000000
vt 0.000000 0.000000
vt 0.000000 0.000000
vt 0.000000 0.000000
vt 0.000000 0.000000
vt 0.000000 0.000000
vt 0.000000 0.000000
vt 0.000000 0.000000
vt 0.000000 0.000000
vt 0.000000 0.000000
vt 0.000000 0.000000
vt 0.000000 0.000000
vt 0.000000 0.000000
vt 0.000000 0.000000
vt 0.000000 0.000000
vt 0.000000 0.000000
vt 0.000000 0.000000
vt 0.000000 0.000000
vt 0.000000 0.000000
vt 0.000000 0.000000
vt 0.000000 0.000000
vt 0.000000 0.000000
vt 0.000000 0.000000
vt 0.000000 0.000000
vt 0.000000 0.000000
vt 0.000000 0.000000
vt 0.000000 0.000000
vt 0.000000 0.000000
vt 0.000000 0.000000
vt 0.000000 0.000000
vt 0.000000 0.000000
vt 0.000000 0.000000
vt 0.000000 0.000000
vt 0.000000 0.000000
vt 0.000000 0.000000
vt 0.000000 0.000000
vt 0.000000 0.000000
vt 0.000000 0.000000
vt 0.000000 0.000000
vt 0.000000 0.000000
vt 0.000000 0.000000
vt 0.000000 0.000000
vt 0.000000 0.000000
vt 0.000000 0.000000
vt 0.000000 0.000000
vt 0.000000 0.000000
vt 0.000000 0.000000
vt 0.000000 0.000000
vt 0.000000 0.000000
vt 0.000000 0.000000
vt 0.000000 0.000000
vt 0.000000 0.000000
vt 0.000000 0.000000
vt 0.000000 0.000000
vt 0.000000 0.000000
vt 0.000000 0.000000
vt 0.000000 0.000000
vt 0.000000 0.000000
vt 0.000000 0.000000
vt 0.000000 0.000000
vt 0.000000 0.000000
vt 0.000000 0.000000
vt 0.000000 0.000000
vt 0.000000 0.000000
vt 0.000000 0.000000
vt 0.000000 0.000000
vt 0.000000 0.000000
vt 0.000000 0.000000
vt 0.000000 0.000000
vt 0.000000 0.000000
vt 0.000000 0.000000
vt 0.000000 0.000000
vt 0.000000 0.000000
vt 0.000000 0.000000
vt 0.000000 0.000000
vt 0.000000 0.000000
vt 0.000000 0.000000
vt 0.000000 0.000000
vt 0.000000 0.000000
vt 0.000000 0.000000
vt 0.000000 0.000000
vt 0.000000 0.000000
vt 0.000000 0.000000
vt 0.000000 0.000000
vt 0.000000 0.000000
vt 0.000000 0.000000
vt 0.000000 0.000000
vt 0.000000 0.000000
vt 0.000000 0.000000
vt 0.000000 0.000000
vt 0.000000 0.000000
vt 0.000000 0.000000
vt 0.000000 0.000000
vt 0.000000 0.000000
vt 0.000000 0.000000
vt 0.000000 0.000000
vt 0.000000 0.000000
vt 0.000000 0.000000
vt 0.000000 0.000000
vt 0.000000 0.000000
vt 0.000000 0.000000
vt 0.000000 0.000000
vt 0.000000 0.000000
vt 0.000000 0.000000
vt 0.000000 0.000000
vt 0.000000 0.000000
vt 0.000000 0.000000
vt 0.000000 0.000000
vt 0.000000 0.000000
vt 0.000000 0.000000
vt 0.000000 0.000000
vt 0.000000 0.000000
vt 0.000000 0.000000
vt 0.000000 0.000000
vt 0.000000 0.000000
vt 0.000000 0.000000
vt 0.000000 0.000000
vt 0.000000 0.000000
vt 0.000000 0.000000
vt 0.000000 0.000000
vt 0.000000 0.000000
vt 0.000000 0.000000
vt 0.000000 0.000000
vt 0.000000 0.000000
vt 0.000000 0.000000
vt 0.000000 0.000000
vt 0.000000 0.000000
vt 0.000000 0.000000
vt 0.000000 0.000000
vt 0.000000 0.000000
vt 0.000000 0.000000
vt 0.000000 0.000000
vt 0.000000 0.000000
vt 0.000000 0.000000
vt 0.000000 0.000000
vt 0.000000 0.000000
vt 0.000000 0.000000
vt 0.000000 0.000000
vt 0.000000 0.000000
vt 0.000000 0.000000
vt 0.000000 0.000000
vt 0.000000 0.000000
vt 0.000000 0.000000
vt 0.000000 0.000000
vt 0.000000 0.000000
vt 0.000000 0.000000
vt 0.000000 0.000000
vt 0.000000 0.000000
vt 0.000000 0.000000
vt 0.000000 0.000000
vt 0.000000 0.000000
vt 0.000000 0.000000
vt 0.000000 0.000000
vt 0.000000 0.000000
vt 0.000000 0.000000
vt 0.000000 0.000000
vt 0.000000 0.000000
vt 0.000000 0.000000
vt 0.000000 0.000000
vt 0.000000 0.000000
vt 0.000000 0.000000
vt 0.000000 0.000000
vt 0.000000 0.000000
vt 0.000000 0.000000
vt 0.000000 0.000000
vt 0.000000 0.000000
vt 0.000000 0.000000
vt 0.000000 0.000000
vt 0.000000 0.000000
vt 0.000000 0.000000
vt 0.000000 0.000000
vt 0.000000 0.000000
vt 0.000000 0.000000
vt 0.000000 0.000000
vt 0.000000 0.000000
vt 0.000000 0.000000
vt 0.000000 0.000000
vt 0.000000 0.000000
vt 0.000000 0.000000
vt 0.000000 0.000000
vn 1.0000 0.0000 0.0000
vn 0.0000 -1.0000 0.0000
vn 0.0000 1.0000 0.0000
vn -1.0000 0.0000 0.0000
vn 0.0000 0.0000 -1.0000
vn 0.0000 0.0000 1.0000
vn -0.7657 -0.6432 0.0000
vn -0.9792 -0.2028 0.0000
vn 0.9792 0.2028 0.0000
vn 0.7657 0.6432 0.0000
vn 0.9701 0.2425 0.0000
vn 0.9701 -0.2425 0.0000
usemtl Material
s off
f 1/1/1 5/2/1 27/3/1 25/4/1
f 3/5/2 4/6/2 164/7/2 166/8/2
f 7/9/3 5/2/3 9/10/3 11/11/3
f 3/5/4 2/12/4 7/9/4 8/13/4
f 4/6/2 3/5/2 8/13/2 6/14/2
f 1/1/1 4/6/1 6/14/1 5/2/1
f 10/15/2 12/16/2 16/17/2 14/18/2
f 5/2/1 6/14/1 10/15/1 9/10/1
f 6/14/2 8/13/2 12/16/2 10/15/2
f 8/13/4 7/9/4 11/11/4 12/16/4
f 15/19/3 13/20/3 17/21/3 19/22/3
f 12/16/4 11/11/4 15/19/4 16/17/4
f 9/10/1 13/20/1 55/23/1 53/24/1
f 9/10/1 10/15/1 14/18/1 13/20/1
f 19/22/3 17/21/3 21/25/3 23/26/3
f 13/20/1 14/18/1 18/27/1 17/21/1
f 14/18/2 16/17/2 20/28/2 18/27/2
f 16/17/4 15/19/4 19/22/4 20/28/4
f 17/21/1 18/27/1 22/29/1 21/25/1
f 18/27/2 20/28/2 24/30/2 22/29/2
f 20/28/4 19/22/4 23/26/4 24/30/4
f 28/31/4 26/32/4 30/33/4 32/34/4
f 5/2/5 7/9/5 28/31/5 27/3/5
f 2/12/6 1/1/6 25/4/6 26/32/6
f 7/9/4 2/12/4 26/32/4 28/31/4
f 30/33/3 29/35/3 31/36/3 32/34/3
f 31/36/1 27/3/1 33/37/1 35/38/1
f 25/4/1 27/3/1 31/36/1 29/35/1
f 26/32/6 25/4/6 29/35/6 30/33/6
f 34/39/4 36/40/4 40/41/4 38/42/4
f 27/3/2 28/31/2 34/39/2 33/37/2
f 28/31/4 32/34/4 36/40/4 34/39/4
f 32/34/3 31/36/3 35/38/3 36/40/3
f 39/43/1 37/44/1 41/45/1 43/46/1
f 33/37/2 34/39/2 38/42/2 37/44/2
f 35/38/1 33/37/1 37/44/1 39/43/1
f 36/40/3 35/38/3 39/43/3 40/41/3
f 42/47/4 44/48/4 48/49/4 46/50/4
f 40/41/3 39/43/3 43/46/3 44/48/3
f 38/42/4 40/41/4 44/48/4 42/47/4
f 37/44/2 38/42/2 42/47/2 41/45/2
f 45/51/5 46/50/5 48/49/5 47/52/5
f 46/50/5 45/51/5 51/53/5 52/54/5
f 43/46/1 41/45/1 45/51/1 47/52/1
f 44/48/3 43/46/3 47/52/3 48/49/3
f 49/55/2 50/56/2 52/54/2 51/53/2
f 42/47/4 46/50/4 52/54/4 50/56/4
f 41/45/6 42/47/6 50/56/6 49/55/6
f 45/51/1 41/45/1 49/55/1 51/53/1
f 56/57/4 54/58/4 58/59/4 60/60/4
f 11/11/6 9/10/6 53/24/6 54/58/6
f 15/19/4 11/11/4 54/58/4 56/57/4
f 13/20/5 15/19/5 56/57/5 55/23/5
f 57/61/1 59/62/1 63/63/1 61/64/1
f 54/58/6 53/24/6 57/61/6 58/59/6
f 55/23/1 59/62/1 68/65/1 66/66/1
f 55/23/5 56/57/5 60/60/5 59/62/5
f 62/67/3 61/64/3 63/63/3 64/68/3
f 59/62/5 60/60/5 64/68/5 63/63/5
f 60/60/4 58/59/4 62/67/4 64/68/4
f 58/59/6 57/61/6 61/64/6 62/67/6
f 23/26/3 21/25/3 143/69/3 145/70/3
f 67/71/6 65/72/6 71/73/6 69/74/6
f 59/62/1 57/61/1 67/71/1 68/65/1
f 53/24/1 55/23/1 66/66/1 65/72/1
f 57/61/1 53/24/1 65/72/1 67/71/1
f 72/75/1 70/76/1 74/77/1 84/78/1 83/79/1 76/80/1
f 68/65/3 67/71/3 69/74/3 70/76/3
f 65/72/2 66/66/2 72/75/2 71/73/2
f 66/66/5 68/65/5 70/76/5 72/75/5
f 76/80/5 83/79/5 96/81/5 88/82/5
f 71/73/1 72/75/1 76/80/1 80/83/1 79/84/1 75/85/1
f 69/74/1 71/73/1 75/85/1 81/86/1 82/87/1 73/88/1
f 70/76/1 69/74/1 73/88/1 77/89/1 78/90/1 74/77/1
f 74/77/3 78/90/3 85/91/3 86/92/3
f 75/85/2 79/84/2 94/93/2 93/94/2
f 84/78/5 74/77/5 86/92/5 91/95/5
f 82/87/6 81/86/6 95/96/6 89/97/6
f 78/90/3 77/89/3 92/98/3 85/91/3
f 73/88/6 82/87/6 89/97/6 90/99/6
f 81/86/6 75/85/6 93/94/6 95/96/6
f 83/79/5 84/78/5 91/95/5 96/81/5
f 99/100/1 91/95/1 86/92/1 85/91/1
f 89/97/1 97/101/1 92/98/1 90/99/1
f 97/101/1 99/100/1 85/91/1 92/98/1
f 93/94/1 94/93/1 98/102/1 95/96/1
f 136/103/2 133/104/2 107/105/2 105/106/2
f 94/93/1 87/107/1 100/108/1 98/102/1
f 134/109/5 135/110/5 104/111/5 103/112/5
f 87/107/1 88/82/1 96/81/1 100/108/1
f 133/104/2 134/109/2 103/112/2 107/105/2
f 79/84/2 80/83/2 87/107/2 94/93/2
f 80/83/2 76/80/2 88/82/2 87/107/2
f 77/89/3 73/88/3 90/99/3 92/98/3
f 104/111/6 108/113/6 116/114/6 112/115/6
f 102/116/6 101/117/6 109/118/6 110/119/6
f 101/117/6 105/106/6 113/120/6 109/118/6
f 138/121/6 137/122/6 101/117/6 102/116/6
f 137/122/2 136/103/2 105/106/2 101/117/2
f 135/110/3 139/123/3 108/113/3 104/111/3
f 139/123/3 140/124/3 106/125/3 108/113/3
f 140/124/3 138/121/3 102/116/3 106/125/3
f 109/118/7 113/120/7 121/126/7 117/127/7
f 113/120/7 115/128/7 123/129/7 121/126/7
f 115/128/7 111/130/7 119/131/7 123/129/7
f 108/113/6 106/125/6 114/132/6 116/114/6
f 106/125/6 102/116/6 110/119/6 114/132/6
f 103/112/6 104/111/6 112/115/6 111/130/6
f 107/105/6 103/112/6 111/130/6 115/128/6
f 105/106/6 107/105/6 115/128/6 113/120/6
f 123/129/8 119/131/8 127/133/8 131/134/8
f 119/131/5 120/135/5 128/136/5 127/133/5
f 122/137/9 118/138/9 126/139/9 130/140/9
f 110/119/6 109/118/6 117/127/6 118/138/6
f 112/115/10 116/114/10 124/141/10 120/135/10
f 116/114/10 114/132/10 122/137/10 124/141/10
f 114/132/10 110/119/10 118/138/10 122/137/10
f 111/130/5 112/115/5 120/135/5 119/131/5
f 125/142/1 129/143/1 130/140/1 126/139/1
f 129/143/1 131/134/1 132/144/1 130/140/1
f 131/134/1 127/133/1 128/136/1 132/144/1
f 121/126/8 123/129/8 131/134/8 129/143/8
f 117/127/8 121/126/8 129/143/8 125/142/8
f 118/138/6 117/127/6 125/142/6 126/139/6
f 120/135/9 124/141/9 132/144/9 128/136/9
f 124/141/9 122/137/9 130/140/9 132/144/9
f 97/101/3 89/97/3 138/121/3 140/124/3
f 99/100/3 97/101/3 140/124/3 139/123/3
f 91/95/3 99/100/3 139/123/3 135/110/3
f 95/96/2 98/102/2 136/103/2 137/122/2
f 89/97/6 95/96/6 137/122/6 138/121/6
f 100/108/2 96/81/2 134/109/2 133/104/2
f 96/81/5 91/95/5 135/110/5 134/109/5
f 98/102/2 100/108/2 133/104/2 136/103/2
f 92/98/11 90/99/11 138/121/11 140/124/11 139/123/11 135/110/11 86/92/11 85/91/11
f 91/95/5 86/92/5 135/110/5
f 138/121/6 90/99/6 89/97/6
f 87/107/12 88/82/12 134/109/12 133/104/12 136/103/12 137/122/12 93/94/12 94/93/12
f 134/109/5 88/82/5 96/81/5
f 93/94/6 137/122/6 95/96/6
f 6/14/6 4/6/6 141/145/6 142/146/6
f 144/147/2 146/148/2 150/149/2 148/150/2
f 21/25/1 22/29/1 144/147/1 143/69/1
f 22/29/2 24/30/2 146/148/2 144/147/2
f 24/30/4 23/26/4 145/70/4 146/148/4
f 148/150/5 150/149/5 149/151/5 147/152/5
f 146/148/4 145/70/4 149/151/4 150/149/4
f 149/151/4 145/70/4 152/153/4 154/154/4
f 143/69/1 144/147/1 148/150/1 147/152/1
f 154/154/4 152/153/4 156/155/4 158/156/4
f 147/152/5 149/151/5 154/154/5 153/157/5
f 143/69/1 147/152/1 153/157/1 151/158/1
f 145/70/6 143/69/6 151/158/6 152/153/6
f 155/159/1 157/160/1 201/161/1 199/162/1
f 152/153/2 151/158/2 159/163/2 160/164/2
f 151/158/1 153/157/1 157/160/1 155/159/1
f 153/157/5 154/154/5 158/156/5 157/160/5
f 160/164/6 159/163/6 161/165/6 162/166/6
f 151/158/1 155/159/1 161/165/1 159/163/1
f 156/155/4 152/153/4 160/164/4 162/166/4
f 155/159/3 156/155/3 162/166/3 161/165/3
f 164/7/1 163/167/1 167/168/1 168/169/1
f 2/12/4 3/5/4 166/8/4 165/170/4
f 1/1/3 2/12/3 165/170/3 163/167/3
f 4/6/1 1/1/1 163/167/1 164/7/1
f 168/169/6 167/168/6 169/171/6 170/172/6
f 166/8/2 164/7/2 168/169/2 170/172/2
f 165/170/4 166/8/4 170/172/4 169/171/4
f 167/168/1 163/167/1 171/173/1 173/174/1
f 173/174/1 171/173/1 175/175/1 177/176/1
f 169/171/6 167/168/6 173/174/6 174/177/6
f 165/170/4 169/171/4 174/177/4 172/178/4
f 163/167/5 165/170/5 172/178/5 171/173/5
f 176/179/4 178/180/4 186/181/4 184/182/4
f 171/173/2 172/178/2 180/183/2 179/184/2
f 172/178/4 174/177/4 178/180/4 176/179/4
f 174/177/6 173/174/6 177/176/6 178/180/6
f 179/184/5 180/183/5 182/185/5 181/186/5
f 172/178/4 176/179/4 182/185/4 180/183/4
f 175/175/1 171/173/1 179/184/1 181/186/1
f 176/179/3 175/175/3 181/186/3 182/185/3
f 185/187/1 183/188/1 187/189/1 189/190/1
f 178/180/6 177/176/6 185/187/6 186/181/6
f 177/176/1 175/175/1 183/188/1 185/187/1
f 175/175/5 176/179/5 184/182/5 183/188/5
f 187/189/3 188/191/3 190/192/3 189/190/3
f 183/188/2 184/182/2 192/193/2 191/194/2
f 184/182/4 186/181/4 190/192/4 188/191/4
f 186/181/6 185/187/6 189/190/6 190/192/6
f 193/195/1 191/194/1 195/196/1 197/197/1
f 184/182/4 188/191/4 194/198/4 192/193/4
f 187/189/1 183/188/1 191/194/1 193/195/1
f 188/191/3 187/189/3 193/195/3 194/198/3
f 195/196/5 196/199/5 198/200/5 197/197/5
f 191/194/2 192/193/2 196/199/2 195/196/2
f 192/193/4 194/198/4 198/200/4 196/199/4
f 194/198/3 193/195/3 197/197/3 198/200/3
f 200/201/3 199/162/3 201/161/3 202/202/3
f 157/160/5 158/156/5 202/202/5 201/161/5
f 158/156/4 156/155/4 200/201/4 202/202/4
f 156/155/6 155/159/6 199/162/6 200/201/6
