# Blender v2.79 (sub 0) OBJ File: 'luce neon 3.blend'
# www.blender.org
mtllib luce neon 3.mtl
o Cube.002_Cube.001
v -1.157113 1.686536 0.312874
v 1.142887 1.686536 0.312874
v -1.157113 1.686536 0.112874
v 1.142887 1.686536 0.112874
v -1.157113 1.486536 0.312874
v 1.142887 1.486536 0.312874
v -1.157113 1.486536 0.112874
v 1.142887 1.486536 0.112874
vn 0.0000 1.0000 0.0000
vn -0.0000 0.0000 -1.0000
vn -0.0000 -1.0000 0.0000
vn -0.0000 0.0000 1.0000
vn -1.0000 0.0000 0.0000
vn 1.0000 0.0000 0.0000
usemtl None
s off
f 1//1 2//1 4//1 3//1
f 3//2 4//2 8//2 7//2
f 7//3 8//3 6//3 5//3
f 5//4 6//4 2//4 1//4
f 3//5 7//5 5//5 1//5
f 8//6 4//6 2//6 6//6
o Cube.001
v -1.150000 1.691224 -0.106966
v 1.150000 1.691224 -0.106966
v -1.150000 1.691224 -0.306966
v 1.150000 1.691224 -0.306966
v -1.150000 1.491224 -0.106966
v 1.150000 1.491224 -0.106966
v -1.150000 1.491224 -0.306966
v 1.150000 1.491224 -0.306966
vn 0.0000 1.0000 0.0000
vn -0.0000 0.0000 -1.0000
vn -0.0000 -1.0000 0.0000
vn -0.0000 0.0000 1.0000
vn -1.0000 0.0000 0.0000
vn 1.0000 0.0000 0.0000
usemtl None
s off
f 9//7 10//7 12//7 11//7
f 11//8 12//8 16//8 15//8
f 15//9 16//9 14//9 13//9
f 13//10 14//10 10//10 9//10
f 11//11 15//11 13//11 9//11
f 16//12 12//12 10//12 14//12
o Cube
v 1.249999 1.579375 -0.400000
v 1.249999 1.579375 0.400000
v -1.250000 1.579375 0.400000
v -1.249999 1.579375 -0.400000
v 1.250000 1.879375 -0.400000
v 1.249999 1.879375 0.400000
v -1.250000 1.879375 0.400000
v -1.249999 1.879375 -0.400000
vn 0.0000 -1.0000 0.0000
vn 0.0000 1.0000 -0.0000
vn 1.0000 0.0000 0.0000
vn -0.0000 -0.0000 1.0000
vn -1.0000 -0.0000 -0.0000
vn 0.0000 0.0000 -1.0000
usemtl Material
s off
f 17//13 18//13 19//13 20//13
f 21//14 24//14 23//14 22//14
f 17//15 21//15 22//15 18//15
f 18//16 22//16 23//16 19//16
f 19//17 23//17 24//17 20//17
f 21//18 17//18 20//18 24//18
