# Blender v2.79 (sub 0) OBJ File: 'monitor.blend'
# www.blender.org
mtllib monitor.mtl
o Cube.006
v -0.264637 0.521620 0.746705
v 0.485363 0.521620 0.746705
v -0.264637 0.521620 -0.753295
v 0.485363 0.521620 -0.753295
v -0.264637 0.371620 0.746705
v 0.485363 0.371620 0.746705
v -0.264637 0.371620 -0.753295
v 0.485363 0.371620 -0.753295
vn 0.0000 1.0000 0.0000
vn 0.0000 0.0000 -1.0000
vn -0.0000 -1.0000 0.0000
vn 0.0000 0.0000 1.0000
vn -1.0000 0.0000 0.0000
vn 1.0000 0.0000 0.0000
usemtl None
s off
f 1//1 2//1 4//1 3//1
f 3//2 4//2 8//2 7//2
f 7//3 8//3 6//3 5//3
f 5//4 6//4 2//4 1//4
f 3//5 7//5 5//5 1//5
f 8//6 4//6 2//6 6//6
o Cube.005
v -0.140434 0.502037 0.236780
v -0.140434 1.502037 0.236780
v -0.140434 0.502037 -0.263220
v -0.140434 1.502037 -0.263220
v 0.059566 0.502037 0.236780
v 0.059566 1.502037 0.236780
v 0.059566 0.502037 -0.263220
v 0.059566 1.502037 -0.263220
vn -1.0000 0.0000 0.0000
vn 0.0000 0.0000 -1.0000
vn 1.0000 0.0000 0.0000
vn 0.0000 0.0000 1.0000
vn 0.0000 -1.0000 0.0000
vn 0.0000 1.0000 0.0000
usemtl None
s off
f 9//7 10//7 12//7 11//7
f 11//8 12//8 16//8 15//8
f 15//9 16//9 14//9 13//9
f 13//10 14//10 10//10 9//10
f 11//11 15//11 13//11 9//11
f 16//12 12//12 10//12 14//12
o Cube.004_Cube.001
v 0.096791 1.354864 -1.100541
v 0.096791 1.354864 -1.000541
v 0.096791 3.554864 -1.100541
v 0.096791 3.554864 -1.000541
v 0.196791 1.354864 -1.100541
v 0.196791 1.354864 -1.000541
v 0.196791 3.554864 -1.100541
v 0.196791 3.554864 -1.000541
vn -1.0000 0.0000 0.0000
vn 0.0000 1.0000 0.0000
vn 1.0000 0.0000 0.0000
vn 0.0000 -1.0000 0.0000
vn 0.0000 0.0000 -1.0000
vn 0.0000 -0.0000 1.0000
usemtl None
s off
f 17//13 18//13 20//13 19//13
f 19//14 20//14 24//14 23//14
f 23//15 24//15 22//15 21//15
f 21//16 22//16 18//16 17//16
f 19//17 23//17 21//17 17//17
f 24//18 20//18 18//18 22//18
o Cube.003_Cube.001
v 0.094137 1.356413 1.090738
v 0.094137 1.456412 1.090738
v 0.094137 1.356413 -1.109262
v 0.094137 1.456412 -1.109262
v 0.194137 1.356413 1.090738
v 0.194137 1.456412 1.090738
v 0.194137 1.356413 -1.109262
v 0.194137 1.456412 -1.109262
vn -1.0000 0.0000 0.0000
vn 0.0000 0.0000 -1.0000
vn 1.0000 0.0000 0.0000
vn 0.0000 0.0000 1.0000
vn 0.0000 -1.0000 0.0000
vn 0.0000 1.0000 0.0000
usemtl None
s off
f 25//19 26//19 28//19 27//19
f 27//20 28//20 32//20 31//20
f 31//21 32//21 30//21 29//21
f 29//22 30//22 26//22 25//22
f 27//23 31//23 29//23 25//23
f 32//24 28//24 26//24 30//24
o Cube.002_Cube.001
v 0.096669 1.359908 1.001234
v 0.096669 1.359908 1.101234
v 0.096669 3.559908 1.001234
v 0.096669 3.559908 1.101234
v 0.196669 1.359908 1.001234
v 0.196669 1.359908 1.101234
v 0.196669 3.559908 1.001234
v 0.196669 3.559908 1.101234
vn -1.0000 0.0000 0.0000
vn 0.0000 1.0000 0.0000
vn 1.0000 0.0000 0.0000
vn 0.0000 -1.0000 0.0000
vn 0.0000 0.0000 -1.0000
vn 0.0000 -0.0000 1.0000
usemtl None
s off
f 33//25 34//25 36//25 35//25
f 35//26 36//26 40//26 39//26
f 39//27 40//27 38//27 37//27
f 37//28 38//28 34//28 33//28
f 35//29 39//29 37//29 33//29
f 40//30 36//30 34//30 38//30
o Cube.001
v 0.096337 3.457128 1.099483
v 0.096337 3.557128 1.099483
v 0.096337 3.457128 -1.100517
v 0.096337 3.557128 -1.100517
v 0.196337 3.457128 1.099483
v 0.196337 3.557128 1.099483
v 0.196337 3.457128 -1.100517
v 0.196337 3.557128 -1.100517
vn -1.0000 0.0000 0.0000
vn 0.0000 0.0000 -1.0000
vn 1.0000 0.0000 0.0000
vn 0.0000 0.0000 1.0000
vn 0.0000 -1.0000 0.0000
vn 0.0000 1.0000 0.0000
usemtl None
s off
f 41//31 42//31 44//31 43//31
f 43//32 44//32 48//32 47//32
f 47//33 48//33 46//33 45//33
f 45//34 46//34 42//34 41//34
f 43//35 47//35 45//35 41//35
f 48//36 44//36 42//36 46//36
o Cube
v 0.100000 1.455928 -1.000000
v 0.100000 1.455928 1.000000
v -0.100000 1.455928 1.000000
v -0.100000 1.455928 -1.000000
v 0.100000 3.455928 -0.999999
v 0.100000 3.455928 1.000001
v -0.100000 3.455928 1.000000
v -0.100000 3.455928 -1.000000
vn 0.0000 -1.0000 0.0000
vn 0.0000 1.0000 0.0000
vn 1.0000 0.0000 0.0000
vn -0.0000 -0.0000 1.0000
vn -1.0000 -0.0000 -0.0000
vn 0.0000 0.0000 -1.0000
usemtl Material
s off
f 49//37 50//37 51//37 52//37
f 53//38 56//38 55//38 54//38
f 49//39 53//39 54//39 50//39
f 50//40 54//40 55//40 51//40
f 51//41 55//41 56//41 52//41
f 53//42 49//42 52//42 56//42
