solid pb-MergedObject-245904(Clone)
facet normal 0 -1 0
outer loop
	vertex 0.175 -0.025 0.0713
	vertex 0.18 -0.025 0.0713
	vertex 0.18 -0.025 0.2463
endloop
endfacet
facet normal 0 -1 0
outer loop
	vertex 0.175 -0.025 0.0713
	vertex 0.18 -0.025 0.2463
	vertex 0.175 -0.025 0.2463
endloop
endfacet
facet normal 0 1 0
outer loop
	vertex 0.175 0.005000001 0.2463
	vertex 0.18 0.005000001 0.2463
	vertex 0.18 0.005000001 0.0713
endloop
endfacet
facet normal 0 1 0
outer loop
	vertex 0.175 0.005000001 0.2463
	vertex 0.18 0.005000001 0.0713
	vertex 0.175 0.005000001 0.0713
endloop
endfacet
facet normal -1 0 0
outer loop
	vertex 0.175 0.005000001 0.2463
	vertex 0.175 0.005000001 0.0713
	vertex 0.175 -0.025 0.0713
endloop
endfacet
facet normal -1 0 0
outer loop
	vertex 0.175 0.005000001 0.2463
	vertex 0.175 -0.025 0.0713
	vertex 0.175 -0.025 0.2463
endloop
endfacet
facet normal 0 0 1
outer loop
	vertex 0.18 0.005000001 0.2463
	vertex 0.175 0.005000001 0.2463
	vertex 0.175 -0.025 0.2463
endloop
endfacet
facet normal 0 0 1
outer loop
	vertex 0.18 0.005000001 0.2463
	vertex 0.175 -0.025 0.2463
	vertex 0.18 -0.025 0.2463
endloop
endfacet
facet normal 1 0 0
outer loop
	vertex 0.18 0.005000001 0.0713
	vertex 0.18 0.005000001 0.2463
	vertex 0.18 -0.025 0.2463
endloop
endfacet
facet normal 1 0 0
outer loop
	vertex 0.18 0.005000001 0.0713
	vertex 0.18 -0.025 0.2463
	vertex 0.18 -0.025 0.0713
endloop
endfacet
facet normal 0 0 -1
outer loop
	vertex 0.175 0.005000001 0.0713
	vertex 0.18 0.005000001 0.0713
	vertex 0.18 -0.025 0.0713
endloop
endfacet
facet normal 0 0 -1
outer loop
	vertex 0.175 0.005000001 0.0713
	vertex 0.18 -0.025 0.0713
	vertex 0.175 -0.025 0.0713
endloop
endfacet
facet normal 0 -0.9999999 0
outer loop
	vertex 0.015 -0.025 -0.02
	vertex 0.18 -0.025 -0.02
	vertex 0.18 -0.025 -0.01499999
endloop
endfacet
facet normal 0 -0.9999999 0
outer loop
	vertex 0.015 -0.025 -0.02
	vertex 0.18 -0.025 -0.01499999
	vertex 0.015 -0.025 -0.01499999
endloop
endfacet
facet normal 0 0.9999999 0
outer loop
	vertex 0.015 0.005000001 -0.01499999
	vertex 0.18 0.005000001 -0.01499999
	vertex 0.18 0.005000001 -0.02
endloop
endfacet
facet normal 0 0.9999999 0
outer loop
	vertex 0.015 0.005000001 -0.01499999
	vertex 0.18 0.005000001 -0.02
	vertex 0.015 0.005000001 -0.02
endloop
endfacet
facet normal -1 0 0
outer loop
	vertex 0.015 0.005000001 -0.01499999
	vertex 0.015 0.005000001 -0.02
	vertex 0.015 -0.025 -0.02
endloop
endfacet
facet normal -1 0 0
outer loop
	vertex 0.015 0.005000001 -0.01499999
	vertex 0.015 -0.025 -0.02
	vertex 0.015 -0.025 -0.01499999
endloop
endfacet
facet normal 0 0 1
outer loop
	vertex 0.18 0.005000001 -0.01499999
	vertex 0.015 0.005000001 -0.01499999
	vertex 0.015 -0.025 -0.01499999
endloop
endfacet
facet normal 0 0 1
outer loop
	vertex 0.18 0.005000001 -0.01499999
	vertex 0.015 -0.025 -0.01499999
	vertex 0.18 -0.025 -0.01499999
endloop
endfacet
facet normal 1 0 0
outer loop
	vertex 0.18 0.005000001 -0.02
	vertex 0.18 0.005000001 -0.01499999
	vertex 0.18 -0.025 -0.01499999
endloop
endfacet
facet normal 1 0 0
outer loop
	vertex 0.18 0.005000001 -0.02
	vertex 0.18 -0.025 -0.01499999
	vertex 0.18 -0.025 -0.02
endloop
endfacet
facet normal 0 0 -1
outer loop
	vertex 0.015 0.005000001 -0.02
	vertex 0.18 0.005000001 -0.02
	vertex 0.18 -0.025 -0.02
endloop
endfacet
facet normal 0 0 -1
outer loop
	vertex 0.015 0.005000001 -0.02
	vertex 0.18 -0.025 -0.02
	vertex 0.015 -0.025 -0.02
endloop
endfacet
facet normal 0 -1 0
outer loop
	vertex 0.09 -0.025 0.2463
	vertex 0.18 -0.025 0.2463
	vertex 0.18 -0.025 0.2513
endloop
endfacet
facet normal 0 -1 0
outer loop
	vertex 0.09 -0.025 0.2463
	vertex 0.18 -0.025 0.2513
	vertex 0.09 -0.025 0.2513
endloop
endfacet
facet normal 0 1 0
outer loop
	vertex 0.09 0.005000001 0.2513
	vertex 0.18 0.005000001 0.2513
	vertex 0.18 0.005000001 0.2463
endloop
endfacet
facet normal 0 1 0
outer loop
	vertex 0.09 0.005000001 0.2513
	vertex 0.18 0.005000001 0.2463
	vertex 0.09 0.005000001 0.2463
endloop
endfacet
facet normal -1 0 0
outer loop
	vertex 0.09 0.005000001 0.2513
	vertex 0.09 0.005000001 0.2463
	vertex 0.09 -0.025 0.2463
endloop
endfacet
facet normal -1 0 0
outer loop
	vertex 0.09 0.005000001 0.2513
	vertex 0.09 -0.025 0.2463
	vertex 0.09 -0.025 0.2513
endloop
endfacet
facet normal 0 0 1
outer loop
	vertex 0.18 0.005000001 0.2513
	vertex 0.09 0.005000001 0.2513
	vertex 0.09 -0.025 0.2513
endloop
endfacet
facet normal 0 0 1
outer loop
	vertex 0.18 0.005000001 0.2513
	vertex 0.09 -0.025 0.2513
	vertex 0.18 -0.025 0.2513
endloop
endfacet
facet normal 1 0 0
outer loop
	vertex 0.18 0.005000001 0.2463
	vertex 0.18 0.005000001 0.2513
	vertex 0.18 -0.025 0.2513
endloop
endfacet
facet normal 1 0 0
outer loop
	vertex 0.18 0.005000001 0.2463
	vertex 0.18 -0.025 0.2513
	vertex 0.18 -0.025 0.2463
endloop
endfacet
facet normal 0 0 -1
outer loop
	vertex 0.09 0.005000001 0.2463
	vertex 0.18 0.005000001 0.2463
	vertex 0.18 -0.025 0.2463
endloop
endfacet
facet normal 0 0 -1
outer loop
	vertex 0.09 0.005000001 0.2463
	vertex 0.18 -0.025 0.2463
	vertex 0.09 -0.025 0.2463
endloop
endfacet
facet normal 0 -1 0
outer loop
	vertex 0.175 -0.025 -0.01499999
	vertex 0.18 -0.025 -0.01499999
	vertex 0.18 -0.025 0.05
endloop
endfacet
facet normal 0 -1 0
outer loop
	vertex 0.175 -0.025 -0.01499999
	vertex 0.18 -0.025 0.05
	vertex 0.175 -0.025 0.05
endloop
endfacet
facet normal 0 1 0
outer loop
	vertex 0.175 0.005000001 0.05
	vertex 0.18 0.005000001 0.05
	vertex 0.18 0.005000001 -0.01499999
endloop
endfacet
facet normal 0 1 0
outer loop
	vertex 0.175 0.005000001 0.05
	vertex 0.18 0.005000001 -0.01499999
	vertex 0.175 0.005000001 -0.01499999
endloop
endfacet
facet normal -1 0 0
outer loop
	vertex 0.175 0.005000001 0.05
	vertex 0.175 0.005000001 -0.01499999
	vertex 0.175 -0.025 -0.01499999
endloop
endfacet
facet normal -1 0 0
outer loop
	vertex 0.175 0.005000001 0.05
	vertex 0.175 -0.025 -0.01499999
	vertex 0.175 -0.025 0.05
endloop
endfacet
facet normal 0 0 1
outer loop
	vertex 0.18 0.005000001 0.05
	vertex 0.175 0.005000001 0.05
	vertex 0.175 -0.025 0.05
endloop
endfacet
facet normal 0 0 1
outer loop
	vertex 0.18 0.005000001 0.05
	vertex 0.175 -0.025 0.05
	vertex 0.18 -0.025 0.05
endloop
endfacet
facet normal 1 0 0
outer loop
	vertex 0.18 0.005000001 -0.01499999
	vertex 0.18 0.005000001 0.05
	vertex 0.18 -0.025 0.05
endloop
endfacet
facet normal 1 0 0
outer loop
	vertex 0.18 0.005000001 -0.01499999
	vertex 0.18 -0.025 0.05
	vertex 0.18 -0.025 -0.01499999
endloop
endfacet
facet normal 0 0 -1
outer loop
	vertex 0.175 0.005000001 -0.01499999
	vertex 0.18 0.005000001 -0.01499999
	vertex 0.18 -0.025 -0.01499999
endloop
endfacet
facet normal 0 0 -1
outer loop
	vertex 0.175 0.005000001 -0.01499999
	vertex 0.18 -0.025 -0.01499999
	vertex 0.175 -0.025 -0.01499999
endloop
endfacet
facet normal 0 -1 0
outer loop
	vertex 0.02 -0.025 0.2513
	vertex 0.02000001 -0.025 0.2463
	vertex 0.03000001 -0.025 0.2463
endloop
endfacet
facet normal 0 -1 0
outer loop
	vertex 0.02 -0.025 0.2513
	vertex 0.03000001 -0.025 0.2463
	vertex 0.03 -0.025 0.2513
endloop
endfacet
facet normal 0 1 0
outer loop
	vertex 0.03 0.005000001 0.2513
	vertex 0.03000001 0.005000001 0.2463
	vertex 0.02000001 0.005000001 0.2463
endloop
endfacet
facet normal 0 1 0
outer loop
	vertex 0.03 0.005000001 0.2513
	vertex 0.02000001 0.005000001 0.2463
	vertex 0.02 0.005000001 0.2513
endloop
endfacet
facet normal -5.960464E-06 0 1
outer loop
	vertex 0.03 0.005000001 0.2513
	vertex 0.02 0.005000001 0.2513
	vertex 0.02 -0.025 0.2513
endloop
endfacet
facet normal -5.960464E-06 0 1
outer loop
	vertex 0.03 0.005000001 0.2513
	vertex 0.02 -0.025 0.2513
	vertex 0.03 -0.025 0.2513
endloop
endfacet
facet normal 1 0 2.980226E-06
outer loop
	vertex 0.03000001 0.005000001 0.2463
	vertex 0.03 0.005000001 0.2513
	vertex 0.03 -0.025 0.2513
endloop
endfacet
facet normal 1 0 2.980226E-06
outer loop
	vertex 0.03000001 0.005000001 0.2463
	vertex 0.03 -0.025 0.2513
	vertex 0.03000001 -0.025 0.2463
endloop
endfacet
facet normal 2.980232E-06 0 -1
outer loop
	vertex 0.02000001 0.005000001 0.2463
	vertex 0.03000001 0.005000001 0.2463
	vertex 0.03000001 -0.025 0.2463
endloop
endfacet
facet normal 2.980232E-06 0 -1
outer loop
	vertex 0.02000001 0.005000001 0.2463
	vertex 0.03000001 -0.025 0.2463
	vertex 0.02000001 -0.025 0.2463
endloop
endfacet
facet normal -1 0 -2.980244E-06
outer loop
	vertex 0.02 0.005000001 0.2513
	vertex 0.02000001 0.005000001 0.2463
	vertex 0.02000001 -0.025 0.2463
endloop
endfacet
facet normal -1 0 -2.980244E-06
outer loop
	vertex 0.02 0.005000001 0.2513
	vertex 0.02000001 -0.025 0.2463
	vertex 0.02 -0.025 0.2513
endloop
endfacet
facet normal 0 -1 0
outer loop
	vertex 0.03 -0.004999999 0.2463
	vertex 0.09 -0.004999999 0.2463
	vertex 0.09 -0.004999999 0.2513
endloop
endfacet
facet normal 0 -1 0
outer loop
	vertex 0.03 -0.004999999 0.2463
	vertex 0.09 -0.004999999 0.2513
	vertex 0.03 -0.004999999 0.2513
endloop
endfacet
facet normal 0 1 0
outer loop
	vertex 0.03 0.005000001 0.2513
	vertex 0.09 0.005000001 0.2513
	vertex 0.09 0.005000001 0.2463
endloop
endfacet
facet normal 0 1 0
outer loop
	vertex 0.03 0.005000001 0.2513
	vertex 0.09 0.005000001 0.2463
	vertex 0.03 0.005000001 0.2463
endloop
endfacet
facet normal -0.9999999 0 0
outer loop
	vertex 0.03 0.005000001 0.2513
	vertex 0.03 0.005000001 0.2463
	vertex 0.03 -0.004999999 0.2463
endloop
endfacet
facet normal -0.9999999 0 0
outer loop
	vertex 0.03 0.005000001 0.2513
	vertex 0.03 -0.004999999 0.2463
	vertex 0.03 -0.004999999 0.2513
endloop
endfacet
facet normal 0 0 1
outer loop
	vertex 0.09 0.005000001 0.2513
	vertex 0.03 0.005000001 0.2513
	vertex 0.03 -0.004999999 0.2513
endloop
endfacet
facet normal 0 0 1
outer loop
	vertex 0.09 0.005000001 0.2513
	vertex 0.03 -0.004999999 0.2513
	vertex 0.09 -0.004999999 0.2513
endloop
endfacet
facet normal 0.9999999 0 0
outer loop
	vertex 0.09 0.005000001 0.2463
	vertex 0.09 0.005000001 0.2513
	vertex 0.09 -0.004999999 0.2513
endloop
endfacet
facet normal 0.9999999 0 0
outer loop
	vertex 0.09 0.005000001 0.2463
	vertex 0.09 -0.004999999 0.2513
	vertex 0.09 -0.004999999 0.2463
endloop
endfacet
facet normal 0 0 -1
outer loop
	vertex 0.03 0.005000001 0.2463
	vertex 0.09 0.005000001 0.2463
	vertex 0.09 -0.004999999 0.2463
endloop
endfacet
facet normal 0 0 -1
outer loop
	vertex 0.03 0.005000001 0.2463
	vertex 0.09 -0.004999999 0.2463
	vertex 0.03 -0.004999999 0.2463
endloop
endfacet
facet normal 0 -0.9999999 0
outer loop
	vertex 0.015 -0.03 0.0713
	vertex 0.18 -0.03 0.0713
	vertex 0.18 -0.03 0.08130001
endloop
endfacet
facet normal 0 -0.9999999 0
outer loop
	vertex 0.015 -0.03 0.0713
	vertex 0.18 -0.03 0.08130001
	vertex 0.015 -0.03 0.08130001
endloop
endfacet
facet normal 0 0.9999999 0
outer loop
	vertex 0.015 -0.0275 0.08130001
	vertex 0.18 -0.0275 0.08130001
	vertex 0.18 -0.0275 0.0713
endloop
endfacet
facet normal 0 0.9999999 0
outer loop
	vertex 0.015 -0.0275 0.08130001
	vertex 0.18 -0.0275 0.0713
	vertex 0.015 -0.0275 0.0713
endloop
endfacet
facet normal -1 0 0
outer loop
	vertex 0.015 -0.0275 0.08130001
	vertex 0.015 -0.0275 0.0713
	vertex 0.015 -0.03 0.0713
endloop
endfacet
facet normal -1 0 0
outer loop
	vertex 0.015 -0.0275 0.08130001
	vertex 0.015 -0.03 0.0713
	vertex 0.015 -0.03 0.08130001
endloop
endfacet
facet normal 0 0 0.9999999
outer loop
	vertex 0.18 -0.0275 0.08130001
	vertex 0.015 -0.0275 0.08130001
	vertex 0.015 -0.03 0.08130001
endloop
endfacet
facet normal 0 0 0.9999999
outer loop
	vertex 0.18 -0.0275 0.08130001
	vertex 0.015 -0.03 0.08130001
	vertex 0.18 -0.03 0.08130001
endloop
endfacet
facet normal 1 0 0
outer loop
	vertex 0.18 -0.0275 0.0713
	vertex 0.18 -0.0275 0.08130001
	vertex 0.18 -0.03 0.08130001
endloop
endfacet
facet normal 1 0 0
outer loop
	vertex 0.18 -0.0275 0.0713
	vertex 0.18 -0.03 0.08130001
	vertex 0.18 -0.03 0.0713
endloop
endfacet
facet normal 0 0 -0.9999999
outer loop
	vertex 0.015 -0.0275 0.0713
	vertex 0.18 -0.0275 0.0713
	vertex 0.18 -0.03 0.0713
endloop
endfacet
facet normal 0 0 -0.9999999
outer loop
	vertex 0.015 -0.0275 0.0713
	vertex 0.18 -0.03 0.0713
	vertex 0.015 -0.03 0.0713
endloop
endfacet
facet normal 0 -1 0
outer loop
	vertex 0.01995 -0.0275 0.05
	vertex 0.17495 -0.0275 0.05
	vertex 0.17495 -0.0275 0.06
endloop
endfacet
facet normal 0 -1 0
outer loop
	vertex 0.01995 -0.0275 0.05
	vertex 0.17495 -0.0275 0.06
	vertex 0.01995 -0.0275 0.06
endloop
endfacet
facet normal 0 1 0
outer loop
	vertex 0.01995 -0.025 0.06
	vertex 0.17495 -0.025 0.06
	vertex 0.17495 -0.025 0.05
endloop
endfacet
facet normal 0 1 0
outer loop
	vertex 0.01995 -0.025 0.06
	vertex 0.17495 -0.025 0.05
	vertex 0.01995 -0.025 0.05
endloop
endfacet
facet normal -1 0 0
outer loop
	vertex 0.01995 -0.025 0.06
	vertex 0.01995 -0.025 0.05
	vertex 0.01995 -0.0275 0.05
endloop
endfacet
facet normal -1 0 0
outer loop
	vertex 0.01995 -0.025 0.06
	vertex 0.01995 -0.0275 0.05
	vertex 0.01995 -0.0275 0.06
endloop
endfacet
facet normal 0 0 1
outer loop
	vertex 0.17495 -0.025 0.06
	vertex 0.01995 -0.025 0.06
	vertex 0.01995 -0.0275 0.06
endloop
endfacet
facet normal 0 0 1
outer loop
	vertex 0.17495 -0.025 0.06
	vertex 0.01995 -0.0275 0.06
	vertex 0.17495 -0.0275 0.06
endloop
endfacet
facet normal 1 0 0
outer loop
	vertex 0.17495 -0.025 0.05
	vertex 0.17495 -0.025 0.06
	vertex 0.17495 -0.0275 0.06
endloop
endfacet
facet normal 1 0 0
outer loop
	vertex 0.17495 -0.025 0.05
	vertex 0.17495 -0.0275 0.06
	vertex 0.17495 -0.0275 0.05
endloop
endfacet
facet normal 0 0 -1
outer loop
	vertex 0.01995 -0.025 0.05
	vertex 0.17495 -0.025 0.05
	vertex 0.17495 -0.0275 0.05
endloop
endfacet
facet normal 0 0 -1
outer loop
	vertex 0.01995 -0.025 0.05
	vertex 0.17495 -0.0275 0.05
	vertex 0.01995 -0.0275 0.05
endloop
endfacet
facet normal 0 -1 0
outer loop
	vertex 0.015 -0.025 -0.01499999
	vertex 0.02 -0.025 -0.01499999
	vertex 0.02 -0.025 0.04875001
endloop
endfacet
facet normal 0 -1 0
outer loop
	vertex 0.015 -0.025 -0.01499999
	vertex 0.02 -0.025 0.04875001
	vertex 0.015 -0.025 0.04875001
endloop
endfacet
facet normal 0 1 0
outer loop
	vertex 0.015 0.005000001 0.04875001
	vertex 0.02 0.005000001 0.04875001
	vertex 0.02 0.005000001 -0.01499999
endloop
endfacet
facet normal 0 1 0
outer loop
	vertex 0.015 0.005000001 0.04875001
	vertex 0.02 0.005000001 -0.01499999
	vertex 0.015 0.005000001 -0.01499999
endloop
endfacet
facet normal -1 0 0
outer loop
	vertex 0.015 0.005000001 0.04875001
	vertex 0.015 0.005000001 -0.01499999
	vertex 0.015 -0.025 -0.01499999
endloop
endfacet
facet normal -1 0 0
outer loop
	vertex 0.015 0.005000001 0.04875001
	vertex 0.015 -0.025 -0.01499999
	vertex 0.015 -0.025 0.04875001
endloop
endfacet
facet normal 0 0 1
outer loop
	vertex 0.02 0.005000001 0.04875001
	vertex 0.015 0.005000001 0.04875001
	vertex 0.015 -0.025 0.04875001
endloop
endfacet
facet normal 0 0 1
outer loop
	vertex 0.02 0.005000001 0.04875001
	vertex 0.015 -0.025 0.04875001
	vertex 0.02 -0.025 0.04875001
endloop
endfacet
facet normal 1 0 0
outer loop
	vertex 0.02 0.005000001 -0.01499999
	vertex 0.02 0.005000001 0.04875001
	vertex 0.02 -0.025 0.04875001
endloop
endfacet
facet normal 1 0 0
outer loop
	vertex 0.02 0.005000001 -0.01499999
	vertex 0.02 -0.025 0.04875001
	vertex 0.02 -0.025 -0.01499999
endloop
endfacet
facet normal 0 0 -1
outer loop
	vertex 0.015 0.005000001 -0.01499999
	vertex 0.02 0.005000001 -0.01499999
	vertex 0.02 -0.025 -0.01499999
endloop
endfacet
facet normal 0 0 -1
outer loop
	vertex 0.015 0.005000001 -0.01499999
	vertex 0.02 -0.025 -0.01499999
	vertex 0.015 -0.025 -0.01499999
endloop
endfacet
facet normal 0 -1 0
outer loop
	vertex 0.175 -0.0275 0.0713
	vertex 0.18 -0.0275 0.0713
	vertex 0.18 -0.0275 0.08130001
endloop
endfacet
facet normal 0 -1 0
outer loop
	vertex 0.175 -0.0275 0.0713
	vertex 0.18 -0.0275 0.08130001
	vertex 0.175 -0.0275 0.08130001
endloop
endfacet
facet normal 0 1 0
outer loop
	vertex 0.175 -0.025 0.08130001
	vertex 0.18 -0.025 0.08130001
	vertex 0.18 -0.025 0.0713
endloop
endfacet
facet normal 0 1 0
outer loop
	vertex 0.175 -0.025 0.08130001
	vertex 0.18 -0.025 0.0713
	vertex 0.175 -0.025 0.0713
endloop
endfacet
facet normal -1 0 0
outer loop
	vertex 0.175 -0.025 0.08130001
	vertex 0.175 -0.025 0.0713
	vertex 0.175 -0.0275 0.0713
endloop
endfacet
facet normal -1 0 0
outer loop
	vertex 0.175 -0.025 0.08130001
	vertex 0.175 -0.0275 0.0713
	vertex 0.175 -0.0275 0.08130001
endloop
endfacet
facet normal 0 0 1
outer loop
	vertex 0.18 -0.025 0.08130001
	vertex 0.175 -0.025 0.08130001
	vertex 0.175 -0.0275 0.08130001
endloop
endfacet
facet normal 0 0 1
outer loop
	vertex 0.18 -0.025 0.08130001
	vertex 0.175 -0.0275 0.08130001
	vertex 0.18 -0.0275 0.08130001
endloop
endfacet
facet normal 1 0 0
outer loop
	vertex 0.18 -0.025 0.0713
	vertex 0.18 -0.025 0.08130001
	vertex 0.18 -0.0275 0.08130001
endloop
endfacet
facet normal 1 0 0
outer loop
	vertex 0.18 -0.025 0.0713
	vertex 0.18 -0.0275 0.08130001
	vertex 0.18 -0.0275 0.0713
endloop
endfacet
facet normal 0 0 -1
outer loop
	vertex 0.175 -0.025 0.0713
	vertex 0.18 -0.025 0.0713
	vertex 0.18 -0.0275 0.0713
endloop
endfacet
facet normal 0 0 -1
outer loop
	vertex 0.175 -0.025 0.0713
	vertex 0.18 -0.0275 0.0713
	vertex 0.175 -0.0275 0.0713
endloop
endfacet
facet normal 0 -1 0
outer loop
	vertex 0.015 -0.03 -0.02
	vertex 0.18 -0.03 -0.02
	vertex 0.18 -0.03 0.05
endloop
endfacet
facet normal 0 -1 0
outer loop
	vertex 0.015 -0.03 -0.02
	vertex 0.18 -0.03 0.05
	vertex 0.015 -0.03 0.05
endloop
endfacet
facet normal 0 1 0
outer loop
	vertex 0.015 -0.025 0.05
	vertex 0.18 -0.025 0.05
	vertex 0.18 -0.025 -0.02
endloop
endfacet
facet normal 0 1 0
outer loop
	vertex 0.015 -0.025 0.05
	vertex 0.18 -0.025 -0.02
	vertex 0.015 -0.025 -0.02
endloop
endfacet
facet normal -1 0 0
outer loop
	vertex 0.015 -0.025 0.05
	vertex 0.015 -0.025 -0.02
	vertex 0.015 -0.03 -0.02
endloop
endfacet
facet normal -1 0 0
outer loop
	vertex 0.015 -0.025 0.05
	vertex 0.015 -0.03 -0.02
	vertex 0.015 -0.03 0.05
endloop
endfacet
facet normal 0 0 1
outer loop
	vertex 0.18 -0.025 0.05
	vertex 0.015 -0.025 0.05
	vertex 0.015 -0.03 0.05
endloop
endfacet
facet normal 0 0 1
outer loop
	vertex 0.18 -0.025 0.05
	vertex 0.015 -0.03 0.05
	vertex 0.18 -0.03 0.05
endloop
endfacet
facet normal 1 0 0
outer loop
	vertex 0.18 -0.025 -0.02
	vertex 0.18 -0.025 0.05
	vertex 0.18 -0.03 0.05
endloop
endfacet
facet normal 1 0 0
outer loop
	vertex 0.18 -0.025 -0.02
	vertex 0.18 -0.03 0.05
	vertex 0.18 -0.03 -0.02
endloop
endfacet
facet normal 0 0 -1
outer loop
	vertex 0.015 -0.025 -0.02
	vertex 0.18 -0.025 -0.02
	vertex 0.18 -0.03 -0.02
endloop
endfacet
facet normal 0 0 -1
outer loop
	vertex 0.015 -0.025 -0.02
	vertex 0.18 -0.03 -0.02
	vertex 0.015 -0.03 -0.02
endloop
endfacet
facet normal 0 -1 0
outer loop
	vertex 0.015 -0.03 0.08130001
	vertex 0.18 -0.03 0.08130001
	vertex 0.18 -0.03 0.2513
endloop
endfacet
facet normal 0 -1 0
outer loop
	vertex 0.015 -0.03 0.08130001
	vertex 0.18 -0.03 0.2513
	vertex 0.015 -0.03 0.2513
endloop
endfacet
facet normal 0 1 0
outer loop
	vertex 0.015 -0.025 0.2513
	vertex 0.18 -0.025 0.2513
	vertex 0.18 -0.025 0.08130001
endloop
endfacet
facet normal 0 1 0
outer loop
	vertex 0.015 -0.025 0.2513
	vertex 0.18 -0.025 0.08130001
	vertex 0.015 -0.025 0.08130001
endloop
endfacet
facet normal -1 0 0
outer loop
	vertex 0.015 -0.025 0.2513
	vertex 0.015 -0.025 0.08130001
	vertex 0.015 -0.03 0.08130001
endloop
endfacet
facet normal -1 0 0
outer loop
	vertex 0.015 -0.025 0.2513
	vertex 0.015 -0.03 0.08130001
	vertex 0.015 -0.03 0.2513
endloop
endfacet
facet normal 0 0 1
outer loop
	vertex 0.18 -0.025 0.2513
	vertex 0.015 -0.025 0.2513
	vertex 0.015 -0.03 0.2513
endloop
endfacet
facet normal 0 0 1
outer loop
	vertex 0.18 -0.025 0.2513
	vertex 0.015 -0.03 0.2513
	vertex 0.18 -0.03 0.2513
endloop
endfacet
facet normal 1 0 0
outer loop
	vertex 0.18 -0.025 0.08130001
	vertex 0.18 -0.025 0.2513
	vertex 0.18 -0.03 0.2513
endloop
endfacet
facet normal 1 0 0
outer loop
	vertex 0.18 -0.025 0.08130001
	vertex 0.18 -0.03 0.2513
	vertex 0.18 -0.03 0.08130001
endloop
endfacet
facet normal 0 0 -1
outer loop
	vertex 0.015 -0.025 0.08130001
	vertex 0.18 -0.025 0.08130001
	vertex 0.18 -0.03 0.08130001
endloop
endfacet
facet normal 0 0 -1
outer loop
	vertex 0.015 -0.025 0.08130001
	vertex 0.18 -0.03 0.08130001
	vertex 0.015 -0.03 0.08130001
endloop
endfacet
facet normal 0 -1 0
outer loop
	vertex 0 0 0.2513
	vertex 5.7742E-08 0 0.2313
	vertex 0.01500006 0 0.2313001
endloop
endfacet
facet normal 0 -1 0
outer loop
	vertex 0 0 0.2513
	vertex 0.01500006 0 0.2313001
	vertex 0.015 0 0.2513
endloop
endfacet
facet normal 0 1 0
outer loop
	vertex 0.015 0.005000001 0.2513
	vertex 0.01500006 0.005000001 0.2313001
	vertex 5.7742E-08 0.005000001 0.2313
endloop
endfacet
facet normal 0 1 0
outer loop
	vertex 0.015 0.005000001 0.2513
	vertex 5.7742E-08 0.005000001 0.2313
	vertex 0 0.005000001 0.2513
endloop
endfacet
facet normal -1.986821E-06 0 1
outer loop
	vertex 0.015 0.005000001 0.2513
	vertex 0 0.005000001 0.2513
	vertex 0 0 0.2513
endloop
endfacet
facet normal -1.986821E-06 0 1
outer loop
	vertex 0.015 0.005000001 0.2513
	vertex 0 0 0.2513
	vertex 0.015 0 0.2513
endloop
endfacet
facet normal 0.9999999 0 2.887103E-06
outer loop
	vertex 0.01500006 0.005000001 0.2313001
	vertex 0.015 0.005000001 0.2513
	vertex 0.015 0 0.2513
endloop
endfacet
facet normal 0.9999999 0 2.887103E-06
outer loop
	vertex 0.01500006 0.005000001 0.2313001
	vertex 0.015 0 0.2513
	vertex 0.01500006 0 0.2313001
endloop
endfacet
facet normal 2.980232E-06 0 -1
outer loop
	vertex 5.7742E-08 0.005000001 0.2313
	vertex 0.01500006 0.005000001 0.2313001
	vertex 0.01500006 0 0.2313001
endloop
endfacet
facet normal 2.980232E-06 0 -1
outer loop
	vertex 5.7742E-08 0.005000001 0.2313
	vertex 0.01500006 0 0.2313001
	vertex 5.7742E-08 0 0.2313
endloop
endfacet
facet normal -1 0 -2.887101E-06
outer loop
	vertex 0 0.005000001 0.2513
	vertex 5.7742E-08 0.005000001 0.2313
	vertex 5.7742E-08 0 0.2313
endloop
endfacet
facet normal -1 0 -2.887101E-06
outer loop
	vertex 0 0.005000001 0.2513
	vertex 5.7742E-08 0 0.2313
	vertex 0 0 0.2513
endloop
endfacet
facet normal 0 -1 0
outer loop
	vertex 0.015 -0.025 0.0713
	vertex 0.02 -0.025 0.0713
	vertex 0.02 -0.025 0.2513
endloop
endfacet
facet normal 0 -1 0
outer loop
	vertex 0.015 -0.025 0.0713
	vertex 0.02 -0.025 0.2513
	vertex 0.015 -0.025 0.2513
endloop
endfacet
facet normal 0 1 0
outer loop
	vertex 0.015 0.005000001 0.2513
	vertex 0.02 0.005000001 0.2513
	vertex 0.02 0.005000001 0.0713
endloop
endfacet
facet normal 0 1 0
outer loop
	vertex 0.015 0.005000001 0.2513
	vertex 0.02 0.005000001 0.0713
	vertex 0.015 0.005000001 0.0713
endloop
endfacet
facet normal -1 0 0
outer loop
	vertex 0.015 0.005000001 0.2513
	vertex 0.015 0.005000001 0.0713
	vertex 0.015 -0.025 0.0713
endloop
endfacet
facet normal -1 0 0
outer loop
	vertex 0.015 0.005000001 0.2513
	vertex 0.015 -0.025 0.0713
	vertex 0.015 -0.025 0.2513
endloop
endfacet
facet normal 0 0 1
outer loop
	vertex 0.02 0.005000001 0.2513
	vertex 0.015 0.005000001 0.2513
	vertex 0.015 -0.025 0.2513
endloop
endfacet
facet normal 0 0 1
outer loop
	vertex 0.02 0.005000001 0.2513
	vertex 0.015 -0.025 0.2513
	vertex 0.02 -0.025 0.2513
endloop
endfacet
facet normal 1 0 0
outer loop
	vertex 0.02 0.005000001 0.0713
	vertex 0.02 0.005000001 0.2513
	vertex 0.02 -0.025 0.2513
endloop
endfacet
facet normal 1 0 0
outer loop
	vertex 0.02 0.005000001 0.0713
	vertex 0.02 -0.025 0.2513
	vertex 0.02 -0.025 0.0713
endloop
endfacet
facet normal 0 0 -1
outer loop
	vertex 0.015 0.005000001 0.0713
	vertex 0.02 0.005000001 0.0713
	vertex 0.02 -0.025 0.0713
endloop
endfacet
facet normal 0 0 -1
outer loop
	vertex 0.015 0.005000001 0.0713
	vertex 0.02 -0.025 0.0713
	vertex 0.015 -0.025 0.0713
endloop
endfacet
facet normal 0 -1 0
outer loop
	vertex 0 0 0
	vertex 5.7742E-08 0 -0.02
	vertex 0.01500006 0 -0.01999995
endloop
endfacet
facet normal 0 -1 0
outer loop
	vertex 0 0 0
	vertex 0.01500006 0 -0.01999995
	vertex 0.015 0 4.470348E-08
endloop
endfacet
facet normal 0 1 0
outer loop
	vertex 0.015 0.005000001 4.470348E-08
	vertex 0.01500006 0.005000001 -0.01999995
	vertex 5.7742E-08 0.005000001 -0.02
endloop
endfacet
facet normal 0 1 0
outer loop
	vertex 0.015 0.005000001 4.470348E-08
	vertex 5.7742E-08 0.005000001 -0.02
	vertex 0 0.005000001 0
endloop
endfacet
facet normal -2.980232E-06 0 1
outer loop
	vertex 0.015 0.005000001 4.470348E-08
	vertex 0 0.005000001 0
	vertex 0 0 0
endloop
endfacet
facet normal -2.980232E-06 0 1
outer loop
	vertex 0.015 0.005000001 4.470348E-08
	vertex 0 0 0
	vertex 0.015 0 4.470348E-08
endloop
endfacet
facet normal 1 0 2.887101E-06
outer loop
	vertex 0.01500006 0.005000001 -0.01999995
	vertex 0.015 0.005000001 4.470348E-08
	vertex 0.015 0 4.470348E-08
endloop
endfacet
facet normal 1 0 2.887101E-06
outer loop
	vertex 0.01500006 0.005000001 -0.01999995
	vertex 0.015 0 4.470348E-08
	vertex 0.01500006 0 -0.01999995
endloop
endfacet
facet normal 2.980232E-06 0 -1
outer loop
	vertex 5.7742E-08 0.005000001 -0.02
	vertex 0.01500006 0.005000001 -0.01999995
	vertex 0.01500006 0 -0.01999995
endloop
endfacet
facet normal 2.980232E-06 0 -1
outer loop
	vertex 5.7742E-08 0.005000001 -0.02
	vertex 0.01500006 0 -0.01999995
	vertex 5.7742E-08 0 -0.02
endloop
endfacet
facet normal -1 0 -2.887101E-06
outer loop
	vertex 0 0.005000001 0
	vertex 5.7742E-08 0.005000001 -0.02
	vertex 5.7742E-08 0 -0.02
endloop
endfacet
facet normal -1 0 -2.887101E-06
outer loop
	vertex 0 0.005000001 0
	vertex 5.7742E-08 0 -0.02
	vertex 0 0 0
endloop
endfacet
endsolid pb-MergedObject-245904(Clone)
