solid pb-MergedObject-263246(Clone)
facet normal 0 -1 0
outer loop
	vertex 0 0 -0.02625
	vertex 0.005 0 -0.02625
	vertex 0.005 0 -0.02124999
endloop
endfacet
facet normal 0 -1 0
outer loop
	vertex 0 0 -0.02625
	vertex 0.005 0 -0.02124999
	vertex 0 0 -0.02124999
endloop
endfacet
facet normal 0 1 0
outer loop
	vertex 0 0.025 -0.02124999
	vertex 0.005 0.025 -0.02124999
	vertex 0.005 0.025 -0.02625
endloop
endfacet
facet normal 0 1 0
outer loop
	vertex 0 0.025 -0.02124999
	vertex 0.005 0.025 -0.02625
	vertex 0 0.025 -0.02625
endloop
endfacet
facet normal -1 0 0
outer loop
	vertex 0 0.025 -0.02124999
	vertex 0 0.025 -0.02625
	vertex 0 0 -0.02625
endloop
endfacet
facet normal -1 0 0
outer loop
	vertex 0 0.025 -0.02124999
	vertex 0 0 -0.02625
	vertex 0 0 -0.02124999
endloop
endfacet
facet normal 0 0 1
outer loop
	vertex 0.005 0.025 -0.02124999
	vertex 0 0.025 -0.02124999
	vertex 0 0 -0.02124999
endloop
endfacet
facet normal 0 0 1
outer loop
	vertex 0.005 0.025 -0.02124999
	vertex 0 0 -0.02124999
	vertex 0.005 0 -0.02124999
endloop
endfacet
facet normal 1 0 0
outer loop
	vertex 0.005 0.025 -0.02625
	vertex 0.005 0.025 -0.02124999
	vertex 0.005 0 -0.02124999
endloop
endfacet
facet normal 1 0 0
outer loop
	vertex 0.005 0.025 -0.02625
	vertex 0.005 0 -0.02124999
	vertex 0.005 0 -0.02625
endloop
endfacet
facet normal 0 0 -1
outer loop
	vertex 0 0.025 -0.02625
	vertex 0.005 0.025 -0.02625
	vertex 0.005 0 -0.02625
endloop
endfacet
facet normal 0 0 -1
outer loop
	vertex 0 0.025 -0.02625
	vertex 0.005 0 -0.02625
	vertex 0 0 -0.02625
endloop
endfacet
facet normal 0 -1 0
outer loop
	vertex 0 0 -0.035
	vertex 0.005 0 -0.035
	vertex 0.005 0 -0.03
endloop
endfacet
facet normal 0 -1 0
outer loop
	vertex 0 0 -0.035
	vertex 0.005 0 -0.03
	vertex 0 0 -0.03
endloop
endfacet
facet normal 0 1 0
outer loop
	vertex 0 0.025 -0.03
	vertex 0.005 0.025 -0.03
	vertex 0.005 0.025 -0.035
endloop
endfacet
facet normal 0 1 0
outer loop
	vertex 0 0.025 -0.03
	vertex 0.005 0.025 -0.035
	vertex 0 0.025 -0.035
endloop
endfacet
facet normal -1 0 0
outer loop
	vertex 0 0.025 -0.03
	vertex 0 0.025 -0.035
	vertex 0 0 -0.035
endloop
endfacet
facet normal -1 0 0
outer loop
	vertex 0 0.025 -0.03
	vertex 0 0 -0.035
	vertex 0 0 -0.03
endloop
endfacet
facet normal 0 0 1
outer loop
	vertex 0.005 0.025 -0.03
	vertex 0 0.025 -0.03
	vertex 0 0 -0.03
endloop
endfacet
facet normal 0 0 1
outer loop
	vertex 0.005 0.025 -0.03
	vertex 0 0 -0.03
	vertex 0.005 0 -0.03
endloop
endfacet
facet normal 1 0 0
outer loop
	vertex 0.005 0.025 -0.035
	vertex 0.005 0.025 -0.03
	vertex 0.005 0 -0.03
endloop
endfacet
facet normal 1 0 0
outer loop
	vertex 0.005 0.025 -0.035
	vertex 0.005 0 -0.03
	vertex 0.005 0 -0.035
endloop
endfacet
facet normal 0 0 -1
outer loop
	vertex 0 0.025 -0.035
	vertex 0.005 0.025 -0.035
	vertex 0.005 0 -0.035
endloop
endfacet
facet normal 0 0 -1
outer loop
	vertex 0 0.025 -0.035
	vertex 0.005 0 -0.035
	vertex 0 0 -0.035
endloop
endfacet
facet normal 0 -1 0
outer loop
	vertex 0 0 -0.0175
	vertex 0.005 0 -0.0175
	vertex 0.005 0 -0.0125
endloop
endfacet
facet normal 0 -1 0
outer loop
	vertex 0 0 -0.0175
	vertex 0.005 0 -0.0125
	vertex 0 0 -0.0125
endloop
endfacet
facet normal 0 1 0
outer loop
	vertex 0 0.025 -0.0125
	vertex 0.005 0.025 -0.0125
	vertex 0.005 0.025 -0.0175
endloop
endfacet
facet normal 0 1 0
outer loop
	vertex 0 0.025 -0.0125
	vertex 0.005 0.025 -0.0175
	vertex 0 0.025 -0.0175
endloop
endfacet
facet normal -1 0 0
outer loop
	vertex 0 0.025 -0.0125
	vertex 0 0.025 -0.0175
	vertex 0 0 -0.0175
endloop
endfacet
facet normal -1 0 0
outer loop
	vertex 0 0.025 -0.0125
	vertex 0 0 -0.0175
	vertex 0 0 -0.0125
endloop
endfacet
facet normal 0 0 1
outer loop
	vertex 0.005 0.025 -0.0125
	vertex 0 0.025 -0.0125
	vertex 0 0 -0.0125
endloop
endfacet
facet normal 0 0 1
outer loop
	vertex 0.005 0.025 -0.0125
	vertex 0 0 -0.0125
	vertex 0.005 0 -0.0125
endloop
endfacet
facet normal 1 0 0
outer loop
	vertex 0.005 0.025 -0.0175
	vertex 0.005 0.025 -0.0125
	vertex 0.005 0 -0.0125
endloop
endfacet
facet normal 1 0 0
outer loop
	vertex 0.005 0.025 -0.0175
	vertex 0.005 0 -0.0125
	vertex 0.005 0 -0.0175
endloop
endfacet
facet normal 0 0 -1
outer loop
	vertex 0 0.025 -0.0175
	vertex 0.005 0.025 -0.0175
	vertex 0.005 0 -0.0175
endloop
endfacet
facet normal 0 0 -1
outer loop
	vertex 0 0.025 -0.0175
	vertex 0.005 0 -0.0175
	vertex 0 0 -0.0175
endloop
endfacet
facet normal 0 -1 0
outer loop
	vertex 0 0 -0.008749999
	vertex 0.005 0 -0.008749999
	vertex 0.005 0 -0.003749996
endloop
endfacet
facet normal 0 -1 0
outer loop
	vertex 0 0 -0.008749999
	vertex 0.005 0 -0.003749996
	vertex 0 0 -0.003749996
endloop
endfacet
facet normal 0 1 0
outer loop
	vertex 0 0.025 -0.003749996
	vertex 0.005 0.025 -0.003749996
	vertex 0.005 0.025 -0.008749999
endloop
endfacet
facet normal 0 1 0
outer loop
	vertex 0 0.025 -0.003749996
	vertex 0.005 0.025 -0.008749999
	vertex 0 0.025 -0.008749999
endloop
endfacet
facet normal -1 0 0
outer loop
	vertex 0 0.025 -0.003749996
	vertex 0 0.025 -0.008749999
	vertex 0 0 -0.008749999
endloop
endfacet
facet normal -1 0 0
outer loop
	vertex 0 0.025 -0.003749996
	vertex 0 0 -0.008749999
	vertex 0 0 -0.003749996
endloop
endfacet
facet normal 0 0 1
outer loop
	vertex 0.005 0.025 -0.003749996
	vertex 0 0.025 -0.003749996
	vertex 0 0 -0.003749996
endloop
endfacet
facet normal 0 0 1
outer loop
	vertex 0.005 0.025 -0.003749996
	vertex 0 0 -0.003749996
	vertex 0.005 0 -0.003749996
endloop
endfacet
facet normal 1 0 0
outer loop
	vertex 0.005 0.025 -0.008749999
	vertex 0.005 0.025 -0.003749996
	vertex 0.005 0 -0.003749996
endloop
endfacet
facet normal 1 0 0
outer loop
	vertex 0.005 0.025 -0.008749999
	vertex 0.005 0 -0.003749996
	vertex 0.005 0 -0.008749999
endloop
endfacet
facet normal 0 0 -1
outer loop
	vertex 0 0.025 -0.008749999
	vertex 0.005 0.025 -0.008749999
	vertex 0.005 0 -0.008749999
endloop
endfacet
facet normal 0 0 -1
outer loop
	vertex 0 0.025 -0.008749999
	vertex 0.005 0 -0.008749999
	vertex 0 0 -0.008749999
endloop
endfacet
facet normal 0 -1 0
outer loop
	vertex 0 0 0
	vertex 0.005 0 0
	vertex 0.005 0 0.005000003
endloop
endfacet
facet normal 0 -1 0
outer loop
	vertex 0 0 0
	vertex 0.005 0 0.005000003
	vertex 0 0 0.005000003
endloop
endfacet
facet normal 0 1 0
outer loop
	vertex 0 0.025 0.005000003
	vertex 0.005 0.025 0.005000003
	vertex 0.005 0.025 0
endloop
endfacet
facet normal 0 1 0
outer loop
	vertex 0 0.025 0.005000003
	vertex 0.005 0.025 0
	vertex 0 0.025 0
endloop
endfacet
facet normal -1 0 0
outer loop
	vertex 0 0.025 0.005000003
	vertex 0 0.025 0
	vertex 0 0 0
endloop
endfacet
facet normal -1 0 0
outer loop
	vertex 0 0.025 0.005000003
	vertex 0 0 0
	vertex 0 0 0.005000003
endloop
endfacet
facet normal 0 0 1
outer loop
	vertex 0.005 0.025 0.005000003
	vertex 0 0.025 0.005000003
	vertex 0 0 0.005000003
endloop
endfacet
facet normal 0 0 1
outer loop
	vertex 0.005 0.025 0.005000003
	vertex 0 0 0.005000003
	vertex 0.005 0 0.005000003
endloop
endfacet
facet normal 1 0 0
outer loop
	vertex 0.005 0.025 0
	vertex 0.005 0.025 0.005000003
	vertex 0.005 0 0.005000003
endloop
endfacet
facet normal 1 0 0
outer loop
	vertex 0.005 0.025 0
	vertex 0.005 0 0.005000003
	vertex 0.005 0 0
endloop
endfacet
facet normal 0 0 -1
outer loop
	vertex 0 0.025 0
	vertex 0.005 0.025 0
	vertex 0.005 0 0
endloop
endfacet
facet normal 0 0 -1
outer loop
	vertex 0 0.025 0
	vertex 0.005 0 0
	vertex 0 0 0
endloop
endfacet
endsolid pb-MergedObject-263246(Clone)
